<?xml version="1.0" encoding="UTF-8"?>
<svg id="Capa_2" data-name="Capa 2" xmlns="http://www.w3.org/2000/svg" viewBox="0 0 1191.11 818.8">
  <defs>
    <style>
      .cls-1 {
        fill: #52bfd4;
        font-size: 157.19px;
        letter-spacing: 0em;
      }

      .cls-1, .cls-2, .cls-3, .cls-4, .cls-5 {
        font-family: MontserratRoman-SemiBold, Montserrat;
        font-variation-settings: 'wght' 600;
        font-weight: 600;
      }

      .cls-2, .cls-4 {
        fill: #fff;
        font-size: 261.93px;
        letter-spacing: 0em;
      }

      .cls-2, .cls-6 {
        opacity: .79;
      }

      .cls-3 {
        font-size: 209.28px;
      }

      .cls-7 {
        fill: #ea68a3;
        letter-spacing: 0em;
      }

      .cls-5 {
        fill: #885da3;
        font-size: 207.04px;
        letter-spacing: 0em;
      }

      .cls-8 {
        fill: #fab74f;
        letter-spacing: 0em;
      }

      .cls-9 {
        fill: #ea69a4;
        stroke-width: 0px;
      }
    </style>
  </defs>
  <g id="Capa_1-2" data-name="Capa 1">
    <text class="cls-5" transform="translate(144.62 181.57)"><tspan x="0" y="0">XV</tspan></text>
    <text class="cls-3" transform="translate(0 391.43)"><tspan class="cls-8" x="0" y="0">Sem</tspan><tspan class="cls-7" x="483.44" y="0">EII</tspan></text>
    <text class="cls-1" transform="translate(204.23 544.24)"><tspan x="0" y="0">San Rafael</tspan></text>
    <text class="cls-2" transform="translate(848.93 391.43)"><tspan x="0" y="0">20</tspan></text>
    <g class="cls-6">
      <text class="cls-4" transform="translate(860.29 750.96)"><tspan x="0" y="0">24</tspan></text>
    </g>
    <g id="Capa_1-2" data-name="Capa 1-2">
      <path class="cls-9" d="M574.56,179.69c1.88,5.2,4.08,7.23,7.78,1.13,1.47-2.41,3.61-4.4,5.43-6.56.8.49,1.5.68,1.69,1.1,1.59,3.33-3.04,8.62,1.45,10.11,3.72,1.22,5.5-3.98,7.66-6.93,1.24-1.69,3.49-1.78,5.46-2.32,14.4-4.08,28.34-5.06,43.28-.47,12.29,3.79,26.11,2.41,38.57,5.83,16.7,4.59,33.79,5.03,50.67,6.28,7.17.54,12.11,2.2,16.48,7.16,3.26-3.23-.05-6.14,1.43-9.13,5.81,1.33,10.52,6.51,18.03,6.07-4.78-5.53-9.09-10.44-10.84-17.85,8.45,3.67,15.97,9.3,26.39,6.63-5.22-6.09-13.75-7.03-18.12-14.92,10.51,1.15,20.72,3.75,31.07-4.05-8.29-.51-15.25.61-22.41-3.84,8.66-1.55,16.14-2.64,23.49-4.28,5.74-1.29,10.61-4.54,14.78-8.69,1.2-1.2,2.81-2.64,1.73-4.47-1.01-1.71-3.11-1.08-4.76-1.03-2.06.05-3.89.72-5.62,1.99-18.52,13.67-39.32,9.86-59.43,6.23-4.24-.77-8.38-8.69-12.25-13.47-4.8-5.92-9.25-9.91-17.47-8.17-2.44.52-5.41-1.47-8.13-2.3-1.85-.49-2.25.61-2.36,2.08,1.92,4.83.21,9.7.09,14.57-.14,5.55.77,10.47,7.28,11.41-4.61,1.15-9.7,1.4-14.85,1.06-4.22-.28-6.07-2.22-5.78-6.74.35-5.48,1.64-10.87,1.41-16.41-.31-2.01-1.76-3.07-3.35-4.01-5.18-4.28-11.47-3.89-17.4-3.32-9.74.94-16.67-3.07-22.6-10.26-17.3-20.98-32.39-42.93-36.74-70.77-1.52-9.76-3.93-19.62-9.16-28.48-4.17,12.98,3.26,24.87,2.9,37.58-9.79-15.08-15.79-31.71-19.44-50.46-5.71,7.1-2.97,13.3-1.95,19.25.82,4.76,2.22,9.46,3.6,14.1.7,2.36,3.3,5.36.47,6.81-3.51,1.8-3.72-3.23-5.93-4.59-1.57.52-2.93,1.17-1.97,3.23,1.83,2.76,3.67,5.5,5.5,8.26.72,1.75,1.27,3.6,2.62,5.01.61.58,1.1,1.27,1.76,1.82-.98.68-1.99-.68-3,.03-1.5,1.26-2.25,2.9-2.51,4.75,0,.45.03.94.1,1.43-1.05.02-1.27-1.1-2.04-1.48-1.83-1.48-4.08-1.83-6.25-2.41-13.46-9.88-27.87-18.4-40.49-29.57,5.11,14.66,16.82,23.23,28.5,32.18-14.4-.75-26.25-8.46-39.6-12.5,10.84,11.27,26.77,14.1,41.64,23.44-10.26-1.4-18.12-2.46-25.95-3.53-2.06-.28-4.75-2.43-5.34,1.76,7.89,1.85,8.22,9.09,9.18,14.71,3.14,18.27,11.17,33.13,26.11,44.52,5.24,4,11.24,5.38,16.89,8.36-27.73-.96-55.47-8.8-82.83,1.15,2.74,5.43,8.19,5.76,13.89,7-2.72,1.12-5.43,2.22-8.53,3.49,3.8,3.28,7.92-.03,11.71,1.97.7,1.8-1.52,2.25-2.64,3.19-1.73,1.45-1.36,3.16-.73,4.73.87,2.16,2.86,1.45,4.5,1.24,3.46-.44,6.88-.99,10.33-1.5.73-.45,1.59-.58,2.25-.07.87.68.24,1.33-.33,1.87-2.71,3-7.56,2.44-10.61,6.7,7.24,1.06,13.19-2.02,19.43-2.84,4-.47,2.78,1.73,1.92,3.73-.98,1.71-1.94,3.4-3.12,5.46,4.66,1.47,7.59-2.39,11.34-2.6,1.48-.42,3.04-1.99,4.33.31-.98,2.74-5.38,5.64-2.97,7.87,3.91,3.65,7.31-1.97,11.19-2.69,3.93-.1,1.94,3.51,3.19,5.08h0Z"/>
      <path class="cls-9" d="M593.01,61.54l1.75-5.25c.59-.54.77-1.22.58-1.99-.87-1.9-2.62-2.55-4.45-3.04-4.56-5.41-9.02-10.89-13.67-16.21-5.11-5.86-7.96-13.04-11.92-19.76-.26,8.06-1.47,16.16,4.73,22.9,5.45,5.92,10.72,11.97,16.07,17.98.75,1.64,1.33,3.4,3.14,4.26,1.2.56,2.06,2.25,3.77,1.12Z"/>
      <path class="cls-9" d="M540.04,68.01c1.19-2.39,3.7-.73,5.34-1.76-3.51-2.37-7.52-1.76-12.44-2.16,2.18,3,4.64,3.46,7.1,3.91v.02Z"/>
      <path class="cls-9" d="M585.1,38.8c.66-1.08,1.31-2.15,1.97-3.23-1.59-.51-1.68-4.15-3.35-2.84-2.65,2.09-.91,4.42,1.38,6.07Z"/>
    </g>
  </g>
</svg>