<?xml version="1.0" encoding="UTF-8"?>
<svg id="Capa_2" data-name="Capa 2" xmlns="http://www.w3.org/2000/svg" viewBox="0 0 241.05 66.08">
  <defs>
    <style>
      .cls-1 {
        fill: #fec815;
        stroke-width: 0px;
      }
    </style>
  </defs>
  <g id="Capa_1-2" data-name="Capa 1">
    <g>
      <path class="cls-1" d="M162.68,35.57c-.98.43-1.43,1.11-1.43,2.14,0,.78.27,1.45.82,2.04.54.57,1.61.86,3.19.86,1.24,0,2.41-.31,3.49-.91,1.05-.59,1.9-1.25,2.56-1.97v-2.88h-4.14c-1.9,0-3.42.24-4.49.72Z"/>
      <path class="cls-1" d="M109.04,26.7c-1.01-.46-2.02-.7-3.02-.7s-2.03.24-3.05.7c-1,.45-1.83,1.21-2.48,2.26-.66,1.05-.99,2.47-.99,4.24s.33,3.2.99,4.27c.65,1.05,1.49,1.83,2.49,2.29,2.03.96,4.04.96,6.05.01.99-.47,1.83-1.25,2.5-2.31s1-2.49,1-4.26-.33-3.19-1-4.24-1.51-1.81-2.49-2.26Z"/>
      <path class="cls-1" d="M190.18,26.09c-1.9,0-3.42.58-4.65,1.79-1.21,1.19-1.83,2.99-1.83,5.36s.62,4.15,1.83,5.35c1.24,1.21,2.75,1.81,4.65,1.81,1.3,0,2.49-.29,3.55-.86,1.02-.54,1.91-1.23,2.67-2.03v-8.54c-.76-.8-1.66-1.48-2.67-2.03-1.06-.56-2.25-.85-3.55-.85Z"/>
      <path class="cls-1" d="M232.16,10.51c-6.02-6.47-14.61-10.51-24.15-10.51H26.51c-3.61,0-6.56,2.85-6.75,6.41-.01.12-.01.23-.01.35v1.47c-.75.38-1.49.81-2.21,1.27l-1.36-.79c-1.56-.9-3.36-1.14-5.09-.68-1.72.47-3.17,1.58-4.06,3.13L.9,21.78C0,23.33-.23,25.13.23,26.85c.46,1.73,1.57,3.17,3.12,4.07l1.37.79c-.01.42-.02.85-.02,1.27s.01.85.02,1.28l-1.38.79c-3.18,1.85-4.28,5.95-2.44,9.14l6.13,10.62c1.84,3.19,5.94,4.29,9.14,2.45l1.37-.79c.72.45,1.46.88,2.21,1.27v1.57c0,.47.05.92.14,1.37.05.21.1.43.17.64.16.53.39,1.03.67,1.5.11.17.23.35.35.51,0,.01.01.02.02.03.13.16.26.32.4.47,0,.01,0,.02.01.03,1.24,1.36,3.02,2.22,5,2.22h181.5c9.54,0,18.13-4.04,24.15-10.51,5.52-5.9,8.89-13.82,8.89-22.53s-3.37-16.63-8.89-22.53ZM104.56,18.1c.08-.15.13-.26.16-.31l2.18-3.85c.19-.29.41-.53.67-.73.3-.22.7-.33,1.17-.33.61,0,1.12.19,1.5.57.38.39.57.89.57,1.51,0,.52-.18.99-.55,1.39l-2.92,3.48c-.35.42-.81.64-1.32.64-.48,0-.88-.15-1.19-.46-.3-.31-.46-.71-.46-1.18,0-.26.06-.5.19-.73ZM58.12,33.04c0,.77-.04,1.54-.11,2.3l2.38,1.38c1.92,1.11,2.58,3.57,1.47,5.49l-5.58,9.68c-1.12,1.92-3.58,2.58-5.5,1.47l-2.38-1.37c-1.25.9-2.59,1.68-4,2.31v2.74c0,2.23-1.8,4.03-4.02,4.03h-11.17c-2.22,0-4.03-1.8-4.03-4.02v-2.75c-1.36-.62-2.66-1.36-3.89-2.24-.79-.56-.93-1.69-.31-2.44l.89-1.06c.56-.67,1.54-.8,2.25-.3,1.32.92,2.74,1.67,4.25,2.23l1.56.57v5.27h9.73v-5.27l1.55-.57c2-.74,3.84-1.8,5.48-3.17l1.27-1.06,4.57,2.64,4.87-8.43-4.57-2.64.28-1.63c.18-1.03.27-2.1.27-3.16s-.09-2.13-.27-3.17l-.28-1.63,4.57-2.63-4.87-8.43-4.57,2.63-1.27-1.06c-1.64-1.36-3.48-2.43-5.48-3.16l-1.55-.57v-5.27h-9.73v5.27l-1.56.57c-1.99.73-3.84,1.8-5.47,3.16l-.58.49h0s-.68.57-.68.57l-.53-.31-4.04-2.32-1.52,2.63-3.35,5.8,1.1.63,3.22,1.86v12.48c-.09.45-.31.85-.67,1.19-.95.92-2.51.92-3.44-.01-.32-.32-.53-.69-.63-1.11v-9.81l-.07-.04-2.5-1.44c-1.92-1.11-2.58-3.57-1.48-5.5l5.59-9.67c.54-.94,1.41-1.6,2.45-1.88,1.03-.28,2.12-.14,3.05.4l2.38,1.38c1.25-.91,2.59-1.68,3.99-2.31v-2.75c0-2.22,1.81-4.02,4.03-4.02h11.17c2.22,0,4.02,1.8,4.02,4.02v2.75c1.41.63,2.74,1.4,4,2.31l2.38-1.38c.93-.53,2.01-.68,3.05-.4,1.04.28,1.91.94,2.45,1.88l5.58,9.67c1.11,1.93.45,4.39-1.47,5.5l-2.38,1.37c.07.77.11,1.54.11,2.31ZM38.23,26.76c-1.06-.59-2.27-.93-3.56-.91-.86.01-1.68.18-2.44.48-2.29.88-4.02,2.89-4.49,5.35v8.37c0,.28-.04.54-.13.79-.01.05-.03.1-.05.14-.12.28-.29.54-.54.77t-.01.02s-.04.04-.06.05c-.95.87-2.47.85-3.38-.06-.46-.46-.7-1.04-.7-1.71v-6.79c0-3.3,1.31-6.33,3.46-8.54,1.34-1.38,3-2.44,4.87-3.04.36-.13.74-.23,1.12-.31.71-.15,1.44-.24,2.19-.26,3.04-.07,5.83,1.01,7.97,2.83,2.59,2.18,4.24,5.45,4.24,9.1v7.01c0,.67-.24,1.25-.73,1.72-.47.46-1.05.69-1.72.69s-1.25-.24-1.72-.7h-.01c-.26-.28-.45-.58-.56-.92-.09-.25-.13-.51-.13-.79v-8.18c-.39-2.18-1.76-4.05-3.62-5.11ZM91.48,42.39c0,.67-.24,1.25-.73,1.72-.47.46-1.05.69-1.72.69s-1.25-.24-1.72-.7h-.01c-.26-.28-.45-.58-.56-.92-.09-.25-.13-.51-.13-.79v-10.16c-.39-2.18-1.76-4.05-3.62-5.11-1.06-.59-2.27-.93-3.56-.91-.86.01-1.68.18-2.44.48-2.29.88-4.02,2.89-4.49,5.35v10.35c0,.28-.04.54-.13.79-.01.05-.03.1-.05.14-.12.28-.29.54-.54.77t-.01.02s-.04.04-.06.05c-.95.87-2.47.85-3.38-.06-.46-.46-.7-1.04-.7-1.71v-8.77c0-3.3,1.31-6.33,3.46-8.54,1.34-1.38,3-2.44,4.87-3.04.36-.13.74-.23,1.12-.31.71-.15,1.44-.24,2.19-.26,3.04-.07,5.83,1.01,7.97,2.83,2.59,2.18,4.24,5.45,4.24,9.1v8.99ZM115.98,39.37c-.94,1.76-2.29,3.16-3.99,4.15s-3.71,1.49-5.97,1.49-4.28-.5-5.99-1.49c-1.72-.99-3.07-2.39-4-4.15-.93-1.76-1.4-3.82-1.4-6.13s.47-4.37,1.4-6.12c.93-1.76,2.28-3.16,4-4.16,1.71-.99,3.72-1.49,5.99-1.49s4.27.51,5.97,1.5,3.05,2.38,3.99,4.15c.95,1.75,1.42,3.81,1.42,6.12s-.47,4.38-1.42,6.13ZM153.81,42.39c0,.67-.25,1.25-.73,1.72-.48.46-1.06.69-1.73.69s-1.25-.24-1.71-.7c-.47-.46-.7-1.04-.7-1.71v-11.49c0-1.67-.29-2.92-.87-3.72-.53-.75-1.53-1.13-2.97-1.13-.99,0-1.84.18-2.53.55-.71.38-1.32.87-1.81,1.44-.49.56-.92,1.14-1.28,1.73v12.62c0,.67-.25,1.25-.73,1.72-.96.92-2.52.91-3.45-.01-.46-.46-.69-1.04-.69-1.71v-11.49c0-1.67-.3-2.92-.87-3.72-.53-.75-1.54-1.13-2.97-1.13-.99,0-1.84.18-2.53.55-.71.38-1.32.87-1.81,1.44-.49.56-.92,1.14-1.29,1.73v12.62c0,.67-.24,1.25-.72,1.72-.96.92-2.52.91-3.45-.01-.46-.46-.7-1.04-.7-1.71v-18.25c0-.67.24-1.25.7-1.73.92-.96,2.49-.96,3.45,0,.48.47.72,1.06.72,1.73v.33c.21-.23.43-.46.66-.69.65-.63,1.48-1.18,2.46-1.62,1-.46,2.21-.69,3.61-.69,1.82,0,3.33.5,4.51,1.48.89.74,1.58,1.55,2.08,2.42.28-.37.62-.77,1-1.18.66-.73,1.55-1.36,2.63-1.9,1.1-.54,2.48-.82,4.11-.82,1.79,0,3.26.46,4.4,1.37,1.11.89,1.94,2.01,2.45,3.33.5,1.3.76,2.64.76,3.97v12.25ZM176.18,42.39c0,.67-.25,1.25-.73,1.72-.96.92-2.52.92-3.44-.01-.46-.46-.7-1.02-.7-1.69-.66.54-1.44,1.05-2.33,1.52-1.34.72-3.08,1.08-5.17,1.08-1.29,0-2.51-.27-3.64-.81-1.14-.55-2.06-1.34-2.75-2.36-.69-1.03-1.04-2.28-1.04-3.71,0-2.16.87-3.96,2.59-5.34,1.68-1.36,4.27-2.05,7.69-2.05h4.65c-.03-1.65-.44-2.84-1.23-3.52-.84-.72-2.18-1.09-3.97-1.09-1.15,0-2.16.1-3.01.31-.88.21-1.72.44-2.49.69-.3.07-.52.11-.71.11-.56,0-1.05-.21-1.46-.62-.41-.41-.61-.91-.61-1.5,0-.97.48-1.69,1.41-2.08,1.01-.43,2.14-.8,3.37-1.11,1.24-.3,2.64-.46,4.18-.46,2.15,0,3.95.44,5.33,1.31,1.37.87,2.41,2,3.07,3.35.66,1.34.99,2.76.99,4.22v12.04ZM201.27,42.39c0,.67-.24,1.25-.7,1.71-.93.92-2.49.93-3.44.01-.47-.45-.72-1.01-.73-1.66-.78.68-1.62,1.24-2.52,1.66-1.25.6-2.68.9-4.25.9-1.78,0-3.52-.46-5.16-1.38-1.65-.92-3.01-2.27-4.06-4.01-1.04-1.74-1.58-3.89-1.58-6.38s.54-4.64,1.58-6.38c1.05-1.74,2.41-3.09,4.06-4.01,1.64-.91,3.38-1.38,5.16-1.38,1.57,0,3,.31,4.25.9.9.43,1.74.99,2.52,1.66v-9.24c0-.71.24-1.3.73-1.77.96-.92,2.51-.92,3.44.01.46.46.7,1.06.7,1.76v27.6ZM224.75,34.4c-.45.47-1.05.7-1.78.7h-13.84c.28,1.52.93,2.76,1.93,3.71,1.12,1.05,2.78,1.59,4.93,1.59,1.23,0,2.27-.12,3.1-.35.85-.23,1.66-.54,2.42-.92.77-.38,1.82-.27,2.52.38.44.41.67.93.67,1.56,0,.45-.14.86-.43,1.22-.25.32-.57.59-.94.79-.95.55-2,1.01-3.12,1.38-1.14.37-2.67.55-4.56.55-3.58,0-6.42-1.04-8.46-3.1-2.02-2.06-3.05-4.98-3.05-8.67,0-1.98.37-3.88,1.1-5.65.74-1.8,1.91-3.28,3.49-4.41,1.58-1.13,3.62-1.71,6.07-1.71,2.27,0,4.23.54,5.81,1.6,1.57,1.05,2.78,2.44,3.59,4.13.81,1.68,1.22,3.52,1.22,5.49,0,.67-.22,1.24-.67,1.71Z"/>
      <path class="cls-1" d="M217.36,26.34c-1.73-.79-3.38-.79-5.12,0-.85.39-1.58,1-2.18,1.84-.51.71-.84,1.65-.97,2.78h11.46c-.13-1.13-.46-2.06-.98-2.78-.62-.83-1.36-1.45-2.21-1.84Z"/>
    </g>
  </g>
</svg>