<?xml version="1.0" encoding="UTF-8"?>
<svg id="Capa_2" data-name="Capa 2" xmlns="http://www.w3.org/2000/svg" viewBox="0 0 465.25 472.4">
  <defs>
    <style>
      .cls-1 {
        fill: #2fac66;
        stroke-width: 0px;
      }
    </style>
  </defs>
  <g id="Capa_1-2" data-name="Capa 1">
    <g>
      <g>
        <path class="cls-1" d="M331.51,209.73c-8.63,13.62-17.29,27.2-25.99,40.77-2.55,3.99-6.45,6.29-10.7,6.29h-.04c-4.22,0-8.1-2.25-10.65-6.18-8.81-13.58-17.57-27.18-26.32-40.82-2.59-4.05-2.92-8.81-.84-12.72,1.38-2.63,3.7-4.58,6.56-5.64-14.54-11.17-30.47-13.99-48.58-8.65-10,2.95-18.28,8.92-24.67,17.75-1.84,2.55-7.42,10.28-18.15,9.67-7.79-.46-13.93-4.32-17.29-10.84-1.92-3.74-4.11-11.28,2.72-19.93l1.46-1.88c1.75-2.24,3.55-4.55,5.64-6.79,15.39-16.58,33.8-26.4,54.75-29.2,25.23-3.36,48.19,3.09,68.26,19.2,9.86,7.92,17.9,17.9,23.9,29.7,2.76-.04,5.49-.02,8.13.02l1.27.02c4.95.06,9.17,2.44,11.32,6.39,2.13,3.91,1.84,8.73-.79,12.85Z"/>
        <path class="cls-1" d="M308.45,292.17c-4.93,6.91-10.42,12.89-16.35,17.8-17.38,14.45-36.62,21.74-57.3,21.74-2.82,0-5.66-.13-8.52-.4-29.87-2.8-53.29-17.67-69.6-44.16l-.48-.75c-.63-1-1.38-2.17-2.03-3.55-2.09.12-4.07.08-5.99.04-1.09-.02-2.19-.04-3.28-.02-5.22.02-9.53-2.34-11.89-6.62-1.55-2.84-2.67-7.41.94-13.05l10.67-16.71c4.97-7.81,9.96-15.62,14.94-23.41,3.68-5.77,8.42-6.64,10.94-6.66h.02c2.51,0,7.25.88,10.97,6.62,5.66,8.77,11.3,17.54,16.96,26.3l8.71,13.51c3.01,4.68,3.38,9.15,1.09,13.28-.88,1.63-2.65,3.97-5.81,5.35,10.63,8.17,22.96,11.68,36.68,10.46,14.45-1.29,26.3-7.69,35.28-19.05.29-.38.58-.77.88-1.15.69-.9,1.46-1.94,2.38-2.97,4.32-4.89,10.95-7.25,17.71-6.33,6.77.94,12.53,5.03,15.37,10.92,2.05,4.26,3.32,10.97-2.28,18.82Z"/>
      </g>
      <path class="cls-1" d="M460.7,313.47l-47.02,81.57c-9.44,16.18-30.17,21.74-46.35,12.39l-20.06-11.54c-10.53,7.58-21.82,14.16-33.71,19.47v23.09c0,18.79-15.17,33.96-33.87,33.96h-94.13c-18.71,0-33.96-15.17-33.96-33.87v-23.17c-11.46-5.22-22.42-11.46-32.78-18.88-6.66-4.72-7.84-14.24-2.61-20.56l7.5-8.93c4.72-5.65,12.98-6.74,18.96-2.53,11.12,7.75,23.09,14.07,35.81,18.79l13.15,4.8v44.41h81.99v-44.41l13.06-4.8c16.85-6.24,32.36-15.17,46.18-26.71l10.7-8.93,38.51,22.25,41.04-71.04-38.51-22.25,2.36-13.74c1.52-8.68,2.28-17.7,2.28-26.63s-.76-17.95-2.28-26.71l-2.36-13.74,38.51-22.16-41.04-71.04-38.51,22.16-10.7-8.93c-13.82-11.46-29.33-20.48-46.18-26.63l-13.06-4.8v-44.41h-81.99v44.41l-13.15,4.8c-16.77,6.15-32.36,15.17-46.09,26.63l-4.89,4.13-.08.08-5.73,4.72-4.47-2.61-34.04-19.55-12.81,22.16-28.23,48.88,9.27,5.31,27.13,15.67v105.16c-.76,3.79-2.61,7.16-5.65,10.03-8.01,7.75-21.15,7.75-28.99-.08-2.7-2.7-4.47-5.81-5.31-9.35v-82.67l-.59-.34-21.07-12.13c-16.18-9.35-21.74-30.08-12.47-46.35l47.11-81.49c4.55-7.92,11.88-13.48,20.64-15.84,8.68-2.36,17.87-1.18,25.7,3.37l20.06,11.63c10.53-7.67,21.82-14.16,33.62-19.47v-23.17c0-18.71,15.25-33.88,33.96-33.88h94.13c18.71,0,33.87,15.17,33.87,33.88v23.17c11.88,5.31,23.09,11.8,33.71,19.47l20.06-11.63c7.84-4.47,16.94-5.73,25.7-3.37,8.76,2.36,16.1,7.92,20.65,15.84l47.02,81.49c9.35,16.26,3.79,36.99-12.39,46.35l-20.06,11.54c.59,6.49.93,12.98.93,19.47s-.34,12.98-.93,19.38l20.06,11.63c16.18,9.35,21.74,30.08,12.39,46.26Z"/>
    </g>
  </g>
</svg>