<?xml version="1.0" encoding="UTF-8"?>
<svg id="Capa_2" data-name="Capa 2" xmlns="http://www.w3.org/2000/svg" viewBox="0 0 273.82 110.76">
  <defs>
    <style>
      .cls-1 {
        fill: #333;
        stroke-width: 0px;
      }
    </style>
  </defs>
  <g id="Capa_1-2" data-name="Capa 1">
    <g id="yZbNpU">
      <g>
        <path class="cls-1" d="M87.72,110.76c-9.6-2.59-11.18-10.03-10.05-16.5,1.87-10.73,14.42-11.76,20.89-8.06,2.4,1.37,2.41,1.35,2.42-1.41,0-2.45.03-4.89,0-7.34-.01-1.16.18-2.14,1.45-2.53h5.51c.05,6.88.12,13.76.15,20.63.02,3.82,0,7.65,0,11.47,0,3.43,0,3.34-3.38,3.46-2.04.07-3.52-.22-3.32-2.97-2.31,1.4-4.45,2.54-6.78,3.24h-6.89ZM101.03,98.5c.04-5.14-2.15-8.55-5.74-9.67-4.03-1.26-7.8.37-9.56,4.14-2.11,4.5-.88,10.13,2.75,12.61,2.61,1.79,5.37,1.66,8.05.36,3.34-1.62,4.4-4.66,4.5-7.44Z"/>
        <path class="cls-1" d="M156.17,110.76c-.84-.37-1.69-.72-2.51-1.12-5.62-2.74-6.15-9.84-1.06-13.5,2.49-1.79,5.36-2.15,8.26-2.4,2.44-.21,4.88-.32,7.33-.48.89-.06,1.95.13,2.11-1.2.16-1.26-.22-2.3-1.44-2.84-1.42-.63-2.94-.79-4.48-.85-3.53-.15-7.03.35-10.54.52-1.1.05-1.92-.1-2.33-1.3-.38-1.08-.24-1.82.97-2.05,6.5-1.22,13.04-2.02,19.58-.5,4.08.95,5.36,2.88,5.38,7.1.02,5.28-.05,10.56.03,15.85.03,1.92-.69,2.62-2.56,2.5-1.99-.12-4.45.66-4.17-3.18-2.31,1.59-4.42,2.76-6.75,3.46h-7.81ZM170.37,100.03c.01-3.38.01-3.36-2.98-3.12-1.44.12-2.89.15-4.34.22-1.62.08-3.19.38-4.57,1.27-2.14,1.39-2.67,5.13-.72,6.55,2.65,1.94,5.69,2.03,8.7.79,2.63-1.08,4.28-2.91,3.91-5.72Z"/>
        <path class="cls-1" d="M226.46,110.76c-1.16-.39-2.35-.71-3.47-1.18-5.7-2.39-8.72-6.9-8.5-12.62.21-5.5,3.8-10.09,9.66-11.78,4.64-1.34,9.4-1.35,14,.35,5.5,2.03,8.52,6.26,8.61,11.79.09,5.57-2.93,10.03-8.33,12.27-1.06.44-2.15.78-3.23,1.16h-8.73ZM239.26,97.48c-.04-5.71-3.43-9.31-8.72-9.26-5.04.05-8.62,3.91-8.6,9.27.02,5.5,3.69,9.53,8.69,9.53,5,0,8.67-4.06,8.63-9.55Z"/>
        <path class="cls-1" d="M17.89,110.76c-3.35-1.2-6.56-2.59-8.66-5.69-.91-1.35-1.74-2.77-1.92-4.38-.2-1.8-1.09-2.36-2.75-2.2-.76.07-1.54.09-2.29-.01-.81-.11-2.2.54-2.26-.71-.06-1.13.68-2.87,2-2.65,4.07.67,5.4-1.84,7.32-4.71,3.58-5.35,9.24-6.74,15.42-5.91,4.93.66,8.46,3.34,10.45,7.93.36.83.59,1.75.68,2.65.24,2.43-.62,3.4-3.1,3.42-5.43.04-10.87,0-16.3.02-2.52,0-2.85.49-1.76,2.81,1.7,3.62,4.74,5.3,8.58,5.6,3.16.24,6.27-.18,9.24-1.35,1.34-.53,2.3-.54,2.88,1.06.63,1.75-.71,1.98-1.73,2.32-2.03.68-4.1,1.21-6.16,1.81h-9.65ZM21.22,94.95s0-.05,0-.07c1.91,0,3.83.13,5.72-.03,2.25-.2,2.66-1.06,1.73-3.05-1.17-2.48-4.42-4.13-7.51-3.81-3.23.34-5.99,2.47-6.69,5.13-.29,1.11-.03,1.82,1.25,1.83,1.83.01,3.67,0,5.5,0Z"/>
        <path class="cls-1" d="M125.39,110.76c-.71-.29-1.41-.59-2.12-.86-6.23-2.38-9.49-7.93-8.54-14.57.74-5.16,6.32-10.27,11.96-10.85,5.3-.55,10.26.1,14.04,4.44,1.44,1.66,2.42,3.52,2.76,5.7.45,2.86-.34,3.86-3.22,3.88-5.51.03-11.01,0-16.52.02-2.15,0-2.4.38-1.54,2.42,1.25,2.94,3.47,4.82,6.54,5.6,3.93,1,7.75.35,11.48-1,1.32-.48,2.27-.65,2.86,1.02.6,1.73-.66,1.99-1.69,2.35-1.94.68-3.93,1.24-5.9,1.85h-10.11ZM128.79,94.96c1.68,0,3.37,0,5.05,0,.15,0,.31,0,.46-.02,2.47-.26,3.08-1.4,1.78-3.55-1.6-2.64-4.14-3.57-7.06-3.38-3.49.23-6,2.25-6.92,5.15-.37,1.17-.1,1.79,1.19,1.8,1.84,0,3.67,0,5.51,0Z"/>
        <path class="cls-1" d="M185.97,84.6c2.46-.63,3.89.79,5.04,3.28,2.02,4.37,4.36,8.59,6.6,12.86.33.64.42,1.69,1.33,1.67.74-.02.86-.98,1.17-1.56,2.53-4.72,5.03-9.45,7.55-14.18.5-.95.95-1.98,2.26-2,1.04-.01,2.35-.48,3,.51.54.81-.4,1.69-.81,2.47-3.64,6.9-7.38,13.75-10.92,20.69-.95,1.86-2.23,2.13-4.05,2.17-1.86.04-2.9-.6-3.75-2.27-3.49-6.89-7.11-13.71-10.67-20.57-1.51-2.91-1.41-3.05,1.96-3.07.31,0,.61,0,1.31,0Z"/>
        <path class="cls-1" d="M259.97,88.92c3.59-3.63,7.64-5.13,12.47-4.55,1.44.17,1.66.55,1.1,1.86-.78,1.8-1.84,2.65-3.96,2.68-5.54.07-9.8,4.41-9.98,9.95-.1,3.05-.08,6.12-.03,9.17.03,1.7-.53,2.5-2.38,2.46-5.51-.1-4.64.32-4.68-4.66-.05-6.19.07-12.39-.06-18.58-.05-2.17.82-2.92,2.8-2.81.15,0,.31,0,.46-.01q3.56-.14,3.88,3.46c.02.21.15.41.38,1.03Z"/>
        <path class="cls-1" d="M49.89,88.29c4.02-3.61,8.56-4.46,13.44-3.82,4.89.64,7.75,3.3,8.07,8.19.36,5.33.16,10.7.19,16.05,0,1.24-.67,1.8-1.89,1.73-.08,0-.15,0-.23,0q-5.2.28-5.2-4.89c0-3.29.01-6.58,0-9.87-.02-4.28-1.46-6.43-4.56-6.85-4.54-.62-8.47,1.54-9.6,5.26-.52,1.72-.38,3.49-.39,5.24-.02,2.98-.05,5.97,0,8.95.03,1.56-.61,2.13-2.18,2.19-4.95.18-4.95.23-4.95-4.69,0-6.2.06-12.39-.03-18.59-.03-1.99.76-2.83,2.67-2.76.23,0,.46-.01.69-.02q3.6-.13,3.96,3.86Z"/>
      </g>
    </g>
    <g>
      <path class="cls-1" d="M132.68,37.44c.91-3.53,1.83-7.05,2.72-10.59,1.7-6.73,3.38-13.47,5.09-20.2,1.04-4.1,4.22-6.59,8.43-6.63,2.57-.02,5.13.02,7.7-.02.98-.01,1.25.19.96,1.27-4.25,16.05-8.41,32.13-12.67,48.18-1.7,6.43-7.21,10.56-13.87,10.63-1.57.01-3.15-.08-4.71.03-1.17.08-1.62-.37-1.9-1.46-2.38-9.2-4.82-18.39-7.24-27.57-.76-2.9-1.54-5.79-2.68-8.69-.77,2.89-1.55,5.77-2.31,8.66-1.61,6.11-3.19,12.23-4.81,18.33-1.7,6.4-7.19,10.63-13.83,10.7-1.47.02-2.94-.1-4.4.03-1.31.12-1.81-.37-2.12-1.6-2.69-10.47-5.44-20.92-8.17-31.38-2.24-8.59-4.46-17.18-6.75-25.76-.29-1.09-.1-1.39,1-1.37,2.57.05,5.13-.02,7.7.02,4.32.08,7.96,2.94,9.04,7.15,2.44,9.51,4.83,19.03,7.26,28.54.15.57.14,1.23.76,1.9,1.03-3.89,2.01-7.6,2.99-11.3,1.7-6.46,3.38-12.94,5.09-19.4C107.16,2.41,110.26.03,114.83.02c5.01-.01,8.17,2.24,9.4,6.85,2.61,9.73,5.16,19.48,7.74,29.22.12.45.26.9.39,1.34h.32Z"/>
      <path class="cls-1" d="M184.43,46.23c6.65,0,13.29,0,19.94,0,3.26,0,4.4,1.17,4.4,4.46,0,2.62-.04,5.23.02,7.85.02.93-.2,1.26-1.2,1.26-13.66-.04-27.32-.03-40.98-.05-2.83,0-4.1-1.35-4.11-4.16,0-2.67.05-5.34-.03-8.01-.03-1.12.32-1.38,1.4-1.38,6.86.05,13.71.02,20.57.02Z"/>
      <path class="cls-1" d="M186.86.13c6.81,0,13.61.04,20.42-.03,1.3-.01,1.54.41,1.5,1.58-.08,2.72,0,5.44-.03,8.17-.03,2.37-1.33,3.69-3.71,3.7-13.82.02-27.65,0-41.47.03-.94,0-1.11-.34-1.1-1.18.04-2.83,0-5.65.02-8.48.02-2.44,1.36-3.77,3.79-3.78,6.86,0,13.72,0,20.58,0Z"/>
      <path class="cls-1" d="M181.83,36.65c-6.02,0-12.05-.02-18.07.02-1.01,0-1.32-.24-1.3-1.28.07-3.72.05-7.44,0-11.15-.01-.88.23-1.13,1.13-1.13,12.1.03,24.2.01,36.3.03,1.59,0,2.16.6,2.17,2.2.02,3.04.02,6.07,0,9.11-.01,1.66-.59,2.2-2.31,2.2-5.97,0-11.94,0-17.91,0Z"/>
    </g>
  </g>
</svg>