<?xml version="1.0" encoding="UTF-8"?>
<svg id="Capa_2" data-name="Capa 2" xmlns="http://www.w3.org/2000/svg" viewBox="0 0 212.11 110.55">
  <defs>
    <style>
      .cls-1 {
        fill: #333;
        stroke-width: 0px;
      }
    </style>
  </defs>
  <g id="Capa_1-2" data-name="Capa 1">
    <g>
      <path class="cls-1" d="M39.67,0c21.83-.02,39.58,17.78,39.59,39.68,0,21.95-17.69,39.69-39.55,39.66C17.75,79.3-.02,61.61,0,39.79.02,17.81,17.76.02,39.67,0ZM39.61,76.81c20.55.02,37.13-16.53,37.14-37.07,0-20.54-16.57-37.2-37.05-37.23C19.27,2.48,2.55,19.18,2.51,39.65c-.04,20.49,16.58,37.14,37.09,37.16Z"/>
      <path class="cls-1" d="M35.44,104.39v-10.19c-.9-.26-1.78-.51-2.75-.79v-2.09h8.35v2.02s-.1.12-.18.15q-2.44.76-2.44,3.31c.01,4.11.04,8.22.05,12.32,0,.36-.04.72-.07,1.23-1.22,0-2.38.07-3.53-.04-.35-.03-.74-.49-.97-.84-2.7-4.14-5.38-8.3-8.06-12.45-.24-.38-.51-.74-1.07-1.08,0,.99,0,1.99,0,2.98,0,2.43.06,4.86-.02,7.28-.03.98.26,1.53,1.23,1.59,1.58.09,1.97.93,1.54,2.45h-8.75v-2.04c.99-.25,1.96-.49,2.98-.74v-13.29c-.94-.25-1.88-.5-2.9-.77v-2.12c2.52,0,5.07-.03,7.61.04.3,0,.64.48.86.8,2.38,3.62,4.75,7.26,7.12,10.9.24.37.52.72,1,1.39Z"/>
      <path class="cls-1" d="M61.25,99.09h-2.36c-.2-1.18-.54-2.31-.56-3.45-.02-1.32-.68-1.66-1.8-1.7-.6-.02-1.19-.12-1.88-.19v13.71c1.15.24,2.28.47,3.5.73v2.1h-11.11v-2.07c1.13-.25,2.29-.51,3.52-.78v-13.73c-1.18.14-2.27.28-3.43.42-.27,1.65-.53,3.25-.81,4.93h-2.42v-7.73h17.35v7.76Z"/>
      <path class="cls-1" d="M74.03,110.29h-9.72q-.31-1.93,2.81-2.86v-13.28c-.93-.25-1.86-.5-2.88-.77v-2.02h9.9v2.04c-.97.26-1.94.52-2.95.78v13.14c1.14.84,3.8,0,2.85,2.96Z"/>
      <path class="cls-1" d="M4.87,93.39v-2.04h9.84v2.07c-.94.25-1.87.49-2.85.75v13.26c.97.26,1.9.51,2.88.77v2.06H4.91v-2.05c.97-.27,1.9-.52,2.92-.8,0-4.24.01-8.43-.03-12.63,0-.28-.4-.69-.7-.8-.68-.27-1.42-.39-2.24-.6Z"/>
      <path class="cls-1" d="M108.84,39.46h1.72v14.94c-2.03.51-2.16.45-3.02-1.42-1.55-3.38-3.1-6.76-4.92-10.11v11.66c-.67.03-1.16.06-1.78.09v-14.99c1.91-.57,2.18-.45,3,1.36,1.58,3.47,3.16,6.93,4.99,10.35v-11.88Z"/>
      <path class="cls-1" d="M195.33,72.54c.09-.38.17-.72.26-1.1h1.56c0,4.11.1,8.15-.04,12.19-.08,2.19-1.94,3.63-4.35,3.7-.78.02-1.58-.12-2.35-.27-1.4-.28-1.48-.48-1.02-2.02,4.62,1.36,6.28.35,5.91-3.76-.21.13-.39.2-.53.32-1.97,1.77-4.55,1.25-5.57-1.2-.83-2-.87-4.09-.28-6.16.9-3.17,3.53-3.88,6.4-1.7ZM195.39,76.9c-.16-.91-.24-1.84-.52-2.72-.28-.92-.97-1.42-2-1.43-1.05,0-1.88.56-1.97,1.45-.17,1.82-.2,3.69.06,5.49.08.57,1.25,1.37,1.93,1.36.67,0,1.58-.74,1.95-1.4.43-.76.38-1.79.54-2.75Z"/>
      <path class="cls-1" d="M106.51,72.57v-6.35h1.79v16.21c-.43.03-.91.07-1.48.11-.09-.46-.17-.85-.25-1.28-.13.07-.26.11-.36.2-2.15,2.01-5.09,1.46-5.84-1.35-.48-1.82-.47-3.88-.21-5.77.38-2.79,3.45-4.42,6.35-1.77ZM106.62,76.91c-.19-.99-.28-1.92-.56-2.8-.3-.92-1.05-1.58-2.03-1.31-.71.2-1.6.72-1.87,1.34-.8,1.85-.82,3.86.07,5.69.3.61,1.26,1.21,1.93,1.23.61.02,1.5-.63,1.8-1.23.44-.88.46-1.96.66-2.92Z"/>
      <path class="cls-1" d="M124.25,110.29h-1.51c-.07-.33-.15-.7-.23-1.12-.17.09-.3.13-.39.21-2.19,1.96-4.89,1.33-5.88-1.43-.67-1.89-.64-3.84-.19-5.78.73-3.11,3.91-4.14,6.34-1.76v-6.32c.69-.03,1.22-.06,1.86-.09v16.29ZM122.58,104.86c-.21-1.03-.23-2.11-.67-2.99-.3-.59-1.19-1.23-1.8-1.21-.68.02-1.65.61-1.94,1.22-.87,1.88-.88,3.93,0,5.82.28.59,1.26,1.16,1.94,1.17.61.02,1.49-.6,1.8-1.17.44-.82.46-1.86.67-2.84Z"/>
      <path class="cls-1" d="M155.77,54.53h-1.74c0-2.48.07-4.9-.04-7.31-.03-.7-.42-1.63-.95-1.99-.47-.31-1.64-.24-2.04.14-.59.58-1,1.56-1.09,2.41-.17,1.57-.05,3.17-.05,4.75,0,.64,0,1.29,0,1.99h-1.77v-10.92c.9-.34,1.71-.39,1.78.59,1.13-.28,2.23-.75,3.35-.79,1.4-.05,2.45.97,2.52,2.49.13,2.83.04,5.67.04,8.62Z"/>
      <path class="cls-1" d="M171.56,77.1c-.19.85-.31,1.87-.64,2.82-.66,1.89-2.02,2.73-4.09,2.7-1.92-.03-3.42-.93-3.81-2.85-.35-1.73-.42-3.6-.15-5.33.34-2.13,2.06-3.28,4.11-3.28,2.03,0,3.59,1.2,4.15,3.28.21.8.28,1.64.44,2.66ZM169.62,76.96c-.18-.94-.16-2-.62-2.8-.37-.64-1.3-1.3-1.99-1.31-.69,0-1.72.62-2.02,1.25-.87,1.82-.87,3.83,0,5.65.31.64,1.33,1.31,2.02,1.3.69,0,1.6-.71,1.99-1.36.44-.74.42-1.77.61-2.73Z"/>
      <path class="cls-1" d="M169.19,103.58c.38-3.05-1.08-3.62-4.94-2.16-.45-1.19,0-1.77,1.2-2.09,2.69-.71,5.92.04,5.7,4.08-.12,2.27-.02,4.55-.02,6.88h-1.56c-.07-.34-.14-.68-.22-1.07-.15.07-.3.09-.39.17-1.36,1.19-2.97,1.47-4.36.74-1.29-.68-1.65-1.84-1.56-3.18.11-1.63,1.07-2.65,2.9-3.13.53-.14,1.1-.2,1.65-.24.5-.04,1.01,0,1.6,0ZM169.38,106.11c.06-1.05-.05-1.19-.99-1.24-2.06-.11-3.35.72-3.44,2.2-.07,1.17.43,1.88,1.63,1.99,1.55.15,2.7-1.08,2.8-2.96Z"/>
      <path class="cls-1" d="M159,20.84c.1-.6.16-1.54.43-2.42.58-1.9,2.14-3,4.08-2.99,1.92,0,3.56.98,3.96,2.9.36,1.72.43,3.61.13,5.34-.39,2.3-2.11,3.31-4.53,3.19-2.04-.1-3.51-1.54-3.91-3.88-.1-.59-.09-1.21-.16-2.14ZM166.17,21.3c-.18-.92-.28-1.85-.54-2.73-.28-.98-.96-1.54-2.05-1.57-1.14-.03-2.06.51-2.17,1.55-.19,1.76-.18,3.57,0,5.34.1.97,1.02,1.53,2.07,1.52,1.04,0,1.79-.53,2.1-1.52.26-.83.39-1.71.58-2.59Z"/>
      <path class="cls-1" d="M136.77,49.02c.21-.99.32-2.02.64-2.97.6-1.77,1.96-2.67,3.82-2.69,1.98-.03,3.37.81,4.07,2.57.73,1.84.74,3.74.22,5.62-.59,2.18-2.33,3.42-4.45,3.26-2.29-.17-3.84-1.8-4.11-4.36-.05-.46,0-.93,0-1.4-.06-.01-.13-.02-.19-.03ZM144.06,48.97c-.23-.94-.27-1.99-.73-2.78-.36-.62-1.27-1.28-1.91-1.26-.72.02-1.76.64-2.04,1.28-.82,1.82-.83,3.84-.01,5.67.28.63,1.33,1.26,2.02,1.25.69,0,1.62-.66,1.99-1.3.47-.79.47-1.85.69-2.85Z"/>
      <path class="cls-1" d="M126.89,99.25h1.86c0,1.46,0,2.84,0,4.23,0,1.21,0,2.43.06,3.64.04.93.49,1.8,1.45,1.73.76-.06,1.72-.52,2.15-1.12.43-.6.41-1.59.44-2.41.07-1.91.05-3.82.08-5.74,0-.08.08-.16.16-.32h1.56v11.04h-1.51c-.07-.33-.14-.7-.2-.99-.71.39-1.35.9-2.07,1.09-2.06.56-3.86-.66-3.95-2.77-.11-2.74-.03-5.49-.03-8.37Z"/>
      <path class="cls-1" d="M119.77,47.59c-.35-.83-.46-1.86-1.03-2.29-1.38-1.03-2.82-.32-4.15.42-.54-1.41-.48-1.8.84-2.01,1.28-.21,2.67-.18,3.94.09,1.17.25,1.83,1.33,1.86,2.53.07,2.7.02,5.4.02,8.21-.83,0-1.78.48-1.7-.95-.74.38-1.35.82-2.04,1.02-1.92.57-3.59-.23-4.1-1.86-.62-2,.23-3.92,2.18-4.5,1.23-.36,2.55-.41,4.18-.66ZM119.47,49.37c-1.96-.44-3.63-.1-4.04,1.03-.25.68-.26,1.86.15,2.26.48.47,1.61.6,2.35.42,1.26-.31,1.7-1.59,1.54-3.71Z"/>
      <path class="cls-1" d="M164.35,53.67c-.8.36-1.52.81-2.3,1.01-1.77.45-3.32-.39-3.82-1.94-.59-1.82.09-3.7,1.8-4.31,1.33-.47,2.78-.57,4.21-.84.37-2.75-1.22-3.4-4.96-1.92-.49-1.1-.12-1.88,1.02-2,1.26-.13,2.59-.19,3.81.08,1.22.27,1.92,1.35,1.95,2.62.06,2.69.02,5.39.02,8.14-.9.14-1.72.32-1.73-.85ZM164.23,49.19c-1.54,0-3.18-.35-3.99,1.3-.3.6-.2,1.86.23,2.24.51.45,1.65.53,2.38.31,1.26-.36,1.68-1.75,1.38-3.85Z"/>
      <path class="cls-1" d="M186.98,77.24c-.09.54-.15,1.38-.37,2.18-.6,2.14-1.94,3.18-4,3.21-2.19.03-3.71-.92-4.18-3.11-.33-1.55-.38-3.25-.12-4.81.4-2.38,2.17-3.64,4.33-3.53,2.24.11,3.8,1.58,4.17,3.96.09.6.1,1.21.16,2.1ZM179.85,76.84c.17.89.16,1.99.62,2.84.35.66,1.24,1.26,1.98,1.41.95.2,1.78-.43,2.13-1.42.63-1.81.61-3.64,0-5.45-.33-.98-1.05-1.48-2.12-1.47-1.07,0-1.78.53-2.09,1.51-.25.79-.34,1.62-.53,2.58Z"/>
      <path class="cls-1" d="M210.45,81.58c-1.02.38-1.89.89-2.8,1-1.84.21-3.11-.67-3.44-2.13-.45-2.01.3-3.7,2.14-4.28,1.22-.39,2.53-.48,3.95-.73.18-.82.18-1.8-.73-2.32-1.4-.81-2.78-.32-4.13.5-.63-1.03-.47-1.82.74-2.01,1.21-.18,2.49-.32,3.67-.09,1.38.27,2.21,1.36,2.23,2.84.03,2.65,0,5.29,0,8.02-.86.25-1.68.46-1.65-.8ZM210.55,76.9c-1.2.14-2.08.15-2.91.35-1.11.28-1.88,1.09-1.64,2.23.13.63.79,1.42,1.39,1.62,1.13.38,2.17-.19,2.62-1.29.32-.78.33-1.7.54-2.92Z"/>
      <path class="cls-1" d="M160.25,82.45h-1.76c0-1.91.01-3.79,0-5.68,0-.83.08-1.73-.2-2.48-.22-.59-.89-1.34-1.42-1.39-.64-.06-1.54.38-1.98.9-.42.5-.52,1.37-.54,2.09-.06,2.14-.02,4.27-.02,6.38-1.78.45-1.9.37-1.9-1.24,0-3.16,0-6.32,0-9.56.92-.14,1.81-.42,1.9.81.77-.36,1.47-.86,2.24-1.03,1.87-.42,3.56.77,3.64,2.68.12,2.79.03,5.58.03,8.52Z"/>
      <path class="cls-1" d="M113.61,26.76h-1.88c0-1.95,0-3.88,0-5.82,0-.65.04-1.31-.03-1.95-.11-.99-.51-1.85-1.66-1.92-1.09-.07-1.97.45-2.21,1.53-.23,1.03-.24,2.12-.27,3.18-.04,1.62-.01,3.24-.01,4.95h-1.77v-11.04c.42-.02.91-.04,1.5-.07.11.4.22.76.35,1.22,1.12-1.43,2.54-1.68,4.06-1.13,1.57.56,1.88,1.97,1.9,3.42.04,2.5.01,5.01.01,7.63Z"/>
      <path class="cls-1" d="M148.44,15.67h1.83v11.05c-.96.21-1.8.27-1.81-.78-.92.31-1.83.83-2.78.9-1.87.15-3.07-.9-3.14-2.77-.11-2.74-.03-5.49-.03-8.34h1.76c0,2.21,0,4.39,0,6.57,0,2.1.58,3.02,1.88,3.03,1.42,0,2.27-1.13,2.28-3.1.01-2.14,0-4.28,0-6.56Z"/>
      <path class="cls-1" d="M113.52,110.3h-1.79c0-2.51.03-4.97-.02-7.43-.02-1.02-.3-2.01-1.54-2.16-1.15-.13-2.02.34-2.35,1.51-.16.57-.24,1.19-.25,1.78-.03,2.05-.01,4.1-.01,6.24h-1.79v-10.88q1.48-.35,1.82.91c.61-.37,1.17-.88,1.83-1.08,2.13-.63,3.94.52,4.07,2.76.16,2.73.04,5.48.04,8.35Z"/>
      <path class="cls-1" d="M118.69,77.56h-6.27c-.13,3.32,1.73,4.33,5.29,2.99q.38,1.5-1.01,1.87c-3.29.88-5.61-.46-6.09-3.8-.22-1.55-.04-3.24.35-4.77.46-1.81,2.2-2.8,3.95-2.68,1.68.11,2.92,1.14,3.38,3.02.25,1.01.26,2.08.4,3.36ZM112.45,75.99h4.21c.04-2.24-.73-3.4-2.14-3.35-1.39.04-2.2,1.35-2.07,3.35Z"/>
      <path class="cls-1" d="M141.68,77.53h-5.96c-.42,3.22,1.48,4.26,5.32,3.02.31,1,.16,1.58-1.04,1.88-3.38.83-5.69-.46-6.23-3.87-.22-1.34-.09-2.8.18-4.14.43-2.06,2.12-3.3,4-3.24,1.94.06,3.34,1.34,3.7,3.54.14.85.02,1.75.02,2.82ZM135.64,75.96h4.25c-.05-2.25-.73-3.32-2.06-3.34-1.38-.02-2.23,1.24-2.19,3.34Z"/>
      <path class="cls-1" d="M133.86,67.31v1.6h-3.32v13.49h-1.96v-13.42h-3.37v-1.66h8.66Z"/>
      <path class="cls-1" d="M121.47,17.22c-.87-.07-1.67-.27-2.43-.15-.5.08-1.21.57-1.3.99-.1.5.21,1.28.61,1.65.52.48,1.31.67,1.98.99,1.55.74,2.24,1.97,1.95,3.48-.34,1.74-1.37,2.64-3.22,2.68-.74.02-1.48-.09-2.21-.19-1.1-.14-1.39-.77-.94-1.89.64.2,1.26.47,1.92.58,1.06.17,2.16.1,2.58-1.09.42-1.19-.43-1.77-1.41-2.19-.51-.22-1.01-.48-1.51-.72-1.28-.6-1.92-1.61-1.75-3.03.17-1.45,1.13-2.46,2.6-2.71.67-.12,1.38-.05,2.07-.05,1.16,0,1.45.59,1.06,1.66Z"/>
      <path class="cls-1" d="M142.69,100.88c-.71-.12-1.4-.41-1.98-.27-.68.17-1.62.6-1.79,1.12-.15.48.5,1.32.97,1.84.35.37,1,.46,1.5.7,1.65.77,2.25,1.83,2,3.57-.21,1.48-1.15,2.4-2.84,2.6-.72.09-1.48-.03-2.21-.08-1.25-.09-1.76-.69-1.3-1.88.91.16,1.81.4,2.72.47.91.07,1.84-.32,1.83-1.29,0-.62-.64-1.34-1.17-1.81-.5-.44-1.26-.58-1.87-.91-1.42-.77-1.93-1.8-1.59-3.37.3-1.38,1.26-2.16,2.61-2.4.68-.12,1.4-.08,2.09,0,1.14.12,1.18.23,1.02,1.72Z"/>
      <path class="cls-1" d="M136.68,17.19c-.63-.05-1.09-.09-1.63-.14-.04-.41-.07-.81-.12-1.32.55-.06,1.04-.12,1.66-.19.25-1.04-.41-2.84,1.92-2.53.04.79.09,1.64.14,2.57h2.11v1.44c-.67.05-1.3.1-2.11.16,0,2.47-.12,4.92.05,7.35.08,1.19,1.2.86,2.53.59-.46.76-.64,1.47-1.03,1.63-1.28.51-2.77.03-3.18-.97-.24-.58-.31-1.26-.32-1.9-.04-2.19-.01-4.37-.01-6.7Z"/>
      <path class="cls-1" d="M152.12,17v-1.27c.5-.06.98-.12,1.58-.19.17-1.14-.32-2.84,1.94-2.54.04.78.08,1.63.13,2.56.7.04,1.34.08,2.13.12.02.43.04.85.06,1.36-.75.05-1.38.09-2.19.15,0,2.47-.12,4.92.05,7.35.08,1.18,1.19.89,2.51.58-.45.77-.61,1.49-1,1.65-1.27.51-2.79.02-3.18-.96-.25-.63-.33-1.35-.34-2.04-.04-2.14-.02-4.28-.02-6.49-.56-.09-1.05-.17-1.66-.27Z"/>
      <path class="cls-1" d="M125.17,15.57c.01-1.32-.25-2.77,1.88-2.6v2.56c.83.06,1.5.1,2.25.15v1.32c-.7.06-1.37.13-2.16.2,0,2.38-.06,4.7.02,7.01.05,1.38,1.04,1.31,2.44.85-.32.77-.39,1.48-.74,1.66-1.09.59-2.92.05-3.31-.93-.25-.63-.33-1.35-.34-2.04-.04-2.17-.02-4.35-.02-6.57-.62-.05-1.08-.09-1.62-.14v-1.38c.5-.03.95-.06,1.59-.1Z"/>
      <path class="cls-1" d="M130.41,45.31c-1.58-.4-3.12-.78-4.28.74-.98,1.29-1.03,4.32-.15,5.75.83,1.35,1.66,1.55,4.5,1.04.38,1.02.22,1.6-1.02,1.83-3.17.59-5.75-1.25-5.95-4.45-.07-1.14-.01-2.35.28-3.45.7-2.64,3.28-3.99,5.91-3.31,1.21.31.81,1.09.72,1.85Z"/>
      <path class="cls-1" d="M150.38,108.89c.4,1.19-.14,1.51-1.02,1.62-1.42.18-2.53-.35-2.83-1.47-.14-.53-.12-1.11-.13-1.67-.01-2.14,0-4.28,0-6.3-.61-.6-2.04.19-1.75-1.19.09-.42.95-.68,1.73-1.19.14-.64-.42-2.27,1.76-2.05.04.76.08,1.56.13,2.45.71.05,1.34.09,2.13.14.04.43.08.86.13,1.44-.78.06-1.45.11-2.24.16,0,2.39-.06,4.75.03,7.1.05,1.33,1.19,1.01,2.06.96Z"/>
      <path class="cls-1" d="M150.19,73.13c-1.56-.46-3.18-.73-4.14.9-1.09,1.83-1.11,3.87-.04,5.73,1.04,1.81,2.77,1.28,4.39.9.59,1.18.16,1.71-1.02,1.91-3.01.51-5.36-.96-5.83-3.97-.21-1.38-.1-2.91.29-4.26.71-2.49,3.52-3.8,5.95-2.9.41.15.59.94.87,1.43-.15.09-.31.18-.46.26Z"/>
      <path class="cls-1" d="M173.88,66.14h1.65v16.26h-1.65v-16.26Z"/>
      <path class="cls-1" d="M174.01,110.28v-16.19h1.74v16.19h-1.74Z"/>
      <path class="cls-1" d="M170.74,54.55h-1.72v-16.18h1.72v16.18Z"/>
      <path class="cls-1" d="M100.85,11.55h1.73v15.18h-1.73v-15.18Z"/>
      <path class="cls-1" d="M102.58,110.31h-1.75v-15.07h1.75v15.07Z"/>
      <path class="cls-1" d="M152.17,99.24c.95-.1,1.93-.39,1.66,1.04,1.04-.48,2.02-.94,3.23-1.5v1.9c-2.35.41-3.01,1.21-3.03,3.7-.01,1.95,0,3.9,0,5.9h-1.86v-11.04Z"/>
      <path class="cls-1" d="M131.21,15.67h1.73v11.05h-1.73v-11.05Z"/>
      <path class="cls-1" d="M158.89,99.23h1.73v11.06h-1.73v-11.06Z"/>
      <path class="cls-1" d="M201.64,71.37v11.07h-1.63v-10.99c.51-.02,1-.05,1.63-.08Z"/>
      <path class="cls-1" d="M132.79,43.52h1.59v11.01h-1.59v-11.01Z"/>
      <path class="cls-1" d="M199.9,69.68q1.05-3.14,3.15-2.96c-.67,2.07-1.77,3.14-3.15,2.96Z"/>
      <path class="cls-1" d="M134.55,41.04h-1.89v-2.07h1.89v2.07Z"/>
      <path class="cls-1" d="M158.85,96.78v-2.06h1.86v2.06h-1.86Z"/>
      <path class="cls-1" d="M133.01,11.14v1.96h-1.85v-1.96h1.85Z"/>
      <path class="cls-1" d="M51.57,30.06h4.84c0,1.41.03,2.76-.03,4.09-.01.23-.43.61-.67.63-1.12.07-2.24.09-3.36.01-.27-.02-.73-.45-.74-.71-.08-1.29-.04-2.59-.04-4.02Z"/>
      <path class="cls-1" d="M20.48,30.1v4.63h-4.69v-4.63h4.69Z"/>
      <path class="cls-1" d="M15.81,59.03h4.72c0,1.38.03,2.75-.03,4.12,0,.21-.37.42-.6.59-.09.07-.27.02-.41.02-4.04.21-4.29-.11-3.68-4.73Z"/>
      <path class="cls-1" d="M56.42,59.03c0,1.41.05,2.67-.04,3.91-.02.29-.53.55-.82.82-.03.02-.09,0-.14,0-4,.26-4.35-.18-3.71-4.74h4.71Z"/>
      <path class="cls-1" d="M20.47,44.56v4.6h-4.68v-4.6h4.68Z"/>
      <path class="cls-1" d="M56.35,44.59v4.59h-4.7v-4.59h4.7Z"/>
      <path class="cls-1" d="M51.64,20.32v-4.63h4.69v4.63h-4.69Z"/>
      <path class="cls-1" d="M49.14,34.73h-4.61v-4.67h4.61v4.67Z"/>
      <path class="cls-1" d="M15.78,37.31h4.62v4.59h-4.62v-4.59Z"/>
      <path class="cls-1" d="M20.43,56.45h-4.66v-4.61h4.66v4.61Z"/>
      <path class="cls-1" d="M44.52,63.66v-4.61h4.62v4.61h-4.62Z"/>
      <path class="cls-1" d="M20.46,22.89v4.66h-4.69v-4.66h4.69Z"/>
      <path class="cls-1" d="M20.47,20.33h-4.69v-4.65h4.69v4.65Z"/>
      <path class="cls-1" d="M51.65,56.44v-4.61h4.67v4.61h-4.67Z"/>
      <path class="cls-1" d="M56.32,41.94h-4.65v-4.65h4.65v4.65Z"/>
      <path class="cls-1" d="M51.57,27.57c0-1.41-.04-2.67.03-3.91.02-.29.41-.79.65-.81,1.33-.08,2.68-.04,4.07-.04v4.76h-4.75Z"/>
      <path class="cls-1" d="M37.3,30.06h4.65v4.69h-4.65v-4.69Z"/>
      <path class="cls-1" d="M63.49,59v4.67h-4.65v-4.67h4.65Z"/>
      <path class="cls-1" d="M41.95,59.03v4.64h-4.62v-4.64h4.62Z"/>
      <path class="cls-1" d="M30.09,59.01h4.76v4.74c-1.4,0-2.78.03-4.16-.03-.21-.01-.56-.47-.57-.74-.06-1.29-.03-2.59-.03-3.97Z"/>
      <path class="cls-1" d="M27.64,59.06v4.59h-4.65v-4.59h4.65Z"/>
      <path class="cls-1" d="M58.81,34.73v-4.64h4.66v4.64h-4.66Z"/>
      <path class="cls-1" d="M30.21,30.05h4.6v4.67h-4.6v-4.67Z"/>
      <path class="cls-1" d="M22.94,34.72v-4.63h4.65v4.63h-4.65Z"/>
      <path class="cls-1" d="M30.17,37.26h4.63v4.65h-4.63v-4.65Z"/>
      <path class="cls-1" d="M22.98,37.26h4.59v4.65h-4.59v-4.65Z"/>
      <path class="cls-1" d="M63.46,27.56h-4.61v-4.68h4.61v4.68Z"/>
      <path class="cls-1" d="M44.54,22.89h4.59v4.63h-4.59v-4.63Z"/>
      <path class="cls-1" d="M37.29,27.54v-4.61h4.64v4.61h-4.64Z"/>
      <path class="cls-1" d="M30.18,22.89h4.62v4.64h-4.62v-4.64Z"/>
      <path class="cls-1" d="M27.62,22.92v4.62h-4.6v-4.62h4.6Z"/>
      <path class="cls-1" d="M63.46,20.34h-4.57v-4.63h4.57v4.63Z"/>
      <path class="cls-1" d="M49.2,15.68v4.58h-4.66v-4.58h4.66Z"/>
      <path class="cls-1" d="M34.84,51.81v4.6h-4.65v-4.6h4.65Z"/>
      <path class="cls-1" d="M23.01,51.79h4.59v4.66h-4.59v-4.66Z"/>
      <path class="cls-1" d="M41.93,20.31h-4.64v-4.6h4.64v4.6Z"/>
      <path class="cls-1" d="M34.85,15.72v4.56h-4.67v-4.56h4.67Z"/>
      <path class="cls-1" d="M23.01,15.66h4.59v4.65h-4.59v-4.65Z"/>
      <path class="cls-1" d="M37.31,44.56h4.6v4.61h-4.6v-4.61Z"/>
      <path class="cls-1" d="M49.18,44.55v4.62h-4.65v-4.62h4.65Z"/>
      <path class="cls-1" d="M37.28,56.41v-4.61h4.67v4.61h-4.67Z"/>
      <path class="cls-1" d="M44.52,56.42v-4.63h4.61v4.63h-4.61Z"/>
      <path class="cls-1" d="M30.16,49.16v-4.6h4.64v4.6h-4.64Z"/>
      <path class="cls-1" d="M58.8,56.41v-4.56h4.66v4.56h-4.66Z"/>
      <path class="cls-1" d="M27.59,49.19h-4.62v-4.6h4.62v4.6Z"/>
      <path class="cls-1" d="M63.48,44.57v4.62h-4.61v-4.62h4.61Z"/>
      <path class="cls-1" d="M63.49,37.31v4.6h-4.64v-4.6h4.64Z"/>
      <path class="cls-1" d="M49.2,37.32v4.58h-4.66v-4.58h4.66Z"/>
      <path class="cls-1" d="M37.29,37.29h4.65v4.65h-4.65v-4.65Z"/>
    </g>
  </g>
</svg>