<?xml version="1.0" encoding="UTF-8"?>
<svg id="Capa_2" data-name="Capa 2" xmlns="http://www.w3.org/2000/svg" viewBox="0 0 252.07 69.6">
  <defs>
    <style>
      .cls-1 {
        fill: #333;
        stroke-width: 0px;
      }
    </style>
  </defs>
  <g id="Capa_1-2" data-name="Capa 1">
    <g>
      <path class="cls-1" d="M171.17,43.73c-2.76,0-5.53.14-8.28-.03-2.82-.17-2.99,1.11-2.35,3.34,1.79,6.25,8.12,8.91,13.88,5.57,1.96-1.14,3.6-2.83,5.39-4.26,1.35-1.08,2.81-1.27,4.22-.24,1.5,1.09,1.38,2.67.79,4.16-.94,2.37-2.74,4.02-4.89,5.31-7.5,4.49-19.28,3.12-24.72-2.87-5.65-6.22-6.22-18.28-1.11-25.3,4.76-6.56,11.63-7.75,18.91-6.44,6.56,1.18,10.87,5.35,12.46,12.02,1.39,5.8-.54,8.47-6.48,8.72-2.6.11-5.21.02-7.82.02ZM167.88,38.36c2.28,0,4.56-.04,6.83.01,1.63.04,2.19-.66,1.84-2.22-.74-3.33-2.36-5.97-5.86-6.85-3.39-.85-6.39.02-8.47,2.92-1.14,1.59-2.49,3.61-1.65,5.42.74,1.62,3.01.51,4.58.71.9.12,1.82.02,2.73.01Z"/>
      <path class="cls-1" d="M234.59,22.65c5.27-.1,9.46.71,12.9,3.61,2.19,1.84,4.21,4.37,1.83,7.06-2.59,2.92-5.28,1.31-7.34-1.2-2.47-3.01-5.4-4.41-9.29-3.2-1.7.53-3.25,1.38-3.29,3.34-.03,1.73,1.33,2.74,2.85,3.22,3.35,1.06,6.77,1.89,10.12,2.95,6.97,2.21,9.92,5.47,9.67,10.52-.28,5.82-4.04,9.43-11.15,10.78-5.11.97-10.06.59-14.8-1.64-1.97-.93-3.63-2.28-4.68-4.25-1.23-2.31-1.97-4.76.62-6.53,2.67-1.82,4.58-.35,5.98,2.07,2.53,4.34,6.46,5.39,11.05,4.44,2.01-.41,3.8-1.52,3.91-3.9.1-2.18-1.44-3.36-3.23-3.98-3.17-1.1-6.45-1.89-9.63-2.97-7.28-2.47-10.05-5.88-9.22-11.18.81-5.16,6.01-8.91,12.71-9.14.61-.02,1.22,0,.97,0Z"/>
      <path class="cls-1" d="M110.47,41.57c0-2.15.04-4.29-.01-6.44-.06-2.41.94-5.38-3.29-5.51-1.1-.04-2.01-1.44-1.99-2.79.03-1.52.91-2.92,2.34-3.02,3.15-.22,3.02-2.2,2.96-4.43-.05-1.83-.08-3.7.23-5.5.41-2.42,2.09-3.82,4.53-3.72,2.37.1,4.04,1.43,4.33,3.95.16,1.37.24,2.76.17,4.13-.14,3.03-.44,5.92,4.23,5.34,1.86-.23,3.12,1.23,3.11,3.23,0,2.11-1.57,3.28-3.29,3.08-4.45-.5-4.09,2.27-4.05,5.13.07,4.44.05,8.89.01,13.33-.03,3.5,1.36,5.24,5.07,4.4,2.22-.5,4.54-.75,5.08,2.21.55,2.98-1.61,4.09-4.02,4.58-9.74,2-15.94-.13-15.45-11.55.09-2.14.01-4.29.01-6.44Z"/>
      <path class="cls-1" d="M35.05,23.31c-2.74,6.76,4.23,8.68,7.22,12.77,1.03,1.41,2.53.56,3.85.55,4.66-.03,7.58,2.91,7.39,7.39-.19,4.32-3.66,7.13-8.16,6.61-5.48-.63-11.14,5.1-10.36,10.49.63,4.34-2.22,8.08-6.42,8.45-4.15.37-7.74-3.11-7.58-7.35.15-4.27,3.73-7.26,8.1-6.78,4.73.52,10.98-5.78,10.44-10.51-.05-.45-.23-1-.06-1.36,3.17-6.68-3.11-8.77-6.03-12.5-1.12-1.43-2.37-.78-3.71-.51-3.34.67-6.11-.27-7.83-3.34-1.49-2.65-1.36-5.38.54-7.75,2.12-2.63,4.86-3.43,8.22-2.34,3.87,1.26,9.29-4.25,8.85-8.88-.31-3.22.77-5.74,3.64-7.31,2.49-1.37,5.02-1.21,7.41.32,2.65,1.71,3.31,4.3,2.89,7.22-.55,3.79-3.98,6.08-8.15,5.55-4.91-.63-10.33,4.05-10.23,9.29ZM27.99,57.94c-2.29.31-4.11,1.37-4.29,4.19-.17,2.75,1.24,4.52,3.86,4.72,2.79.21,4.68-1.25,4.79-4.28.1-2.78-1.51-4.13-4.36-4.63ZM50.94,43.46c-.22-2.72-1.85-4.27-4.43-4.22-2.55.04-4.34,1.52-4.32,4.31.02,2.95,1.66,4.54,4.6,4.42,2.77-.11,3.99-1.86,4.15-4.51ZM32.4,23.8c-.12-2.7-1.47-4.3-4.21-4.39-2.71-.09-4.33,1.28-4.46,4.05-.14,2.98,1.5,4.7,4.35,4.7,2.6,0,4.15-1.63,4.32-4.36ZM50.93,6.92c-.28-2.64-1.75-4.24-4.43-4.18-2.92.06-4.45,1.81-4.28,4.73.17,2.76,2,4.12,4.57,4,2.64-.13,4.04-1.83,4.14-4.54Z"/>
      <path class="cls-1" d="M202.7,27.3c4.8-4.95,9.07-5.88,13.42-3.28,1.96,1.17,3.52,2.71,2.55,5.21-.94,2.43-2.86,2.75-5.29,2.22-7.09-1.53-9.15,0-10.09,7.06-.69,5.17-.63,10.37-.57,15.56.04,3.29-.84,6.06-4.61,6.03-3.72-.03-4.69-2.91-4.7-6.1-.04-8.25-.07-16.51.02-24.76.03-2.77.26-5.74,3.75-6.51,3.29-.72,4.69,1.47,5.52,4.56Z"/>
      <path class="cls-1" d="M99.46,41.93c0,4.13-.03,8.26,0,12.39.03,3.16-1.15,5.64-4.52,5.76-3.45.13-4.72-2.33-4.73-5.49-.02-8.87-.04-17.75.01-26.62.02-2.92,1.15-5.24,4.45-5.26,3.48-.02,4.75,2.28,4.77,5.45.02,4.59,0,9.18,0,13.77Z"/>
      <path class="cls-1" d="M142.76,41.46c0,4.44.02,8.88,0,13.32,0,3-1.27,5.21-4.45,5.32-3.21.11-4.72-2.12-4.75-5.04-.11-9.18-.12-18.37.01-27.56.04-2.66,1.36-4.81,4.45-4.82,3.24-.01,4.67,1.97,4.71,5,.07,4.59.02,9.19.02,13.78Z"/>
      <path class="cls-1" d="M9.09,27.74c-3.74-.02-6.4-2.7-6.36-5.87.03-3.06,2.92-5.94,5.92-5.91,2.96.03,6.1,3.07,5.85,5.99-.3,3.49-2.33,5.53-5.4,5.79Z"/>
      <path class="cls-1" d="M69.61,21.01c-.26,3.85-2.12,6.15-5.68,6.24-3.5.09-5.88-1.9-5.94-5.56-.06-3.54,1.88-5.77,5.55-5.92,3.72-.15,5.43,2.14,6.07,5.23Z"/>
      <path class="cls-1" d="M69.09,48.8c-.12,3.18-2.87,5.7-6.06,5.53-3.2-.17-5.64-2.92-5.36-6.17.3-3.47,2.48-5.15,5.77-5.29,3.15-.13,5.76,2.76,5.65,5.94Z"/>
      <path class="cls-1" d="M30.37,5.64c.1,3.13-2.53,5.86-5.69,5.93-3.17.06-5.92-2.56-5.79-5.76.14-3.37,2.02-5.35,5.41-5.63,3.23-.26,5.97,2.29,6.08,5.46Z"/>
      <path class="cls-1" d="M14.95,49.3c-.25,3.72-3.11,6.31-6.22,5.81-3.24-.52-5.22-2.42-5.16-5.9.05-3.2,2.88-5.93,5.97-5.57,3.54.41,5.36,2.56,5.42,5.66Z"/>
      <path class="cls-1" d="M53.44,63.15c-.19,2.96-2.12,5.05-5.71,5.05-3.36,0-5.43-1.96-5.59-5.36-.18-3.66,1.92-5.67,5.46-5.97,3.21-.27,5.79,2.35,5.84,6.28Z"/>
      <path class="cls-1" d="M138.2,18.27c-2.94-.18-4.74-1.61-4.62-4.57.12-2.92,2.06-4.43,4.86-4.33,2.59.1,4.27,1.56,4.29,4.36.02,3.04-1.73,4.35-4.53,4.53Z"/>
      <path class="cls-1" d="M94.83,18.26c-2.96-.2-4.7-1.67-4.56-4.62.14-2.94,2.11-4.4,4.89-4.27,2.56.12,4.28,1.63,4.27,4.39-.02,2.99-1.82,4.32-4.59,4.49Z"/>
      <path class="cls-1" d="M42.28,28.58c-2.84-.2-4.53-1.45-4.66-4.17-.14-2.96,1.62-4.66,4.37-4.66,2.53,0,4.24,1.66,4.25,4.36.02,2.68-1.62,4.05-3.97,4.48Z"/>
      <path class="cls-1" d="M30.93,48.2c-2.62-.16-4.31-1.41-4.37-4.2-.05-2.73,1.44-4.33,4.15-4.41,2.72-.09,4.34,1.46,4.43,4.15.09,2.71-1.48,4.18-4.21,4.46Z"/>
      <path class="cls-1" d="M52.3,28.31c1.39.19,2.2.95,2.12,2.37-.08,1.43-1.07,2.21-2.37,2.15-1.32-.07-2.18-1.01-2.11-2.4.07-1.41.97-2.09,2.37-2.12Z"/>
      <path class="cls-1" d="M21.17,40.69c-1.63-.04-2.55-.76-2.56-2.14-.01-1.35.87-2.27,2.22-2.32,1.36-.05,2.25.75,2.31,2.17.06,1.46-.85,2.1-1.96,2.29Z"/>
      <path class="cls-1" d="M61.2,59.3c-.18,1.36-.87,2.33-2.31,2.32-1.48,0-2.2-1.02-2.16-2.39.03-1.18.75-1.99,2.01-2.08,1.51-.11,2.18.82,2.47,2.15Z"/>
      <path class="cls-1" d="M72.28,35.73c-.22,1.33-.91,2.21-2.36,2.17-1.2-.04-1.98-.71-2.07-1.92-.11-1.43.73-2.32,2.06-2.45,1.44-.14,2.08.91,2.37,2.2Z"/>
      <path class="cls-1" d="M59.28,12.01c-1.45-.12-2.29-.84-2.33-2.24-.04-1.38.65-2.29,2.1-2.34,1.44-.05,2.27.84,2.34,2.16.07,1.36-.85,2.13-2.11,2.43Z"/>
      <path class="cls-1" d="M4.39,33.64c-.36,1.29-1.13,2.17-2.61,1.87-1.17-.24-1.9-1.04-1.77-2.31.15-1.53,1.17-2.08,2.59-1.88,1.25.18,1.79,1.03,1.79,2.31Z"/>
      <path class="cls-1" d="M16.52,59.51c.03,1.87-.68,2.84-2.1,2.92-1.44.08-2.3-.91-2.38-2.27-.07-1.18.66-2.02,1.91-2.17,1.46-.18,2.27.57,2.58,1.52Z"/>
      <path class="cls-1" d="M12.82,8.09c1.23-.01,2.1.68,2.14,2.14.04,1.23-.65,1.98-1.91,2.06-1.18.08-2.14-.29-2.31-1.61-.17-1.37.31-2.38,2.08-2.59Z"/>
    </g>
  </g>
</svg>