<?xml version="1.0" encoding="UTF-8"?>
<svg id="Capa_2" data-name="Capa 2" xmlns="http://www.w3.org/2000/svg" viewBox="0 0 269.2 88.52">
  <defs>
    <style>
      .cls-1 {
        fill: #333;
        stroke-width: 0px;
      }

      .cls-2 {
        opacity: .69;
      }
    </style>
  </defs>
  <g id="Capa_1-2" data-name="Capa 1">
    <g>
      <path class="cls-1" d="M41.94,66.1c.74,11.56-4.19,19.62-14.52,21.62-12.08,2.33-22.59-.13-26.91-13.1-.49-1.47-.5-2.92-.5-4.4,0-17.76-.02-35.51,0-53.27C.03,8.04,7.72.7,16.61.1c8.18-.56,13.9,3.61,19.52,8.45,2.51,2.17,5.08,4.29,7.43,6.64,2.01,2.01,3.42,1.66,5.42-.14,4.92-4.44,9.6-9.23,15.43-12.53,9.17-5.19,23.3-2.55,27.3,9.93.6,1.86,1.03,3.75,1.04,5.7.01,16.72.13,33.45-.04,50.17-.1,10.12-5.38,17.52-14.68,19.38-9.96,1.99-19.85.74-25.06-7.35-2.68-4.16-3.22-8.71-2.68-13.49,4.62,3.93,10.2,3.92,11.84-.6,1.3-3.57,3.56-5.18,6.58-6.56.82-.37,1.55-.99,2.23-1.6,4.25-3.83,5.67-12.81-1.75-14.7-2.25-.57-1.31-1.9-.95-3.16,1.76-6.15-.6-11.21-6.25-13.42-4.74-1.85-10.84-.62-14.16,3.22-1.42,1.64-1.92,1.72-3.42.02-3.82-4.36-10.74-5.29-15.72-2.5-4.93,2.77-6.47,6.87-4.55,13.26.61,2.05-.37,2.21-1.72,2.79-4.53,1.93-5.97,5.47-4.23,10.04,1.5,3.93,4.57,6.19,8.3,7.72,1.05.43,2.26.6,2.38,2.1.27,3.45,2.3,5.45,5.54,6.11,3.27.66,5.82-.63,7.56-3.48Z"/>
      <g class="cls-2">
        <path class="cls-1" d="M70.7,57.83c-.62.56-1.35,1.18-2.13,1.55-3.11,1.42-5.44,3.11-6.76,6.75-.58,1.6-1.69,2.66-3.23,3.06-2.35.63-5.33-.32-7.97-2.53-.19-.98.38-1.58,1.04-2.28.17-.17.33-.35.48-.53l1.5-1.77c2.2-2.6,4.47-5.27,6.75-7.86.96-1.09,1.82-2.48.9-4.5l-.11-.25-.26.05c-1.68.32-2.5,1.5-3.28,2.64-.25.36-.49.71-.76,1.03-1.32,1.58-2.99,2.84-4.61,4.06-2.05,1.54-4.16,3.14-5.65,5.41-.12.19-.3.41-.49.42-.31.02-.71-.42-1.03-.77-.14-.15-.28-.3-.41-.41-3.26-3-6.5-6.01-9.89-9.16l-3.94-3.66-.12.61c-.45,2.37-.07,3.73,1.51,5.37,2.4,2.51,4.62,5.27,6.77,7.95.83,1.05,1.67,2.09,2.52,3.13-1.71,2.67-4.09,3.72-7.06,3.12-3.24-.66-5.01-2.62-5.27-5.8-.12-1.49-1.17-1.87-2.11-2.21-.16-.05-.32-.12-.48-.18-4.24-1.75-6.82-4.14-8.1-7.53-1.69-4.43-.29-7.76,4.04-9.61l.36-.14c1.14-.46,2.2-.9,1.56-3.06-1.85-6.15-.5-10.12,4.39-12.86,1.86-1.05,3.97-1.55,6.07-1.55,3.48,0,6.95,1.39,9.23,3.97.74.84,1.32,1.36,1.97,1.36h0c.64,0,1.18-.49,1.96-1.38,3.14-3.62,9.06-4.96,13.78-3.13,5.51,2.15,7.77,7.01,6.05,13-.06.19-.12.39-.19.59-.24.68-.5,1.39-.16,2.02.24.45.75.78,1.56.98,3.22.82,4.37,2.93,4.78,4.55.77,3.13-.59,7.24-3.17,9.56Z"/>
      </g>
      <path class="cls-1" d="M126.66,30.43c0,1.95-.05,3.89.01,5.84.06,1.85.11,3.23-2.58,3.21-2.59-.02-3.04-1.02-2.95-3.26.15-3.43,0-6.87.04-10.3.05-3.7-2.44-3.65-5.13-3.86-3.24-.26-3.11,1.63-3.06,3.83.08,3.66-.11,7.33.06,10.99.11,2.31-.98,2.6-2.88,2.57-1.74-.03-2.78-.24-2.73-2.4.13-5.15.08-10.3.02-15.45-.02-1.34.5-2.17,1.69-2.65,4.02-1.62,8.14-2.32,12.34-.88,1.25.43,2.27.52,3.56.12,1.83-.57,3.78-.96,5.7-1.05,5.96-.28,9.54,3.15,9.6,9.06.04,3.43-.11,6.87.05,10.3.1,2.2-.54,2.93-2.85,2.97-2.55.05-2.74-1.15-2.68-3.12.1-3.2.06-6.41.02-9.61-.05-4.02-4.45-6.43-8.05-4.52-.82.44-.37.87-.36,1.36.01,2.29,0,4.57,0,6.86.05,0,.09,0,.14,0Z"/>
      <path class="cls-1" d="M207.27,22.23c0,2.98.02,5.95,0,8.93-.04,5.04-2.27,7.74-6.76,8.26-6.18.72-10.49-1.6-11.6-6.47-.64-2.8-.63-5.73-.07-8.53.87-4.39,4.28-7.3,8.87-6.92,3.87.32,4.35-1.28,4.14-4.43-.1-1.49-1.16-3.84,2.13-3.93,2.41-.06,3.58.37,3.37,3.14-.25,3.3-.06,6.63-.06,9.95ZM202.1,27.52c0-.68.11-1.39-.02-2.05-.29-1.46.93-3.7-1.9-3.94-2.69-.22-5.24.13-5.9,3.26-.49,2.32-.49,4.75.16,7.11.74,2.74,2.79,2.94,5.12,2.76,2.43-.19,2.47-1.96,2.54-3.71.04-1.14,0-2.28.01-3.42Z"/>
      <path class="cls-1" d="M215.85,59.16c0,2.97.03,5.94,0,8.91-.07,4.74-1.78,7.23-5.63,8.28-4.8,1.31-9.42-.14-11.42-3.91-2.2-4.15-2.38-8.59-.49-12.88,1.61-3.66,4.93-5.29,8.68-4.82,3.92.49,3.76-1.59,3.56-4.17-.16-2.14-.35-4.14,2.99-3.77,1.77.19,2.4.68,2.35,2.43-.09,3.31-.03,6.62-.03,9.93ZM210.53,65.29c0-.8.08-1.6-.02-2.39-.2-1.6.97-3.9-2.07-4.11-2.75-.19-5.16.36-5.85,3.4-.55,2.43-.6,4.97.23,7.41.82,2.4,2.71,2.85,4.94,2.6,2.33-.26,2.97-1.72,2.79-3.84-.09-1.02-.02-2.05-.02-3.07Z"/>
      <path class="cls-1" d="M175.49,59.42c0,2.97.02,5.94,0,8.91-.04,4.38-1.85,6.97-5.53,8.01-4.6,1.3-9.3,0-11.28-3.54-2.49-4.45-2.64-9.19-.41-13.79,1.56-3.24,4.67-4.6,7.98-4.27,3.66.36,4.18-1.16,3.91-4.19-.14-1.58-.93-3.77,2.29-3.75,2.33.02,3.26.56,3.1,3.03-.21,3.18-.05,6.39-.05,9.59ZM170.09,65.24c0-.69.1-1.39-.02-2.05-.3-1.65,1.18-4.13-2.14-4.42-3.15-.27-5.04.94-5.78,3.98-.56,2.28-.41,4.54.31,6.76.79,2.41,2.67,2.91,4.92,2.7,2.4-.23,2.91-1.78,2.73-3.87-.09-1.02-.02-2.06-.01-3.08Z"/>
      <path class="cls-1" d="M161.37,33.4c1.25,3.6-.39,4.95-3.48,5.68-5.71,1.36-10.5.01-12.88-3.88-2.58-4.23-2.04-12.01,1.09-15.59,2.69-3.07,8.2-3.88,12.03-1.76,3.35,1.85,5.8,7.45,4.94,11-.34,1.39-1.27,1.45-2.32,1.45-2.98.02-5.96-.03-8.95.04-.83.02-2.01-.48-2.37.73-.38,1.29.47,2.24,1.49,2.82,2.47,1.4,5.07.91,7.65.31.88-.21,1.75-.49,2.8-.79ZM153.17,26.76c.93-1.35,3.54,1.2,3.64-1.57.07-2.02-1.46-3.63-3.8-3.61-2.1.02-3.63,1.22-3.64,3.32-.02,2.84,2.45.87,3.8,1.85Z"/>
      <path class="cls-1" d="M269.13,29.15c-.25,1.82.55,4.07-.45,6.11-1.85,3.77-5.28,4.3-9,4.28-3.7-.01-6.83-.96-8.4-4.67-1.9-4.5.39-8.32,5.75-9.53,1.32-.3,2.73-.17,4.08-.34.82-.1,2.05.6,2.37-.63.36-1.39-.81-2.02-1.91-2.44-1.9-.73-3.79-.37-5.73.01-.95.19-2.58,1.5-2.91-.79-.22-1.54-.03-2.85,1.85-3.49,8.37-2.87,14.34,1.3,14.34,10.12,0,.34,0,.69,0,1.35ZM260.57,28.95c-1.86.11-4.34-.08-4.29,2.83.03,2.16,1.79,2.9,3.86,2.88,2.3-.01,3.52-.9,3.67-3.38.15-2.57-1.49-2.3-3.24-2.33Z"/>
      <path class="cls-1" d="M230.59,28.63c-.02,7.16-3.5,10.88-10.19,10.9-6.97.02-10.48-3.81-10.45-11.38.03-7.03,3.69-10.97,10.24-11.03,6.78-.06,10.43,3.97,10.4,11.52ZM215.42,28.92s-.03.81,0,1.6c.14,2.84,1.66,4.47,4.49,4.57,2.76.1,4.57-1.32,5.01-4.1.3-1.91.39-3.88-.09-5.79-.68-2.7-3.01-4.03-5.76-3.43-3.55.78-3.79,3.46-3.66,7.14Z"/>
      <path class="cls-1" d="M165.87,29.34c0-2.17.21-4.37-.05-6.51-.36-2.9,1.03-4.12,3.56-4.8,2.21-.6,4.43-1.2,6.72-1.14,5.8.14,9.32,3.6,9.58,9.46.15,3.54-.09,7.1.08,10.63.11,2.47-1.32,2.36-3.05,2.44-1.96.09-2.62-.62-2.55-2.56.12-3.31.09-6.63.02-9.95-.08-4.09-4.4-6.51-8.06-4.59-1.1.57-.75,1.56-.76,2.4-.04,4-.13,8.01.03,12.01.08,2.11-.61,2.78-2.72,2.73-1.9-.05-3.02-.25-2.84-2.58.2-2.5.04-5.03.04-7.54Z"/>
      <path class="cls-1" d="M195.49,66.63c0,8.29-4.55,11.88-12.51,9.88-3.53-.89-5.82-3.74-5.74-7.16.07-3.12,2.16-5.49,5.8-6.24,1.55-.32,3.18-.17,4.77-.32.79-.08,2.04.6,2.18-.85.11-1.14-.71-1.97-1.7-2.34-1.99-.76-4.06-.26-6.11-.28-.82,0-2.35,1.67-2.56-.65-.14-1.58-.31-2.96,2.01-3.57,9.02-2.36,13.85,1.56,13.85,11.53ZM187.26,66.08c-2.05.2-4.57-.19-4.76,2.74-.17,2.55,1.86,3.18,3.96,3.26,2.74.1,3.88-1.43,3.93-4.06.06-2.6-1.92-1.61-3.14-1.94Z"/>
      <path class="cls-1" d="M241.81,22.24c-2.88,0-5.04-.1-7.18.03-1.88.11-2.62-.45-2.61-2.47,0-2.14,1.02-2.41,2.76-2.37,3.31.09,6.63-.05,9.95.06,1.26.04,3.11-.79,3.65.8.56,1.65.71,3.63-.62,5.22-2.19,2.63-4.42,5.24-6.61,7.88-.56.68-1.29,1.29-1.42,2.84,2.13,0,4.23.09,6.32-.03,1.89-.1,2.61.51,2.63,2.51.02,2.11-.68,2.8-2.77,2.71-3.31-.15-6.63.03-9.95-.07-1.28-.04-3.21.79-3.72-.68-.59-1.71-.8-3.78.65-5.51,2.85-3.41,5.62-6.88,8.91-10.92Z"/>
      <path class="cls-1" d="M154.21,62.92c0,1.38,0,2.75,0,4.13.05,8.89-7.69,11.17-13.94,8.88-3.64-1.34-5.15-4.42-5.31-8.12-.14-3.43.08-6.88-.1-10.31-.11-2.13.84-2.46,2.64-2.41,1.65.05,2.91.06,2.8,2.31-.15,3.2-.07,6.42-.02,9.63.06,3.89,1.17,5.17,4.36,5.13,3.15-.03,4.31-1.34,4.4-5.2.08-3.21.14-6.42-.01-9.63-.11-2.31,1.24-2.18,2.84-2.25,1.77-.08,2.5.5,2.36,2.33-.13,1.82-.03,3.67-.03,5.5Z"/>
      <path class="cls-1" d="M118.48,76.68c-5.19,0-8.23-1.79-9.76-5.54-1.95-4.78-.94-11.33,2.2-14.16,2.69-2.42,8.63-3.15,12.1-1.59,1.77.79,1.36,2.27,1.2,3.53-.24,1.9-1.53.67-2.36.55-6.05-.93-8.19.31-8.75,5.14-.68,5.8,1.7,8.04,7.54,7.51,1.11-.1,3.19-2.29,3.65.9.4,2.72-1.37,3.29-3.47,3.52-.91.1-1.83.12-2.36.15Z"/>
      <path class="cls-1" d="M131.46,65.73c0,2.75-.15,5.5.04,8.24.16,2.23-.77,2.63-2.77,2.65-2.13.02-2.75-.67-2.7-2.76.13-5.38.14-10.76,0-16.14-.06-2.23.85-2.61,2.82-2.66,2.18-.06,2.78.71,2.65,2.77-.16,2.62-.04,5.26-.04,7.9Z"/>
      <path class="cls-1" d="M128.87,52.27c-1.89.29-3-.08-2.94-2.41.05-1.93.62-2.64,2.53-2.49,1.56.12,3.18-.34,3.08,2.28-.08,2-.5,3.07-2.67,2.62Z"/>
    </g>
  </g>
</svg>