<?xml version="1.0" encoding="UTF-8"?>
<svg id="Capa_2" data-name="Capa 2" xmlns="http://www.w3.org/2000/svg" viewBox="0 0 269.15 109.72">
  <defs>
    <style>
      .cls-1 {
        fill: #333;
        stroke-width: 0px;
      }
    </style>
  </defs>
  <g id="Capa_1-2" data-name="Capa 1">
    <g>
      <path class="cls-1" d="M23.06,109.72c-.01-8.55-.03-17.11-.01-25.66,0-1.05-.56-2.43,1.52-2.44,1.95,0,1.69,1.17,1.69,2.36,0,6.5.06,13-.04,19.49-.03,1.94.24,2.84,2.59,2.84,32.67-.08,65.33-.07,98-.01,2,0,2.59-.52,2.56-2.53-.12-6.5-.06-13-.03-19.49,0-1.16-.6-2.69,1.68-2.64,2.37.05,1.49,1.72,1.5,2.76.06,8.44.03,16.89.03,25.34H23.06Z"/>
      <path class="cls-1" d="M20.69,57.02c0-5.53.13-10.12-.05-14.71-.09-2.33.7-3.11,2.93-2.81.96.13,1.96.1,2.92,0,1.4-.13,1.89.38,1.88,1.81-.05,9.09-.06,18.17,0,27.26,0,1.5-.65,1.67-1.93,1.79-2.92.28-5.05-.47-6.9-3-3.05-4.19-6.51-8.09-9.85-12.07-.51-.61-.79-1.57-2.11-1.59,0,4.64-.13,9.26.06,13.86.1,2.35-.72,3.09-2.93,2.79-.85-.12-1.74-.08-2.6,0-1.45.12-2.14-.29-2.13-1.94.07-8.98.06-17.96,0-26.93-.01-1.62.64-1.88,2.1-1.99,2.77-.2,4.81.39,6.62,2.83,3.57,4.82,7.55,9.33,11.97,14.72Z"/>
      <path class="cls-1" d="M78.15.06c17.15,0,34.3.06,51.44-.06,2.49-.02,3.06.68,3.01,3.08-.16,7.69-.06,15.38-.06,23.07,0,1.14.36,2.38-1.65,2.33-2.03-.04-1.56-1.35-1.57-2.44-.02-6.61-.09-13.21.03-19.82.04-2.11-.3-2.98-2.74-2.97-32.56.09-65.12.08-97.68.01-2.09,0-2.78.49-2.74,2.66.14,6.71.06,13.43.05,20.14,0,1.13.36,2.39-1.62,2.41-2.05.02-1.58-1.3-1.58-2.39-.02-7.69.11-15.38-.08-23.07C22.91.5,23.68,0,26.06,0c17.36.1,34.73.05,52.09.05Z"/>
      <path class="cls-1" d="M66.19,70.33c-1.49,0-2.47-.14-3.39.02-3.51.61-5.82-.5-6.51-4.21-.33-1.82-1.51-2.3-3.29-2.21-2.81.14-5.64.18-8.45,0-2.08-.14-3.1.64-3.81,2.55-1.35,3.61-4.54,4.94-8.3,3.88-1.33-.37-.74-1-.45-1.65,4.13-9.26,8.24-18.53,12.42-27.76,1.25-2.75,3.81-.98,5.74-1.39,1.36-.29,2.34.1,3.01,1.64,4.19,9.57,8.51,19.09,13.02,29.14ZM48.66,47.74c-1.54,3.71-2.79,6.75-4.07,9.82h8.11c-1.35-3.29-2.57-6.26-4.04-9.82Z"/>
      <path class="cls-1" d="M96.75,54.69c0-4.33.07-8.66-.04-12.99-.04-1.7.46-2.24,2.19-2.21,6.4.09,12.81.16,19.2-.01,3.18-.09,1.98,2.06,2.13,3.5.17,1.65.34,3.19-2.35,3.01-3.78-.26-7.6.08-11.39-.11-2.65-.13-1.97,1.59-2,2.96-.04,1.46-.45,3.07,2.1,2.92,3.24-.19,6.51.09,9.76-.08,2.92-.15,1.95,1.87,2.05,3.27.11,1.48.39,3.05-2.12,2.85-2.7-.21-5.43.05-8.13-.08-2.42-.12-3.91-.06-3.81,3.27.09,3.03,1.28,3.24,3.67,3.13,3.57-.16,7.17.11,10.74-.09,2.91-.16,2.03,1.79,2.08,3.21.05,1.5.61,3.22-2.17,3.14-6.51-.18-13.02-.11-19.53-.02-1.8.02-2.47-.45-2.42-2.35.13-4.44.04-8.88.04-13.32Z"/>
      <path class="cls-1" d="M77,76.58c-4.94-10.58-9.58-20.53-14.51-31.08,2.55,0,4.64.03,6.73-.01,1.48-.03,1.67,1.15,2.09,2.1,1.82,4.13,3.62,8.28,5.67,12.98,1.3-3.01,2.41-5.56,3.51-8.11,3-6.95,6.14-13.84,8.91-20.88,1.01-2.57,2.34-3.55,4.99-3.21,1.46.19,2.97.03,4.92.03-7.47,16.13-14.76,31.87-22.32,48.18Z"/>
      <path class="cls-1" d="M135.66,70.79c-3.75.05-7.31-.73-10.63-2.49-3.45-1.83-.2-3.59.13-5.32.44-2.31,1.75-1.01,2.83-.46,3.27,1.68,6.73,2.31,10.39,1.76,1.51-.23,2.84-.83,2.99-2.46.14-1.57-1.24-2.24-2.46-2.62-2.68-.83-5.45-1.4-8.13-2.23-4.62-1.43-6.73-3.99-6.79-7.97-.06-4.29,2.16-7.4,6.59-8.96,5.27-1.84,10.47-1.32,15.51.86,3.39,1.48.34,3.39.12,5.07-.26,2-1.45,1.47-2.78.85-2.69-1.25-5.56-1.89-8.53-1.34-1.5.28-3.04.76-3.19,2.7-.14,1.89,1.37,2.3,2.69,2.7,2.58.79,5.23,1.36,7.8,2.17,4.78,1.51,6.81,3.9,6.87,7.88.07,4.13-2.38,7.41-6.7,8.95-2.17.77-4.43.97-6.73.89Z"/>
    </g>
    <g>
      <path class="cls-1" d="M211.9,21.61c2.21,0,3.94.07,5.66-.03,1.06-.06,1.55.34,2.01,1.26,4.9,9.85,9.84,19.67,14.76,29.51.67,1.35,1.39,2.65,2.86,3.72h-8.58c.7-.76.39-1.46.04-2.15-4.48-8.94-8.97-17.88-13.46-26.82-.05-.09-.16-.15-.37-.33-2.33,4.71-4.64,9.37-7.03,14.21h11.56c-.81,1.64-1.92,2.57-3.76,2.52-2.56-.06-5.12-.04-7.68-.12-.89-.03-1.4.2-1.79,1.06-1.42,3.14-2.93,6.23-4.42,9.34-.36.76-.68,1.51.14,2.36h-5.51c5.55-10.62,10.54-21.53,15.88-32.28.35-.7.81-1.4-.32-2.25Z"/>
      <path class="cls-1" d="M261.97,38.05c-1.25,1.78-2.39,3.12-4.61,3.02-2.39-.11-4.79-.02-7.18-.09-.89-.03-1.13.25-1.12,1.13.05,3.34.05,6.68,0,10.02-.02.96.31,1.2,1.23,1.24,6.27.26,12.54.5,18.78-1.1.14,1.12-.29,2.12-.41,3.15-.11,1.01-.95.75-1.57.75-6.84.01-13.69,0-20.53,0-1.7,0-3.4,0-5.63,0,1.89-1.42,1.75-3.04,1.74-4.65-.01-8.57-.02-17.14,0-25.72,0-1.53-.02-3-1.94-4.19,2.14,0,3.73,0,5.32,0,6.34,0,12.69,0,19.03,0,1.38,0,2.37,1.34,2.05,2.7-.16.68-.58.33-.89.27-5.41-1.01-10.88-.25-16.31-.49-.67-.03-.86.27-.85.89.02,4.12.03,8.24,0,12.36,0,.94.5.94,1.16.92,3.39-.1,6.79.19,10.17-.2.42-.05.85,0,1.57,0Z"/>
      <path class="cls-1" d="M191.47,56.08h-9.51c1.96-1.47,1.64-3.35,1.64-5.15,0-8.45,0-16.9.01-25.35,0-1.45-.23-2.76-1.72-3.85h9.71c-1.53,1.11-1.6,2.55-1.6,4.08.03,8.51.03,17.01,0,25.52,0,1.67-.07,3.32,1.46,4.76Z"/>
      <path class="cls-1" d="M182.27,69.51c0-1.16.07-2.33-.02-3.49-.09-1.07.34-1.36,1.33-1.27,1.21.11,2.44-.13,3.64.16,1.98.48,2.69,2.06,1.57,3.75-.39.59-.39.76.14,1.25,1.49,1.36,1.06,3.46-.82,4.11-1.72.59-3.52.26-5.28.29-.68.01-.56-.56-.56-.98-.01-1.27,0-2.55,0-3.83ZM185.37,70.05c-.48.32-1.43-.51-1.92.4-.76,1.41.14,2.83,1.71,2.84.39,0,.78.01,1.16,0,1.1-.05,2.27-.21,2.29-1.6.02-1.54-1.22-1.61-2.38-1.63-.22,0-.44,0-.87,0ZM185.24,68.99c.44,0,.89.06,1.32-.01.89-.15,1.59-.61,1.59-1.6,0-1.02-.72-1.44-1.63-1.52-.77-.07-1.54-.03-2.32-.02-.34,0-.61.08-.78.46-.65,1.55.12,2.72,1.81,2.7Z"/>
      <path class="cls-1" d="M232.98,72.15c0-2.37-.02-4.29.01-6.2,0-.43-.26-1.15.54-1.14.8.01.5.73.51,1.16.03,2.39.03,4.78,0,7.16,0,.39.26.96-.32,1.15-.6.19-.87-.33-1.18-.72-1.52-1.98-3.05-3.96-4.57-5.94-.12-.15-.26-.29-.67-.72,0,2.35.01,4.32,0,6.29,0,.44.22,1.13-.59,1.1-.67-.03-.49-.63-.49-1.04-.02-2.44-.02-4.89,0-7.33,0-.4-.2-.95.4-1.12.52-.15.8.26,1.07.62,1.35,1.76,2.7,3.52,4.06,5.28.29.37.61.72,1.23,1.45Z"/>
      <path class="cls-1" d="M239.53,69.54c.16-1.6-.6-3.52.32-4.46.91-.94,2.84-.29,4.32-.27.71.01,2.06-.57,2.05.53,0,1.04-1.35.37-2.08.52-.54.1-1.12.1-1.66,0-1.58-.29-1.83.49-1.77,1.85.04,1.01.27,1.4,1.32,1.3.99-.09,2-.02,3-.01.33,0,.68-.01.72.46.05.58-.33.6-.74.6-.83,0-1.68.07-2.5-.02-1.28-.14-1.81.12-1.82,1.63-.01,1.63.76,1.64,1.91,1.57,1-.06,2-.02,3,0,.38,0,.82-.06.82.54,0,.58-.43.54-.82.55-.39,0-.78.01-1.17,0-1.55-.04-3.61.51-4.51-.27-1.05-.92-.16-3.04-.38-4.52Z"/>
      <path class="cls-1" d="M230.43,83.15c.03,2.86-1.96,4.98-4.67,5.01-2.75.03-4.8-2.06-4.79-4.88,0-2.85,2.01-4.92,4.77-4.92,2.67,0,4.67,2.05,4.7,4.8ZM225.68,79.42c-2,0-3.61,1.72-3.59,3.84.02,2.09,1.67,3.83,3.64,3.82,1.98,0,3.6-1.75,3.58-3.85-.02-2.13-1.63-3.81-3.63-3.81Z"/>
      <path class="cls-1" d="M240.58,78.35c2.77.02,4.69,2.08,4.65,4.98-.05,2.82-1.96,4.81-4.65,4.83-2.73.02-4.81-2.11-4.79-4.9.02-2.8,2.1-4.92,4.8-4.91ZM244.06,83.36c.04-2.19-1.44-3.88-3.43-3.94-2.04-.05-3.61,1.55-3.64,3.72-.03,2.18,1.44,3.88,3.44,3.94,2.03.06,3.59-1.54,3.63-3.72Z"/>
      <path class="cls-1" d="M215.17,83.36c0,1.22.01,2.45,0,3.67,0,.41.13,1-.57.96-.68-.03-.48-.62-.52-1.02-.12-1.03.49-2.47-.28-2.99-.77-.52-2.14-.11-3.23-.24-1.35-.16-1.97.24-1.75,1.69.1.65.01,1.33,0,2,0,.3-.12.54-.46.57-.42.03-.61-.21-.61-.6,0-2.78,0-5.57,0-8.35,0-.31.13-.54.47-.57.43-.03.59.22.6.61,0,.28-.03.56.02.83.16.89-.51,2.32.4,2.59,1.38.4,2.97.17,4.46.1.49-.02.36-.61.37-.98.02-.78,0-1.56,0-2.34,0-.4,0-.83.57-.81.58.02.52.48.52.86,0,1.34,0,2.67,0,4.01Z"/>
      <path class="cls-1" d="M211.08,64.68c.59,0,1.34.17,2.02.58.35.21.9.36.58.97-.33.64-.71.26-1.08.04-.79-.47-1.65-.7-2.55-.48-.68.17-1.23.57-1.29,1.34-.06.71.39,1.16.99,1.38.88.33,1.8.55,2.69.85,1.17.4,1.89,1.25,1.8,2.49-.09,1.28-.86,2.16-2.14,2.45-1.54.35-2.97.04-4.26-.89-.3-.22-.7-.4-.33-.9.34-.47.64-.27.97-.02.88.65,1.85,1,2.95.87.85-.1,1.49-.49,1.6-1.41.1-.88-.46-1.32-1.2-1.56-.58-.19-1.18-.32-1.76-.49-1.91-.56-2.65-1.49-2.42-3.01.21-1.41,1.44-2.26,3.43-2.22Z"/>
      <path class="cls-1" d="M265.6,74.42c-.9.03-1.78-.3-2.58-.82-.36-.24-1.03-.44-.55-1.12.42-.59.74-.09,1.08.14.81.55,1.69.83,2.67.75.85-.07,1.53-.45,1.71-1.32.19-.95-.44-1.41-1.25-1.67-.79-.25-1.61-.43-2.39-.71-1.15-.42-1.87-1.21-1.79-2.51.08-1.27.85-2.05,2.02-2.37,1.34-.36,2.65-.13,3.83.65.29.19.54.38.25.79-.23.34-.45.43-.81.2-.71-.46-1.47-.77-2.35-.72-.84.06-1.56.34-1.74,1.25-.2.96.44,1.42,1.23,1.69.52.18,1.08.27,1.61.42,1.97.56,2.81,1.58,2.56,3.11-.23,1.43-1.55,2.29-3.51,2.23Z"/>
      <path class="cls-1" d="M254.35,74.43c-1.03,0-1.96-.34-2.8-.92-.36-.25-.81-.5-.38-1.04.36-.46.66-.14.97.09.84.61,1.76.92,2.81.82.86-.08,1.53-.46,1.68-1.34.16-.94-.46-1.41-1.28-1.66-.8-.24-1.61-.42-2.39-.69-1.18-.41-1.84-1.27-1.76-2.52.07-1.24.83-2.05,2.02-2.35,1.28-.32,2.54-.16,3.68.56.32.2.7.38.39.9-.3.5-.6.32-.95.1-.67-.42-1.38-.7-2.2-.64-.83.07-1.55.32-1.73,1.25-.19.98.45,1.42,1.24,1.69.52.18,1.07.28,1.6.43,1.98.57,2.8,1.58,2.53,3.11-.26,1.46-1.53,2.28-3.41,2.22Z"/>
      <path class="cls-1" d="M185.36,88.11c-.98.08-1.96-.29-2.86-.86-.35-.22-.87-.47-.51-1.03.36-.56.73-.19,1.09.08.84.61,1.78.89,2.82.77.86-.1,1.49-.54,1.62-1.41.12-.87-.49-1.31-1.22-1.55-.89-.3-1.81-.51-2.7-.82-1.08-.38-1.58-1.26-1.55-2.33.03-1.06.57-1.9,1.64-2.29,1.46-.54,2.83-.33,4.14.45.37.22.6.46.27.93-.28.39-.54.27-.83.06-.81-.56-1.71-.82-2.68-.63-.68.13-1.24.49-1.34,1.28-.11.81.35,1.27,1.02,1.52.67.25,1.39.38,2.08.59,1.79.56,2.51,1.49,2.31,2.95-.21,1.45-1.36,2.29-3.29,2.31Z"/>
      <path class="cls-1" d="M202.38,68.54c0,.67.02,1.34,0,2-.06,2.48-1.44,3.9-3.8,3.91-2.35.01-3.79-1.39-3.87-3.86-.05-1.56-.03-3.12,0-4.68,0-.44-.22-1.16.59-1.1.76.05.48.76.49,1.2.04,1.45-.04,2.9.03,4.34.1,2,1.12,3.05,2.82,3.03,1.69-.03,2.63-1.11,2.66-3.15.03-1.56,0-3.12.01-4.68,0-.4,0-.82.6-.76.46.04.46.41.47.74.01,1,0,2,0,3.01Z"/>
      <path class="cls-1" d="M198.66,88.15c-2.09,0-3.75-1.18-4.41-3.14-.72-2.12-.07-4.46,1.57-5.72,1.54-1.18,3.87-1.3,5.46-.24.39.26,1.19.46.66,1.21-.48.67-.86,0-1.24-.22-1.78-.99-3.48-.78-4.65.61-1.21,1.44-1.2,3.79.03,5.23,1.21,1.42,3.01,1.6,4.79.45.39-.25.74-.85,1.2-.17.46.68-.29.84-.62,1.1-.76.62-1.73.88-2.8.89Z"/>
      <path class="cls-1" d="M252.14,82.96c.1,1.09-.54,2.74.24,3.64.82.94,2.51.19,3.81.34.44.05,1.15-.24,1.12.57-.03.78-.73.51-1.17.52-1.33.03-2.66-.04-3.99.03-.91.05-1.12-.32-1.11-1.16.04-2.44,0-4.88.03-7.32,0-.43-.25-1.14.59-1.07.66.05.45.66.46,1.05.03,1.05,0,2.11,0,3.39Z"/>
      <path class="cls-1" d="M219.34,69.51c0-1.33,0-2.65,0-3.98,0-.4.02-.79.6-.74.43.04.55.31.55.67,0,2.71,0,5.42,0,8.13,0,.44-.13.76-.65.74-.62-.02-.5-.49-.5-.84-.02-1.33,0-2.65,0-3.98Z"/>
    </g>
    <path class="cls-1" d="M166.69,6.56v96.59h-.45V6.57h.45Z"/>
  </g>
</svg>