<?xml version="1.0" encoding="UTF-8"?>
<svg id="Capa_2" data-name="Capa 2" xmlns="http://www.w3.org/2000/svg" viewBox="0 0 268.6 49.76">
  <defs>
    <style>
      .cls-1 {
        fill: #333;
        stroke-width: 0px;
      }
    </style>
  </defs>
  <g id="Capa_1-2" data-name="Capa 1">
    <g>
      <path class="cls-1" d="M0,21.83c.53-1.89.92-3.84,1.6-5.67C5.82,4.72,17.59-1.83,29.7.45c11.41,2.15,19.89,12.51,19.92,24.32.03,12.68-9.81,23.73-21.85,24.86C12.67,51.06,2.08,40.3.36,29.06c-.05-.3-.24-.59-.36-.88,0-2.12,0-4.23,0-6.35ZM47.03,25.14c.24-12.15-9.58-22.24-21.85-22.47C12.92,2.45,2.95,12.11,2.67,24.44c-.27,12.32,9.53,22.54,21.8,22.73,12.25.19,22.31-9.64,22.55-22.04Z"/>
      <path class="cls-1" d="M268.6,44.05h-9.24V3.18h9.24v40.87Z"/>
      <path class="cls-1" d="M207.44,22.16c.03-4.71,1.06-10.35,4.66-15.25,3.03-4.12,7.18-5.75,11.54-4.49,3.22.94,5.57,3.14,7.04,6.03,5.12,10.04,5.11,20.12-.15,30.14-.27.52-.63,1.01-1,1.48-5.01,6.47-12.63,6.4-17.46-.21-3.58-4.9-4.64-10.55-4.63-17.69ZM216.09,23.45c.61,2.1.89,4.17,1.79,5.93,1.4,2.71,4.51,2.76,5.97.11,2.18-3.96,2.14-8.14.02-12.11-1.43-2.67-4.62-2.63-5.97.07-.91,1.83-1.22,3.96-1.82,6Z"/>
      <path class="cls-1" d="M206.73,44.01h-10.16c-1.27-3.95-2.54-7.93-3.82-11.91-.13,0-.26,0-.4,0v11.85h-9.06V3.25c4.35,0,8.64-.23,12.89.07,4.04.29,6.53,2.9,7.72,6.69,1.23,3.93,1.29,7.93.39,11.93-.63,2.8-1.63,4.07-4.22,5.64,2.17,5.37,4.36,10.77,6.65,16.43ZM192.39,22.36c1.34-.68,2.67-.93,3.18-1.71,1.14-1.75,1.08-3.87-.06-5.61-.5-.76-1.83-.99-3.12-1.62v8.94Z"/>
      <path class="cls-1" d="M99.26,38.96h-6.76c-.29,1.65-.57,3.26-.87,4.97h-9.66c3-13.6,5.97-27.11,8.96-40.67h10.12c2.93,13.52,5.85,27.03,8.8,40.68h-9.67c-.31-1.64-.61-3.29-.93-4.98ZM95.86,16.65c-.57,3.88-1.17,8.01-1.78,12.17h3.6c-.63-4.25-1.24-8.34-1.81-12.17Z"/>
      <path class="cls-1" d="M171.57,43.97c-.3-1.76-.57-3.31-.86-4.95h-6.79c-.28,1.57-.58,3.22-.89,4.95h-9.65c2.99-13.57,5.95-27.06,8.95-40.66h10.15c2.92,13.52,5.85,27.04,8.79,40.66h-9.71ZM167.26,16.59c-.57,3.98-1.17,8.11-1.77,12.28h3.59c-.62-4.2-1.23-8.29-1.82-12.28Z"/>
      <path class="cls-1" d="M128.17,15.88c-1.49-.93-2.73-2.01-4.16-2.5-.81-.27-2.38.11-2.86.76-.84,1.13,0,2.23,1.17,2.88.63.35,1.28.72,1.97.91,3.75,1.03,5.65,3.7,6.44,7.3.99,4.51.62,8.95-1.32,13.15-2.89,6.27-8.7,8.16-14.78,4.93-.41-.22-.81-.44-1.2-.69q-3.16-2.04-2.23-5.68c.66-2.6,1.33-5.2,2.05-8.01.81.74,1.44,1.41,2.17,1.93.95.69,1.93,1.4,3,1.86,1.17.51,2.41.42,3-.98.56-1.34-.14-2.28-1.27-2.95-.39-.23-.82-.44-1.26-.56-4.06-1.1-6.14-3.98-6.77-7.92-.69-4.37-.43-8.68,1.68-12.72,3.61-6.9,10.81-7.05,16.37-2.44.28.24.53.81.45,1.14-.78,3.24-1.62,6.46-2.43,9.6Z"/>
      <path class="cls-1" d="M135.46,28.95c1.01.88,1.82,1.75,2.78,2.4.97.64,2.04,1.31,3.15,1.49.68.11,1.89-.52,2.15-1.13.27-.63-.14-1.74-.58-2.42-.35-.53-1.17-.86-1.85-1.05-4.05-1.13-6.15-3.99-6.78-7.93-.7-4.37-.43-8.68,1.67-12.72,3.59-6.89,10.79-7.07,16.36-2.46.29.24.54.81.46,1.14-.78,3.24-1.62,6.47-2.43,9.62-1.48-.93-2.72-2.01-4.16-2.5-.82-.28-2.38.1-2.86.74-.84,1.12-.02,2.23,1.16,2.88.63.35,1.28.72,1.97.91,3.75,1.03,5.66,3.69,6.45,7.29.99,4.51.62,8.95-1.31,13.15-2.89,6.27-8.7,8.18-14.77,4.95-.41-.22-.81-.44-1.2-.69q-3.17-2.04-2.25-5.68c.66-2.6,1.33-5.2,2.04-8Z"/>
      <path class="cls-1" d="M78.25,43.95h-9.15v-27.19h-4.95V3.29h18.99v13.31h-4.89v27.35Z"/>
      <path class="cls-1" d="M255.88,30.92v12.98h-17.7V3.3h8.89v27.63h8.81Z"/>
      <path class="cls-1" d="M16.61,32.62c-2.29,2.07-4.32,3.91-6.52,5.9-.38-2.52-.41-4.48,1.81-5.98,1.67-1.13,3.04-2.71,4.65-4.19,2.64,2.8,5.2,5.52,7.77,8.24,2.98-3.02,5.6-5.68,8.38-8.49,2.42,2.2,4.73,3.98,6.58,6.16.73.85.4,2.6.11,4.2-2.06-1.87-4.12-3.74-6.21-5.64-2.69,2.8-5.32,5.54-8.06,8.39-3.04-3.07-5.71-5.76-8.52-8.6Z"/>
      <path class="cls-1" d="M32.91,25.06c-2.24,2.36-4.31,4.55-6.6,6.97v-15.56h13.29v2.97h-10.11v4.82c1.23-1.17,2.33-2.22,3.55-3.38,2.1,1.92,4.34,3.62,6.08,5.72.78.93.57,2.69.81,4.07-.17.1-.33.2-.5.3-2.06-1.86-4.12-3.73-6.52-5.91Z"/>
      <path class="cls-1" d="M10.03,19.52v-3.05h13.23v15.67c-2.26-2.61-4.26-4.91-6.29-7.26-2.57,2.33-4.61,4.18-6.87,6.24-.29-2.4-.47-4.32,1.64-5.83,1.71-1.22,3.15-2.81,5.19-4.68.88,1.31,1.75,2.59,2.62,3.88.21-.17.42-.34.62-.52v-4.45h-10.13Z"/>
      <path class="cls-1" d="M39.63,10.96v2.89H10.03v-2.89h29.59Z"/>
    </g>
  </g>
</svg>