<?xml version="1.0" encoding="UTF-8"?>
<svg id="Capa_2" data-name="Capa 2" xmlns="http://www.w3.org/2000/svg" viewBox="0 0 269.2 70.77">
  <defs>
    <style>
      .cls-1 {
        fill: #333;
        stroke-width: 0px;
      }
    </style>
  </defs>
  <g id="Capa_1-2" data-name="Capa 1">
    <g>
      <g>
        <path class="cls-1" d="M269.2,70.15c-.45.91-1.27.54-1.91.54-21.92.02-43.84.02-65.75.02-.36,0-.73,0-1.09,0-.37-.01-.78-.02-.73-.54.03-.34.34-.43.64-.43.44-.01.87-.01,1.31-.01,21.84,0,43.69,0,65.53.02.65,0,1.45-.4,2,.41Z"/>
        <path class="cls-1" d="M199.79,50.03h69.26c0,.15,0,.29,0,.44h-69.25c0-.15,0-.29,0-.44Z"/>
        <g>
          <g>
            <path class="cls-1" d="M269.11,19.25c0,7.44,0,14.87,0,22.31-.05.04-.15.09-.15.11.03.1.09.2.14.3,0,.3,0,.59.01.89-3.75,0-7.5,0-11.26,0v-3.98c-1.5,1.14-2.7,2.14-4,3.01-2.16,1.45-4.55,2.3-7.19,2.05-5.34-.52-8.43-3.95-8.5-9.49-.07-6.33-.05-12.66-.08-18.99-2.07-1.25-4.33-.31-6.5-.51-.83-.08-1.9-.5-2.57.53.05.13.02.24-.09.32-.69,3.63-.61,7.26-.03,10.89,0,.3,0,.6,0,.9-.57,2.33-.7,4.66.09,6.97.29.42.58.83.87,1.25.16.43.52.46.89.47,0,0-.02-.01-.02-.01.22.48.5.52.83.1.3,0,.6,0,.91,0,1.29.4,1.96,1.1,1.77,2.62-.18,1.42-.03,2.89-.02,4.34,0,0,0,0,0,0-.26.05-.53.11-.79.16-3.17.72-6.37.69-9.52.1-4.35-.82-6.25-3.22-6.29-7.81-.06-5.96-.08-11.93.02-17.89.03-1.76-.21-2.82-2.3-2.42-1.37.26-1.75-.26-1.38-1.68.32-1.25.23-2.6-.27-3.86-.48-1.22-.06-1.77,1.27-1.66.65.05,1.31-.04,1.96.02,1.04.09,1.42-.41,1.49-1.38.11-1.67.45-3.33.41-4.99-.04-1.61.61-1.93,2.06-1.86,2.25.11,4.51,0,6.76.04.43,0,1.06-.34,1.25.43-.6,2.46-.64,4.93.02,7.39.1.09.13.2.09.33.54.91,1.43.54,2.17.54,5.31.03,10.61.06,15.92-.01,1.51-.02,2.01.44,2,1.97-.07,6.76-.04,13.52-.02,20.27,0,.76-.31,1.62.45,2.24.79,1.9,1.9,3.27,4.27,2.66,2.34-.6,3.97-2.49,3.99-4.65.02-4.29.05-8.58.08-12.87,2.98,0,5.96.03,8.94,0,.91-.01,1.74.03,2.3.87Z"/>
            <path class="cls-1" d="M200.17,19.6c3.59,2.07,7.15,2.08,10.85-.44,0,7.84,0,15.38,0,22.91,0,.52,0,1.12-.73,1.08-3.5-.16-7.03.52-10.5-.34.59-.7.33-1.53.33-2.3.03-6.97.04-13.94.05-20.91Z"/>
            <path class="cls-1" d="M205.33,18.43c-3.58-.01-6.39-2.83-6.34-6.34.05-3.39,2.92-6.2,6.31-6.18,3.6.02,6.28,2.76,6.25,6.38-.03,3.47-2.75,6.16-6.23,6.14Z"/>
            <path class="cls-1" d="M249.53,33.24c-.76-.62-.45-1.48-.45-2.24-.02-6.76-.05-13.52.02-20.27.02-1.54-.49-2-2-1.97-5.3.08-10.61.04-15.92.01-.74,0-1.63.37-2.17-.54,6.09.01,12.19.09,18.28,0,1.73-.03,2.32.28,2.29,2.18-.13,7.61-.05,15.23-.05,22.85Z"/>
            <path class="cls-1" d="M200.17,19.6c-.01,6.97-.01,13.94-.05,20.91,0,.77.26,1.61-.33,2.3-.04-7.6-.08-15.2-.11-22.8,0-.2.12-.39.19-.59.1.06.2.11.3.17Z"/>
            <path class="cls-1" d="M269.11,19.25c-.56-.84-1.39-.88-2.3-.87-2.98.03-5.96,0-8.94,0,.03-.81.66-.61,1.11-.62,2.95-.02,5.89.03,8.84-.03,1.18-.03,1.58.39,1.29,1.51Z"/>
            <path class="cls-1" d="M257.86,42.86c3.75,0,7.5,0,11.26,0-.24.87-.95.44-1.43.45-2.8.05-5.6.05-8.4,0-.47,0-1.19.41-1.43-.45Z"/>
            <path class="cls-1" d="M228.9,26.67c-.58-3.63-.66-7.26.03-10.89-.01,3.63-.02,7.26-.03,10.89Z"/>
            <path class="cls-1" d="M234.23,43.31c0-1.45-.16-2.91.02-4.34.19-1.52-.47-2.22-1.77-2.62.69-.14,1.38-.28,2.24-.45-.4,2.55.47,5.02-.49,7.41Z"/>
            <path class="cls-1" d="M229.03,15.47c.67-1.04,1.74-.61,2.57-.53,2.16.21,4.43-.73,6.5.51-3.02,0-6.05.01-9.07.02Z"/>
            <path class="cls-1" d="M228.92,7.89c-.66-2.46-.62-4.92-.02-7.39,0,2.46.01,4.92.02,7.39Z"/>
            <path class="cls-1" d="M228.99,34.55c-.79-2.31-.66-4.64-.09-6.97.03,2.32.06,4.65.09,6.97Z"/>
            <path class="cls-1" d="M233.44,43.47c.26-.05.53-.11.79-.16-.26.05-.53.11-.79.16Z"/>
            <path class="cls-1" d="M231.58,36.35c-.33.42-.61.38-.83-.1.28.03.55.07.83.1Z"/>
            <path class="cls-1" d="M230.76,36.26c-.37-.01-.74-.04-.89-.47.3.16.6.31.89.47Z"/>
            <path class="cls-1" d="M269.11,41.96c-.05-.1-.11-.19-.14-.3,0-.02.09-.07.15-.11.08.14.07.27,0,.41Z"/>
          </g>
          <rect class="cls-1" x="199.79" y="49.6" width="69.26" height=".87"/>
          <rect class="cls-1" x="199.79" y="69.77" width="69.26" height=".87"/>
        </g>
        <g>
          <path class="cls-1" d="M201.17,58.47s0,.03-.01.04c0,.01-.02.02-.03.03-.02,0-.04.01-.06.02-.03,0-.06,0-.1,0-.04,0-.07,0-.1,0-.03,0-.05-.01-.06-.02-.02,0-.03-.02-.03-.03,0-.01-.01-.02-.01-.04v-4.28s0-.03.01-.04c0-.01.02-.02.04-.03s.04-.01.06-.02c.03,0,.06,0,.09,0,.04,0,.07,0,.1,0,.03,0,.05.01.06.02.02,0,.03.02.03.03,0,.01.01.02.01.04v4.28Z"/>
          <path class="cls-1" d="M205.43,58.34s0,.08-.02.1c-.01.03-.03.05-.05.07-.02.02-.04.03-.06.04s-.05.01-.07.01h-.09s-.09,0-.12-.02-.07-.03-.11-.06c-.04-.03-.07-.07-.11-.11-.04-.05-.07-.11-.12-.18l-1.56-2.76c-.08-.13-.16-.27-.23-.42-.08-.14-.15-.28-.22-.42h0c0,.17,0,.34,0,.51v3.37s0,.03-.01.04c0,.01-.02.02-.03.03-.02,0-.04.01-.06.02-.03,0-.06,0-.1,0-.04,0-.07,0-.1,0-.03,0-.05-.01-.06-.02-.02,0-.03-.02-.03-.03,0-.01-.01-.02-.01-.04v-4.14c0-.08.02-.14.06-.17.04-.03.09-.05.13-.05h.17c.05,0,.1,0,.14.01.04,0,.07.02.1.05.03.02.06.05.09.09.03.04.06.09.09.15l1.19,2.11c.08.13.15.26.21.38.07.12.13.24.2.36.06.12.13.23.19.35.06.11.12.23.19.35h0c0-.19,0-.39,0-.6v-3.17s0-.03.01-.04c0-.01.02-.02.03-.03.02,0,.04-.01.06-.02.03,0,.06,0,.1,0,.04,0,.07,0,.1,0s.05,0,.06.02c.02,0,.03.02.04.03,0,.01.01.02.01.04v4.14Z"/>
          <path class="cls-1" d="M208.75,57.35c0,.2-.04.37-.11.53-.07.16-.17.29-.3.39-.13.11-.28.19-.45.25-.18.06-.37.09-.57.09-.14,0-.27-.01-.4-.04-.13-.03-.24-.06-.33-.09-.1-.04-.18-.07-.25-.11-.07-.04-.11-.07-.14-.1-.03-.03-.04-.06-.05-.09-.01-.04-.02-.08-.02-.13,0-.04,0-.07,0-.1,0-.02.01-.05.02-.06,0-.02.02-.03.03-.03.01,0,.03,0,.04,0,.03,0,.08.02.13.06.06.04.13.08.23.13.09.05.2.09.33.13.13.04.28.06.45.06.14,0,.27-.02.38-.06s.22-.09.3-.16c.08-.07.15-.16.2-.26.05-.1.07-.22.07-.35s-.03-.25-.09-.35c-.06-.1-.14-.18-.23-.26-.1-.07-.21-.14-.33-.2-.12-.06-.25-.12-.38-.18-.13-.06-.25-.13-.38-.2-.12-.07-.23-.15-.33-.25-.1-.09-.17-.21-.23-.33-.06-.13-.09-.28-.09-.45s.03-.32.09-.46c.06-.14.15-.25.26-.35.11-.09.25-.17.4-.22.16-.05.33-.08.51-.08.09,0,.19,0,.28.03.1.02.19.04.27.07.09.03.16.06.23.1.07.04.11.06.13.09.02.02.04.04.04.05,0,.01.01.02.02.04,0,.02,0,.03.01.06,0,.02,0,.05,0,.08,0,.03,0,.06,0,.08s0,.04-.02.06-.02.03-.03.04c-.01,0-.02.01-.04.01-.03,0-.06-.02-.11-.05-.05-.03-.12-.07-.19-.11-.08-.04-.17-.08-.28-.11-.11-.03-.23-.05-.37-.05s-.25.02-.35.05c-.1.04-.18.09-.25.15-.07.06-.12.14-.15.22-.03.08-.05.17-.05.27,0,.14.03.25.09.35.06.1.14.18.24.26.1.08.21.14.33.2.12.06.25.12.38.18.13.06.25.13.38.19.12.07.24.15.33.25.1.09.18.2.24.33.06.13.09.28.09.45Z"/>
          <path class="cls-1" d="M212.11,54.31s0,.06,0,.08c0,.02-.01.04-.02.06,0,.01-.02.03-.03.03-.01,0-.03.01-.04.01h-1.32v3.98s0,.03-.01.04c0,.01-.02.02-.03.03-.02,0-.04.01-.06.02-.03,0-.06,0-.1,0s-.07,0-.1,0c-.03,0-.05-.01-.06-.02-.02,0-.03-.02-.03-.03,0-.01-.01-.02-.01-.04v-3.98h-1.32s-.03,0-.05-.01c-.01,0-.02-.02-.03-.03,0-.01-.02-.03-.02-.06,0-.02,0-.05,0-.08,0-.03,0-.06,0-.08,0-.02.01-.04.02-.06,0-.02.02-.03.03-.04.01,0,.03-.01.05-.01h3.05s.03,0,.04.01c.01,0,.02.02.03.04,0,.02.02.04.02.06,0,.02,0,.05,0,.08Z"/>
          <path class="cls-1" d="M213.02,58.47s0,.03-.01.04c0,.01-.02.02-.03.03-.02,0-.04.01-.06.02-.03,0-.06,0-.1,0-.04,0-.07,0-.1,0-.03,0-.05-.01-.06-.02-.02,0-.03-.02-.03-.03,0-.01-.01-.02-.01-.04v-4.28s0-.03.01-.04c0-.01.02-.02.04-.03s.04-.01.06-.02c.03,0,.06,0,.09,0,.04,0,.07,0,.1,0,.03,0,.05.01.06.02.02,0,.03.02.03.03,0,.01.01.02.01.04v4.28Z"/>
          <path class="cls-1" d="M216.78,54.31s0,.06,0,.08c0,.02-.01.04-.02.06,0,.01-.02.03-.03.03-.01,0-.03.01-.04.01h-1.32v3.98s0,.03-.01.04c0,.01-.02.02-.03.03-.02,0-.04.01-.06.02-.03,0-.06,0-.1,0s-.07,0-.1,0c-.03,0-.05-.01-.06-.02-.02,0-.03-.02-.03-.03,0-.01-.01-.02-.01-.04v-3.98h-1.32s-.03,0-.05-.01c-.01,0-.02-.02-.03-.03,0-.01-.02-.03-.02-.06,0-.02,0-.05,0-.08,0-.03,0-.06,0-.08,0-.02.01-.04.02-.06,0-.02.02-.03.03-.04.01,0,.03-.01.05-.01h3.05s.03,0,.04.01c.01,0,.02.02.03.04,0,.02.02.04.02.06,0,.02,0,.05,0,.08Z"/>
          <path class="cls-1" d="M220.44,56.92c0,.27-.04.51-.11.72-.08.21-.19.39-.33.53-.14.14-.31.25-.51.33-.2.07-.42.11-.67.11-.23,0-.43-.04-.62-.11-.19-.07-.35-.17-.49-.31-.14-.14-.24-.31-.32-.51-.08-.2-.11-.44-.11-.71v-2.77s0-.03.01-.04c0-.01.02-.02.04-.03s.04-.01.06-.02c.02,0,.06,0,.1,0,.04,0,.07,0,.1,0,.03,0,.05.01.06.02.02,0,.03.02.03.03,0,.01.01.02.01.04v2.71c0,.22.03.41.08.58.05.17.13.3.23.42.1.11.22.19.37.25.14.06.31.08.49.08s.35-.03.49-.08c.14-.05.27-.13.37-.24.1-.11.18-.25.23-.41.05-.16.08-.35.08-.57v-2.73s0-.03.01-.04c0-.01.02-.02.03-.03.02,0,.04-.01.06-.02.03,0,.06,0,.1,0s.07,0,.1,0c.03,0,.05.01.06.02.02,0,.03.02.03.03,0,.01.01.02.01.04v2.73Z"/>
          <path class="cls-1" d="M224.19,54.31s0,.06,0,.08c0,.02-.01.04-.02.06,0,.01-.02.03-.03.03-.01,0-.03.01-.04.01h-1.32v3.98s0,.03-.01.04c0,.01-.02.02-.03.03-.02,0-.04.01-.06.02-.03,0-.06,0-.1,0s-.07,0-.1,0c-.03,0-.05-.01-.06-.02-.02,0-.03-.02-.03-.03,0-.01-.01-.02-.01-.04v-3.98h-1.32s-.03,0-.05-.01c-.01,0-.02-.02-.03-.03,0-.01-.02-.03-.02-.06,0-.02,0-.05,0-.08,0-.03,0-.06,0-.08,0-.02.01-.04.02-.06,0-.02.02-.03.03-.04.01,0,.03-.01.05-.01h3.05s.03,0,.04.01c.01,0,.02.02.03.04,0,.02.02.04.02.06,0,.02,0,.05,0,.08Z"/>
          <path class="cls-1" d="M228.04,56.28c0,.35-.04.67-.12.96-.08.29-.2.53-.36.73-.16.2-.37.36-.61.47s-.53.16-.86.16-.61-.05-.85-.16-.43-.25-.58-.44c-.15-.19-.26-.43-.33-.71-.07-.28-.11-.59-.11-.94s.04-.66.12-.94c.08-.28.2-.52.36-.72.16-.2.37-.35.61-.46.24-.11.53-.16.86-.16s.6.05.83.15c.23.1.43.25.58.44s.27.42.34.7c.07.27.11.58.11.93ZM227.59,56.32c0-.26-.02-.51-.07-.74-.05-.23-.13-.43-.24-.6-.11-.17-.26-.3-.45-.4-.19-.1-.42-.15-.69-.15s-.5.05-.69.15c-.19.1-.34.24-.46.41-.12.17-.2.37-.25.6-.05.23-.08.47-.08.72,0,.27.02.52.07.75.05.23.13.43.24.6.11.17.26.3.45.4.19.1.42.15.7.15s.51-.05.7-.16c.19-.1.34-.24.46-.42s.2-.38.25-.6c.05-.23.08-.47.08-.72Z"/>
          <path class="cls-1" d="M232.9,54.31s0,.06,0,.08c0,.02-.01.04-.02.06,0,.01-.02.03-.03.03-.01,0-.03.01-.04.01h-1.32v3.98s0,.03-.01.04c0,.01-.02.02-.03.03-.02,0-.04.01-.06.02-.03,0-.06,0-.1,0s-.07,0-.1,0c-.03,0-.05-.01-.06-.02-.02,0-.03-.02-.03-.03,0-.01-.01-.02-.01-.04v-3.98h-1.32s-.03,0-.05-.01c-.01,0-.02-.02-.03-.03,0-.01-.02-.03-.02-.06,0-.02,0-.05,0-.08,0-.03,0-.06,0-.08,0-.02.01-.04.02-.06,0-.02.02-.03.03-.04.01,0,.03-.01.05-.01h3.05s.03,0,.04.01c.01,0,.02.02.03.04,0,.02.02.04.02.06,0,.02,0,.05,0,.08Z"/>
          <path class="cls-1" d="M235.76,58.36s0,.06,0,.08c0,.02-.01.04-.02.06-.01.02-.02.03-.04.04-.01,0-.03.01-.04.01h-2.07s-.08-.02-.13-.05c-.04-.03-.06-.09-.06-.17v-3.99c0-.08.02-.14.06-.17.04-.03.09-.05.13-.05h2.04s.03,0,.04.01c.01,0,.02.02.03.04,0,.02.02.04.02.06,0,.02,0,.05,0,.08,0,.03,0,.06,0,.08,0,.02-.01.04-.02.06,0,.01-.02.03-.03.03-.01,0-.03.01-.04.01h-1.81v1.55h1.56s.03,0,.05.01c.01,0,.02.02.03.03,0,.01.02.03.02.06,0,.02,0,.05,0,.08,0,.03,0,.06,0,.08,0,.02-.01.04-.02.05,0,.01-.02.02-.03.03s-.03.01-.05.01h-1.56v1.76h1.84s.03,0,.04.01c.01,0,.03.02.04.03.01.01.02.03.02.06,0,.02,0,.05,0,.08Z"/>
          <path class="cls-1" d="M239.43,57.94s0,.05,0,.07c0,.02,0,.04-.01.05,0,.02-.01.03-.02.04,0,.01-.02.03-.04.05s-.07.06-.14.11c-.07.05-.16.1-.27.15-.11.05-.24.09-.38.12s-.3.05-.47.05c-.28,0-.53-.05-.75-.15-.23-.1-.42-.24-.58-.43-.16-.19-.28-.42-.37-.69s-.13-.59-.13-.94.05-.68.14-.97c.09-.29.22-.53.38-.73.17-.2.36-.35.59-.46.23-.11.49-.16.77-.16.13,0,.26.01.38.04.12.03.24.06.34.1.1.04.2.08.28.13.08.05.14.09.17.12s.05.05.06.07c0,.01.01.03.02.05,0,.02,0,.04.01.06,0,.02,0,.05,0,.07,0,.03,0,.06,0,.08s0,.04-.02.06c0,.02-.02.03-.03.04-.01,0-.03.01-.04.01-.03,0-.08-.02-.13-.07-.06-.05-.13-.1-.23-.16-.09-.06-.21-.11-.35-.16-.14-.05-.3-.07-.49-.07-.21,0-.4.04-.57.12-.17.08-.32.21-.45.37-.12.16-.22.36-.29.6-.07.24-.1.51-.1.82s.03.55.1.78c.06.23.16.42.28.58.12.16.27.27.45.36s.38.12.6.12c.18,0,.35-.02.48-.07.14-.05.26-.1.35-.16.1-.06.18-.11.24-.16.06-.05.11-.07.15-.07.01,0,.02,0,.03,0,0,0,.02.02.02.03,0,.01.01.03.01.06,0,.03,0,.06,0,.09Z"/>
          <path class="cls-1" d="M243.24,58.34s0,.08-.02.1c-.01.03-.03.05-.05.07-.02.02-.04.03-.06.04s-.05.01-.07.01h-.09s-.09,0-.12-.02-.07-.03-.11-.06c-.04-.03-.07-.07-.11-.11-.04-.05-.07-.11-.12-.18l-1.56-2.76c-.08-.13-.16-.27-.23-.42-.08-.14-.15-.28-.22-.42h0c0,.17,0,.34,0,.51v3.37s0,.03-.01.04c0,.01-.02.02-.03.03-.02,0-.04.01-.06.02-.03,0-.06,0-.1,0-.04,0-.07,0-.1,0-.03,0-.05-.01-.06-.02-.02,0-.03-.02-.03-.03,0-.01-.01-.02-.01-.04v-4.14c0-.08.02-.14.06-.17.04-.03.09-.05.13-.05h.17c.05,0,.1,0,.14.01.04,0,.07.02.1.05.03.02.06.05.09.09.03.04.06.09.09.15l1.19,2.11c.08.13.15.26.21.38.07.12.13.24.2.36.06.12.13.23.19.35.06.11.12.23.19.35h0c0-.19,0-.39,0-.6v-3.17s0-.03.01-.04c0-.01.02-.02.03-.03.02,0,.04-.01.06-.02.03,0,.06,0,.1,0,.04,0,.07,0,.1,0s.05,0,.06.02c.02,0,.03.02.04.03,0,.01.01.02.01.04v4.14Z"/>
          <path class="cls-1" d="M247.88,56.28c0,.35-.04.67-.12.96-.08.29-.2.53-.36.73-.16.2-.37.36-.61.47s-.53.16-.86.16-.61-.05-.85-.16-.43-.25-.58-.44c-.15-.19-.26-.43-.33-.71-.07-.28-.11-.59-.11-.94s.04-.66.12-.94c.08-.28.2-.52.36-.72.16-.2.37-.35.61-.46.24-.11.53-.16.86-.16s.6.05.83.15c.23.1.43.25.58.44s.27.42.34.7c.07.27.11.58.11.93ZM247.43,56.32c0-.26-.02-.51-.07-.74-.05-.23-.13-.43-.24-.6-.11-.17-.26-.3-.45-.4-.19-.1-.42-.15-.69-.15s-.5.05-.69.15c-.19.1-.34.24-.46.41-.12.17-.2.37-.25.6-.05.23-.08.47-.08.72,0,.27.02.52.07.75.05.23.13.43.24.6.11.17.26.3.45.4.19.1.42.15.7.15s.51-.05.7-.16c.19-.1.34-.24.46-.42s.2-.38.25-.6c.05-.23.08-.47.08-.72Z"/>
          <path class="cls-1" d="M250.91,58.35s0,.06,0,.08c0,.02-.01.04-.02.06,0,.02-.02.03-.03.04-.01,0-.03.01-.05.01h-1.92s-.08-.02-.13-.05c-.04-.03-.06-.09-.06-.17v-4.14s0-.03.01-.04c0-.01.02-.02.03-.03.02,0,.04-.01.06-.02.03,0,.06,0,.1,0,.04,0,.07,0,.1,0,.03,0,.05.01.06.02.02,0,.03.02.03.03,0,.01.01.02.01.04v3.97h1.69s.03,0,.05.01c.01,0,.02.02.03.03,0,.01.02.03.02.06,0,.02,0,.05,0,.08Z"/>
          <path class="cls-1" d="M254.8,56.28c0,.35-.04.67-.12.96-.08.29-.2.53-.36.73-.16.2-.37.36-.61.47s-.53.16-.86.16-.61-.05-.85-.16-.43-.25-.58-.44c-.15-.19-.26-.43-.33-.71-.07-.28-.11-.59-.11-.94s.04-.66.12-.94c.08-.28.2-.52.36-.72.16-.2.37-.35.61-.46.24-.11.53-.16.86-.16s.6.05.83.15c.23.1.43.25.58.44s.27.42.34.7c.07.27.11.58.11.93ZM254.35,56.32c0-.26-.02-.51-.07-.74-.05-.23-.13-.43-.24-.6-.11-.17-.26-.3-.45-.4-.19-.1-.42-.15-.69-.15s-.5.05-.69.15c-.19.1-.34.24-.46.41-.12.17-.2.37-.25.6-.05.23-.08.47-.08.72,0,.27.02.52.07.75.05.23.13.43.24.6.11.17.26.3.45.4.19.1.42.15.7.15s.51-.05.7-.16c.19-.1.34-.24.46-.42s.2-.38.25-.6c.05-.23.08-.47.08-.72ZM253.31,52.88s.04-.04.07-.06c.02-.01.04-.03.07-.03.02,0,.05-.01.09-.02.03,0,.07,0,.11,0,.05,0,.09,0,.12.01.03,0,.05.02.06.03.01.01.02.03.01.04s-.01.03-.03.05l-.78.75s-.04.04-.06.05c-.02.01-.04.02-.06.03s-.04.01-.07.01c-.02,0-.05,0-.09,0-.04,0-.07,0-.09,0-.02,0-.04-.01-.04-.02s0-.02,0-.04c0-.02.02-.03.03-.05l.66-.75Z"/>
          <path class="cls-1" d="M258.8,54.68s0,.06,0,.08c0,.03-.01.05-.02.06,0,.02-.02.03-.03.04-.01,0-.03.01-.04.01-.03,0-.07-.02-.13-.07-.06-.05-.15-.1-.25-.15-.1-.05-.23-.1-.38-.15-.15-.05-.33-.07-.53-.07-.26,0-.5.05-.7.15-.2.1-.38.23-.52.4-.14.17-.25.37-.32.6-.07.23-.11.48-.11.75,0,.3.04.56.13.8.08.23.2.43.35.59.15.16.33.28.53.37.21.08.43.13.67.13.16,0,.32-.02.48-.06.16-.04.31-.1.45-.18v-1.43h-1.13s-.06-.02-.08-.05c-.02-.03-.03-.08-.03-.14,0-.03,0-.06,0-.08,0-.02.01-.04.02-.06,0-.01.02-.03.03-.03.01,0,.03-.01.05-.01h1.35s.04,0,.06.01c.02,0,.04.02.06.03.02.02.03.04.05.07.01.03.02.06.02.1v1.64c0,.05,0,.1-.03.14-.02.04-.06.08-.12.11-.06.04-.14.07-.25.12-.1.04-.21.08-.32.11-.11.03-.22.05-.33.06-.11.01-.22.02-.33.02-.33,0-.63-.05-.9-.16-.26-.11-.49-.26-.67-.46-.18-.2-.32-.43-.42-.7-.1-.27-.14-.57-.14-.9s.05-.66.16-.94c.1-.28.25-.53.44-.73.19-.2.41-.36.67-.47.26-.11.55-.17.87-.17.16,0,.31.01.45.04.14.03.27.07.38.11.11.04.21.09.29.14.08.05.13.09.16.12.03.03.05.06.06.08s.02.07.02.12Z"/>
          <path class="cls-1" d="M260.2,58.47s0,.03-.01.04c0,.01-.02.02-.03.03-.02,0-.04.01-.06.02-.03,0-.06,0-.1,0-.04,0-.07,0-.1,0-.03,0-.05-.01-.06-.02-.02,0-.03-.02-.03-.03,0-.01-.01-.02-.01-.04v-4.28s0-.03.01-.04c0-.01.02-.02.04-.03s.04-.01.06-.02c.03,0,.06,0,.09,0,.04,0,.07,0,.1,0,.03,0,.05.01.06.02.02,0,.03.02.03.03,0,.01.01.02.01.04v4.28Z"/>
          <path class="cls-1" d="M264.18,57.94s0,.05,0,.07c0,.02,0,.04-.01.05,0,.02-.01.03-.02.04,0,.01-.02.03-.04.05s-.07.06-.14.11c-.07.05-.16.1-.27.15-.11.05-.24.09-.38.12s-.3.05-.47.05c-.28,0-.53-.05-.75-.15-.23-.1-.42-.24-.58-.43-.16-.19-.28-.42-.37-.69s-.13-.59-.13-.94.05-.68.14-.97c.09-.29.22-.53.38-.73.17-.2.36-.35.59-.46.23-.11.49-.16.77-.16.13,0,.26.01.38.04.12.03.24.06.34.1.1.04.2.08.28.13.08.05.14.09.17.12s.05.05.06.07c0,.01.01.03.02.05,0,.02,0,.04.01.06,0,.02,0,.05,0,.07,0,.03,0,.06,0,.08s0,.04-.02.06c0,.02-.02.03-.03.04-.01,0-.03.01-.04.01-.03,0-.08-.02-.13-.07-.06-.05-.13-.1-.23-.16-.09-.06-.21-.11-.35-.16-.14-.05-.3-.07-.49-.07-.21,0-.4.04-.57.12-.17.08-.32.21-.45.37-.12.16-.22.36-.29.6-.07.24-.1.51-.1.82s.03.55.1.78c.06.23.16.42.28.58.12.16.27.27.45.36s.38.12.6.12c.18,0,.35-.02.48-.07.14-.05.26-.1.35-.16.1-.06.18-.11.24-.16.06-.05.11-.07.15-.07.01,0,.02,0,.03,0,0,0,.02.02.02.03,0,.01.01.03.01.06,0,.03,0,.06,0,.09Z"/>
          <path class="cls-1" d="M268.31,56.28c0,.35-.04.67-.12.96-.08.29-.2.53-.36.73-.16.2-.37.36-.61.47s-.53.16-.86.16-.61-.05-.85-.16-.43-.25-.58-.44c-.15-.19-.26-.43-.33-.71-.07-.28-.11-.59-.11-.94s.04-.66.12-.94c.08-.28.2-.52.36-.72.16-.2.37-.35.61-.46.24-.11.53-.16.86-.16s.6.05.83.15c.23.1.43.25.58.44s.27.42.34.7c.07.27.11.58.11.93ZM267.86,56.32c0-.26-.02-.51-.07-.74-.05-.23-.13-.43-.24-.6-.11-.17-.26-.3-.45-.4-.19-.1-.42-.15-.69-.15s-.5.05-.69.15c-.19.1-.34.24-.46.41-.12.17-.2.37-.25.6-.05.23-.08.47-.08.72,0,.27.02.52.07.75.05.23.13.43.24.6.11.17.26.3.45.4.19.1.42.15.7.15s.51-.05.7-.16c.19-.1.34-.24.46-.42s.2-.38.25-.6c.05-.23.08-.47.08-.72Z"/>
          <path class="cls-1" d="M204.41,63.89c0,.27-.04.51-.12.73-.08.21-.2.4-.35.54-.16.15-.35.26-.57.34-.23.08-.49.12-.79.12-.28,0-.53-.03-.75-.1-.22-.07-.41-.17-.56-.32-.15-.14-.27-.32-.35-.53-.08-.21-.12-.46-.12-.74v-2.69s0-.04.02-.06c.01-.02.04-.03.07-.04.04-.01.08-.02.14-.03.06,0,.13-.01.22-.01s.16,0,.22.01c.06,0,.1.02.14.03.03.01.06.03.07.04.01.02.02.04.02.06v2.61c0,.18.02.33.06.46.04.13.11.24.19.32.08.08.18.15.29.19.11.04.24.06.38.06s.27-.02.38-.06c.11-.04.21-.11.28-.19.08-.08.14-.19.18-.31.04-.12.06-.26.06-.42v-2.66s0-.04.02-.06c.01-.02.04-.03.07-.04.03-.01.08-.02.14-.03s.13-.01.22-.01.16,0,.21.01c.06,0,.1.02.13.03.03.01.06.03.07.04.01.02.02.04.02.06v2.65Z"/>
          <path class="cls-1" d="M210.92,65.22c0,.05,0,.1-.03.14-.02.04-.04.08-.07.1s-.07.05-.11.06c-.04.01-.08.02-.13.02h-.38c-.08,0-.15,0-.21-.02-.06-.02-.11-.04-.16-.09-.05-.04-.1-.1-.14-.17-.05-.07-.1-.16-.15-.28l-1.1-2.07c-.06-.12-.13-.26-.19-.4-.07-.14-.13-.28-.18-.42h0c0,.16.02.33.02.49,0,.16,0,.33,0,.5v2.31s0,.04-.02.06c-.01.02-.03.03-.06.05-.03.01-.07.02-.12.03-.05,0-.12.01-.2.01s-.15,0-.2-.01c-.05,0-.09-.02-.12-.03-.03-.01-.05-.03-.06-.05-.01-.02-.02-.04-.02-.06v-3.97c0-.11.03-.19.09-.24.06-.05.14-.08.23-.08h.48c.09,0,.16,0,.22.02.06.01.11.04.16.07.05.03.09.08.13.14.04.06.08.13.13.22l.86,1.62c.05.1.1.19.15.29.05.09.1.19.14.28.05.09.09.19.13.28.04.09.09.18.13.27h0c0-.16-.01-.33-.02-.5,0-.17,0-.34,0-.5v-2.07s0-.04.02-.06c.01-.02.04-.03.07-.05.03-.01.07-.02.13-.03.05,0,.12,0,.2,0,.08,0,.14,0,.19,0,.05,0,.09.02.12.03.03.01.05.03.06.05.01.02.02.04.02.06v3.97Z"/>
          <path class="cls-1" d="M214.68,65.41s0,.04-.02.06c-.01.02-.04.03-.07.04-.03.01-.08.02-.14.03-.06,0-.13.01-.22.01s-.16,0-.22-.01-.1-.02-.14-.03c-.03-.01-.06-.03-.07-.04-.01-.02-.02-.04-.02-.06v-4.17s0-.04.02-.06c.01-.02.04-.03.08-.04.04-.01.08-.02.14-.03.06,0,.13-.01.22-.01s.16,0,.22.01c.06,0,.1.02.14.03.03.01.06.03.07.04.01.02.02.04.02.06v4.17Z"/>
          <path class="cls-1" d="M219.75,65.38s-.03.07-.04.09c-.02.02-.05.04-.09.05s-.1.02-.17.02c-.07,0-.16,0-.28,0-.09,0-.17,0-.23,0-.06,0-.12,0-.17,0-.05,0-.08-.01-.11-.02-.03,0-.05-.02-.07-.03-.02-.01-.03-.03-.04-.05-.01-.02-.02-.04-.03-.07l-1.32-3.92c-.03-.08-.04-.15-.05-.19,0-.05,0-.08.03-.11.03-.02.08-.04.15-.04.07,0,.16,0,.29,0,.1,0,.19,0,.25,0,.06,0,.1.01.14.02.03.01.05.03.07.05.01.02.02.05.04.09l1.08,3.41h0l1.06-3.39s.02-.07.03-.09.04-.04.07-.06c.03-.01.08-.02.14-.03.06,0,.15,0,.25,0s.19,0,.24.01.1.02.12.05c.02.03.03.06.02.11,0,.05-.03.11-.05.19l-1.32,3.92Z"/>
          <path class="cls-1" d="M226.21,65.19c0,.07,0,.12,0,.17,0,.04-.01.08-.03.11-.01.03-.03.05-.04.06-.02.01-.04.02-.06.02h-2.22c-.08,0-.14-.02-.19-.07s-.08-.12-.08-.22v-3.85c0-.1.03-.17.08-.22s.11-.07.19-.07h2.21s.04,0,.05.02c.02.01.03.03.04.06.01.03.02.06.03.11,0,.04,0,.1,0,.17,0,.06,0,.12,0,.16,0,.04-.01.08-.03.11-.01.03-.03.05-.04.06-.02.01-.03.02-.05.02h-1.58v1.08h1.34s.04,0,.06.02c.02.01.03.03.04.06.01.03.02.06.03.11,0,.04,0,.1,0,.16s0,.12,0,.16c0,.04-.01.08-.03.1-.01.03-.03.05-.04.06-.02.01-.04.02-.06.02h-1.34v1.25h1.59s.04,0,.06.02c.02.01.03.03.04.06.01.03.02.06.03.11,0,.04,0,.1,0,.17Z"/>
          <path class="cls-1" d="M232.18,65.42s0,.05-.01.06c0,.02-.03.03-.06.04s-.08.02-.15.02c-.07,0-.16,0-.27,0-.1,0-.17,0-.23,0-.06,0-.1-.01-.13-.03-.03-.01-.06-.03-.07-.05-.01-.02-.03-.04-.03-.07l-.4-.99c-.05-.11-.09-.21-.14-.3-.05-.09-.1-.16-.15-.22-.06-.06-.12-.1-.19-.13-.07-.03-.16-.04-.25-.04h-.28v1.68s0,.04-.02.06c-.01.02-.04.03-.07.04-.03.01-.08.02-.14.03-.06,0-.13.01-.22.01s-.16,0-.22-.01-.1-.02-.14-.03c-.03-.01-.06-.03-.07-.04-.01-.02-.02-.04-.02-.06v-4.01c0-.1.03-.17.08-.22s.11-.07.19-.07h1.14c.12,0,.21,0,.29,0,.08,0,.14.01.2.02.18.03.34.07.48.13.14.06.26.14.36.24s.17.22.23.35c.05.14.08.29.08.47,0,.15-.02.28-.06.4-.04.12-.09.23-.17.33-.07.1-.16.18-.27.25-.11.07-.23.13-.37.17.07.03.13.07.19.12.06.05.11.1.16.17s.1.14.15.22c.05.08.09.18.13.28l.37.87c.03.09.06.15.07.19.01.04.02.07.02.09ZM231.03,62.42c0-.15-.03-.27-.1-.37-.07-.1-.17-.17-.32-.21-.05-.01-.1-.02-.16-.03s-.14-.01-.24-.01h-.4v1.25h.46c.13,0,.24-.02.33-.05s.18-.07.24-.13c.06-.06.11-.12.14-.2.03-.08.05-.16.05-.26Z"/>
          <path class="cls-1" d="M237.3,64.21c0,.23-.04.44-.13.61-.09.18-.2.32-.35.44-.15.12-.32.21-.52.26s-.41.09-.64.09c-.15,0-.29-.01-.43-.04-.13-.03-.25-.06-.35-.09-.1-.04-.18-.07-.25-.11-.07-.04-.12-.07-.15-.1-.03-.03-.05-.07-.06-.13-.01-.06-.02-.14-.02-.24,0-.07,0-.13,0-.18,0-.05.01-.09.02-.12.01-.03.02-.05.04-.06.02-.01.04-.02.06-.02.03,0,.08.02.13.06s.13.08.22.12c.09.05.2.09.33.12s.27.06.44.06c.11,0,.21-.01.29-.04.09-.03.16-.06.22-.11.06-.05.11-.11.14-.18.03-.07.05-.15.05-.24,0-.1-.03-.19-.08-.26s-.13-.14-.21-.19c-.09-.06-.19-.11-.3-.16-.11-.05-.23-.1-.35-.16-.12-.05-.23-.12-.35-.19-.11-.07-.21-.15-.3-.25-.09-.1-.16-.21-.21-.34-.05-.13-.08-.29-.08-.47,0-.21.04-.4.12-.56s.18-.29.32-.4.29-.18.47-.24c.18-.05.37-.08.58-.08.1,0,.21,0,.31.02.1.02.2.04.29.06.09.03.17.06.24.09.07.03.12.06.14.09.02.02.04.04.05.06,0,.02.01.04.02.06,0,.03,0,.06.01.1,0,.04,0,.09,0,.15,0,.07,0,.12,0,.17,0,.05,0,.08-.02.11,0,.03-.02.05-.03.06-.01.01-.03.02-.06.02s-.06-.02-.12-.05c-.05-.03-.12-.07-.2-.1-.08-.04-.17-.07-.28-.1-.1-.03-.22-.05-.35-.05-.1,0-.18.01-.26.04-.07.02-.13.06-.18.1-.05.04-.09.09-.11.15-.02.06-.04.12-.04.19,0,.1.03.18.08.25.05.07.13.14.22.19.09.06.19.11.31.16.11.05.23.1.35.16.12.05.23.12.35.19.11.07.22.15.3.25.09.1.16.21.22.34.05.13.08.29.08.46Z"/>
          <path class="cls-1" d="M240.79,65.41s0,.04-.02.06c-.01.02-.04.03-.07.04-.03.01-.08.02-.14.03-.06,0-.13.01-.22.01s-.16,0-.22-.01-.1-.02-.14-.03c-.03-.01-.06-.03-.07-.04-.01-.02-.02-.04-.02-.06v-4.17s0-.04.02-.06c.01-.02.04-.03.08-.04.04-.01.08-.02.14-.03.06,0,.13-.01.22-.01s.16,0,.22.01c.06,0,.1.02.14.03.03.01.06.03.07.04.01.02.02.04.02.06v4.17Z"/>
          <path class="cls-1" d="M246.6,61.49c0,.07,0,.12,0,.17,0,.05-.01.08-.03.11-.01.03-.03.05-.04.06s-.04.02-.06.02h-1.11v3.56s0,.04-.02.06c-.01.02-.04.03-.07.04-.03.01-.08.02-.14.03s-.13.01-.22.01-.16,0-.22-.01-.1-.02-.14-.03c-.03-.01-.06-.03-.07-.04-.01-.02-.02-.04-.02-.06v-3.56h-1.11s-.04,0-.06-.02c-.02-.01-.03-.03-.04-.06-.01-.03-.02-.07-.03-.11,0-.05,0-.1,0-.17s0-.13,0-.17c0-.05.01-.09.03-.11.01-.03.02-.05.04-.06.02-.01.04-.02.06-.02h3.12s.04,0,.06.02c.02.01.03.03.04.06.01.03.02.07.03.11,0,.05,0,.11,0,.17Z"/>
          <path class="cls-1" d="M252.09,65.2c.03.08.04.15.05.19s0,.08-.03.11c-.03.02-.07.04-.13.04-.06,0-.15,0-.26,0s-.21,0-.27,0-.11-.01-.15-.02-.06-.02-.07-.04c-.01-.02-.03-.04-.03-.07l-.3-.89h-1.66l-.28.86s-.02.06-.04.08c-.01.02-.04.04-.07.05-.03.01-.08.02-.14.03-.06,0-.14,0-.24,0-.1,0-.19,0-.25-.01-.06,0-.1-.02-.12-.05-.02-.03-.03-.06-.02-.11s.02-.11.05-.19l1.36-3.92s.03-.07.05-.09c.02-.02.05-.04.09-.05.04-.01.1-.02.17-.02.07,0,.16,0,.28,0,.13,0,.24,0,.32,0,.08,0,.14.01.19.02.04.01.08.03.1.06.02.03.04.06.05.1l1.37,3.92ZM250.07,61.96h0l-.63,1.88h1.25l-.63-1.88Z"/>
          <path class="cls-1" d="M257.89,65.42s0,.05-.01.06c0,.02-.03.03-.06.04s-.08.02-.15.02c-.07,0-.16,0-.27,0-.1,0-.17,0-.23,0-.06,0-.1-.01-.13-.03-.03-.01-.06-.03-.07-.05-.01-.02-.03-.04-.03-.07l-.4-.99c-.05-.11-.09-.21-.14-.3-.05-.09-.1-.16-.15-.22-.06-.06-.12-.1-.19-.13-.07-.03-.16-.04-.25-.04h-.28v1.68s0,.04-.02.06c-.01.02-.04.03-.07.04-.03.01-.08.02-.14.03-.06,0-.13.01-.22.01s-.16,0-.22-.01-.1-.02-.14-.03c-.03-.01-.06-.03-.07-.04-.01-.02-.02-.04-.02-.06v-4.01c0-.1.03-.17.08-.22s.11-.07.19-.07h1.14c.12,0,.21,0,.29,0,.08,0,.14.01.2.02.18.03.34.07.48.13.14.06.26.14.36.24s.17.22.23.35c.05.14.08.29.08.47,0,.15-.02.28-.06.4-.04.12-.09.23-.17.33-.07.1-.16.18-.27.25-.11.07-.23.13-.37.17.07.03.13.07.19.12.06.05.11.1.16.17s.1.14.15.22c.05.08.09.18.13.28l.37.87c.03.09.06.15.07.19.01.04.02.07.02.09ZM256.74,62.42c0-.15-.03-.27-.1-.37-.07-.1-.17-.17-.32-.21-.05-.01-.1-.02-.16-.03s-.14-.01-.24-.01h-.4v1.25h.46c.13,0,.24-.02.33-.05s.18-.07.24-.13c.06-.06.11-.12.14-.2.03-.08.05-.16.05-.26Z"/>
          <path class="cls-1" d="M261.36,65.41s0,.04-.02.06c-.01.02-.04.03-.07.04-.03.01-.08.02-.14.03-.06,0-.13.01-.22.01s-.16,0-.22-.01-.1-.02-.14-.03c-.03-.01-.06-.03-.07-.04-.01-.02-.02-.04-.02-.06v-4.17s0-.04.02-.06c.01-.02.04-.03.08-.04.04-.01.08-.02.14-.03.06,0,.13-.01.22-.01s.16,0,.22.01c.06,0,.1.02.14.03.03.01.06.03.07.04.01.02.02.04.02.06v4.17Z"/>
          <path class="cls-1" d="M268.2,63.28c0,.37-.05.69-.14.98-.09.29-.23.53-.41.74-.18.2-.4.36-.67.46-.27.11-.57.16-.92.16s-.64-.05-.9-.13-.47-.23-.64-.41-.3-.42-.38-.7c-.09-.28-.13-.62-.13-1.01,0-.36.05-.68.14-.97.09-.29.23-.53.41-.73.18-.2.4-.35.67-.46.27-.11.57-.16.92-.16s.63.04.89.13.47.23.64.41c.17.18.3.42.39.7.09.28.13.61.13,1ZM267.26,63.32c0-.23-.02-.44-.05-.63-.04-.19-.1-.35-.19-.49-.09-.14-.2-.24-.35-.31-.15-.07-.33-.11-.55-.11s-.41.04-.55.12c-.15.08-.27.19-.36.33-.09.14-.16.3-.19.49-.04.19-.06.38-.06.59,0,.24.02.46.05.65.04.19.1.36.18.49.09.14.2.24.35.31.15.07.33.11.55.11s.41-.04.55-.12c.15-.08.27-.19.36-.33.09-.14.16-.31.19-.49s.06-.39.06-.6Z"/>
        </g>
      </g>
      <g>
        <path class="cls-1" d="M183.96,22.14c-.14.64-.27,1.27-.42,1.9-1.31,5.44-5.71,8.65-11.32,8.25-6.15-.44-10.08-4.4-10.34-10.59-.07-1.74.02-3.56.45-5.24,1.55-6,6.54-8.53,11.98-7.89,5.26.62,8.63,4.05,9.47,9.38.04.26.13.51.19.77v3.41ZM180.4,20.31c.02-1.7-.31-3.42-1.15-5.02-1.33-2.53-3.44-3.85-6.3-3.88-2.88-.03-5.12,1.19-6.43,3.79-1.75,3.48-1.74,7.05.03,10.52,1.29,2.53,3.51,3.65,6.33,3.65,2.86,0,5-1.24,6.35-3.77.86-1.62,1.18-3.37,1.16-5.29Z"/>
        <path class="cls-1" d="M0,33.1c.24-1.62.42-3.26.74-4.86,1.34-6.72,4.24-12.64,9.26-17.37,9.8-9.25,23.65-8.79,32.94,1.07,5.18,5.5,7.9,12.12,8.66,19.58.79,7.75-.58,15.09-4.56,21.84-3.45,5.85-8.2,10.26-14.82,12.2-8.42,2.47-15.8.24-22.13-5.6C4.7,54.97,1.78,48.64.54,41.47c-.21-1.23-.36-2.47-.54-3.7,0-1.56,0-3.11,0-4.67ZM.25,36.07c.11,1.15.18,3.07.48,4.95,1.16,7.38,4.17,13.85,9.75,18.94,5.65,5.15,12.27,7.36,19.87,5.81,6.15-1.26,10.95-4.75,14.59-9.76,6.23-8.56,7.9-18.14,5.78-28.4-1.5-7.22-4.94-13.4-10.78-18.05-4.96-3.95-10.6-5.71-16.94-4.84-5.87.8-10.64,3.69-14.51,8.07C2.83,19.21.41,26.85.25,36.07Z"/>
        <path class="cls-1" d="M82.01,8.87c1.4,0,2.74-.04,4.08.03.27.02.61.42.77.72,3.06,5.55,6.1,11.12,9.15,16.68.15.28.32.55.62,1.06V8.94h3.27v22.95c-1.31,0-2.65.03-3.97-.03-.21-.01-.45-.43-.6-.7-3.11-5.63-6.21-11.27-9.31-16.9-.17-.31-.35-.62-.68-.91v18.48h-3.33V8.87Z"/>
        <path class="cls-1" d="M60.56,8.92h3.21c0,.37,0,.69,0,1.01,0,4.1-.05,8.2.03,12.3.02,1.3.22,2.64.61,3.87.71,2.23,2.46,3.28,5.01,3.27,2.52-.01,4.24-1.03,4.92-3.25.43-1.41.62-2.93.65-4.4.09-3.89.03-7.78.03-11.67,0-.35,0-.71,0-1.12h3.26c.02.31.05.6.05.89,0,4.13.07,8.26-.03,12.39-.04,1.65-.26,3.37-.78,4.92-1.18,3.54-4.35,5.36-8.53,5.18-4.95-.21-8.15-3.08-8.4-8.03-.25-4.98-.11-9.99-.13-14.99,0-.11.06-.22.1-.37Z"/>
        <path class="cls-1" d="M122.93,8.92h3.19c0,.37,0,.69,0,1.01,0,4.1-.05,8.2.03,12.3.02,1.3.23,2.64.62,3.87.71,2.24,2.45,3.29,5,3.28,2.52-.01,4.23-1.02,4.92-3.25.43-1.38.62-2.87.65-4.31.09-3.92.03-7.84.03-11.76v-1.12h3.25c.02.3.05.59.05.88,0,4.19.07,8.38-.03,12.57-.04,1.62-.27,3.3-.8,4.83-1.22,3.54-4.49,5.36-8.67,5.1-4.89-.31-7.95-3.07-8.22-8.01-.27-5.01-.11-10.05-.13-15.07,0-.08.06-.16.1-.29Z"/>
        <path class="cls-1" d="M119.67,12.59c-5.38-1.87-9.09-1.24-11.62,1.92-2.37,2.97-2.62,7.73-.54,10.97,1.29,2.02,3.13,3.27,5.49,3.71,2.3.44,4.51.03,6.76-.86.07,1,.17,1.91.18,2.82,0,.17-.29.44-.5.5-4.45,1.15-8.78,1.07-12.58-1.83-3.63-2.77-4.63-6.72-4.17-11.07.74-7.05,6.74-10.92,13.69-10.18,1,.11,1.98.43,2.97.66.45.1.61.37.54.85-.11.82-.15,1.66-.22,2.51Z"/>
        <path class="cls-1" d="M154.31,31.86h-3.34c0-.38,0-.7,0-1.02,0-2.6.02-5.21-.02-7.81,0-.47-.17-1.01-.43-1.4-2.61-3.94-5.26-7.86-7.89-11.78-.18-.27-.35-.53-.64-.97,1.33,0,2.48-.04,3.62.03.24.01.51.37.68.62,1.97,2.93,3.92,5.87,5.87,8.81.16.24.34.47.58.79.49-.75.92-1.41,1.36-2.08,1.63-2.51,3.27-5.01,4.87-7.54.31-.49.65-.69,1.23-.66.95.05,1.9.01,3.03.01-.24.4-.39.67-.56.93-2.63,3.93-5.27,7.85-7.87,11.8-.29.44-.46,1.04-.47,1.56-.04,2.87-.02,5.74-.02,8.7Z"/>
        <path class="cls-1" d="M61.49,52.34q1.69-.29,2.43,1.06c1.03,1.88,2.06,3.75,3.26,5.59v-6.71h1.29v8.75c-1.32.39-1.53.31-2.14-.81-1.09-1.99-2.19-3.98-3.45-5.95v6.74c-1.3.34-1.39.28-1.39-.85,0-2.6,0-5.2,0-7.83Z"/>
        <path class="cls-1" d="M71.31,39.62v6.9h-1.22v-8.81c1.52-.32,1.58-.29,2.3,1.03.89,1.63,1.78,3.25,2.68,4.88.14.25.29.49.62.7v-6.68h1.26v8.83c-1.47.3-1.51.28-2.19-.96-.95-1.73-1.9-3.46-2.86-5.19-.14-.25-.29-.48-.44-.73-.05.01-.11.03-.16.04Z"/>
        <path class="cls-1" d="M98.7,52.35c1.48-.34,1.65-.27,2.3.93.92,1.68,1.84,3.36,2.76,5.03.14.25.29.49.6.69v-6.72h1.25v8.79q-1.5.3-2.2-.98c-1.08-1.96-2.16-3.92-3.43-5.84v6.88h-1.29v-8.78Z"/>
        <path class="cls-1" d="M130.2,46.62v-9.12c1.42.1,2.81.05,4.13.32,2.07.42,3.32,2.23,3.25,4.36-.08,2.38-1.29,3.9-3.57,4.24-1.23.18-2.49.14-3.81.2ZM131.52,45.38c1.66,0,3.34.25,4.24-1.45.7-1.32.68-2.75-.24-3.99-1.01-1.36-2.5-1.29-4-1.18v6.62Z"/>
        <path class="cls-1" d="M88.72,56.83c.01-3.24,2.09-5.1,5.09-4.69,1.26.17,2.26.79,2.87,1.92.93,1.73.94,3.51.05,5.24-.82,1.61-2.71,2.36-4.7,1.96-1.81-.36-3.07-1.81-3.27-3.78-.03-.27-.03-.54-.03-.66ZM95.94,56.8c.02-2.11-1.1-3.53-2.83-3.57-1.51-.04-2.65.98-2.93,2.6-.35,2.06.44,3.77,1.97,4.23,2.08.63,3.77-.82,3.79-3.26Z"/>
        <path class="cls-1" d="M174.29,56.19c-.02,3.95-2.64,5.94-5.78,4.94-.42-.13-.84-.34-1.19-.6-2.29-1.71-2.22-6.1.15-7.7,1.46-.99,3.06-1.03,4.6-.26,1.68.85,2.21,2.41,2.22,3.62ZM167.06,56.99c.02.13.05.52.14.89.39,1.53,1.45,2.37,2.88,2.32,1.41-.05,2.55-1,2.69-2.52.09-.94-.03-1.97-.33-2.87-.36-1.08-1.32-1.58-2.48-1.58-1.75,0-2.91,1.41-2.9,3.76Z"/>
        <path class="cls-1" d="M124.73,52.11c1.46.13,2.94.08,4.33.43,2.17.54,3.23,2.46,2.97,4.87-.23,2.14-1.69,3.57-3.91,3.72-1.1.07-2.21.01-3.39.01v-9.03ZM125.98,60.03c1.65.03,3.31.26,4.23-1.39.72-1.3.72-2.73-.16-3.99-1-1.44-2.52-1.33-4.07-1.2v6.58Z"/>
        <path class="cls-1" d="M113.04,37.5c1.37.09,2.69.04,3.97.28,2.21.43,3.43,2.18,3.36,4.52-.07,2.28-1.32,3.72-3.58,4.13-.26.05-.53.1-.8.1-.95.01-1.91,0-2.94,0v-9.05ZM114.29,45.38c1.66,0,3.28.24,4.25-1.41.69-1.16.55-3.08-.26-4.07-1.07-1.31-2.52-1.23-4-1.14v6.62Z"/>
        <path class="cls-1" d="M102.86,46.46c-.98.25-1.61.15-1.89-.83-.17-.6-.49-1.15-.74-1.72-.59-1.32-.87-1.46-2.44-1.19v3.79h-1.25v-8.96c1.25.06,2.47.04,3.66.2,1.24.17,1.78.78,1.95,1.89.15,1.02-.25,1.72-1.31,2.3-.07.04-.14.1-.15.1.72,1.48,1.43,2.93,2.17,4.44ZM97.78,41.51c.82-.11,1.55-.1,2.19-.33.95-.34,1.15-1.62.32-2.04-.65-.32-1.48-.29-2.23-.38-.08,0-.26.24-.27.37-.03.73-.01,1.47-.01,2.38Z"/>
        <path class="cls-1" d="M129.26,46.48c-.94.29-1.54.02-1.74-.95-.21-1.01-.78-1.46-1.83-1.26-.26.05-.54.04-.8,0-1.52-.23-2.66.06-3.01,1.83-.05.28-.8.41-1.23.62-.06-.08-.11-.16-.17-.24.07-.21.11-.43.2-.64,1.07-2.53,2.16-5.05,3.22-7.58.19-.46.4-.72.96-.7.53.01.79.17.99.67,1.06,2.57,2.15,5.12,3.22,7.68.08.18.12.39.17.58ZM126.58,43.16c-.59-1.46-1.12-2.77-1.73-4.31-.63,1.58-1.16,2.89-1.72,4.31h3.46Z"/>
        <path class="cls-1" d="M78.17,61.1c-.83.27-1.46.14-1.65-.84-.22-1.12-.88-1.51-1.97-1.31-.26.05-.54.04-.8,0-1.44-.2-2.53.05-2.85,1.75-.15.81-.88.43-1.52.43.58-1.37,1.12-2.66,1.67-3.94.63-1.48,1.24-2.98,1.92-4.44.11-.25.51-.49.78-.5.32,0,.83.16.94.39,1.2,2.73,2.34,5.49,3.49,8.25.02.05,0,.12,0,.2ZM73.79,53.49c-.63,1.58-1.17,2.93-1.73,4.35h3.48c-.58-1.44-1.12-2.79-1.75-4.35Z"/>
        <path class="cls-1" d="M106.54,61.08c1.21-2.85,2.39-5.65,3.62-8.43.09-.21.5-.39.77-.4.3,0,.79.13.88.35,1.22,2.78,2.39,5.59,3.58,8.4-1.14.39-1.28.33-1.7-.69q-.54-1.34-2.03-1.34c-.69,0-1.38.05-2.06-.01-.66-.06-1,.2-1.14.81-.04.17-.16.33-.19.5-.2.91-.76,1.13-1.71.82ZM109.22,57.83h3.47c-.58-1.44-1.12-2.79-1.74-4.34-.63,1.57-1.17,2.92-1.73,4.34Z"/>
        <path class="cls-1" d="M149.81,52.27h1.29c0,1.5-.01,2.95,0,4.41,0,.6.03,1.2.14,1.78.23,1.2.97,1.78,2.13,1.75,1.13-.03,1.92-.69,2-1.9.11-1.67.08-3.35.1-5.02,0-.3,0-.59,0-.98h1.19c0,2.15.12,4.27-.04,6.37-.13,1.69-1.42,2.62-3.18,2.66-1.87.04-3.1-.77-3.44-2.46-.19-.92-.16-1.9-.18-2.85-.03-1.22,0-2.45,0-3.76Z"/>
        <path class="cls-1" d="M61.3,37.62h1.25c0,1.25,0,2.47,0,3.68,0,.72,0,1.44.09,2.15.18,1.45.84,2.08,2.09,2.09,1.26,0,2-.63,2.11-2.06.12-1.55.08-3.11.1-4.66,0-.38,0-.76,0-1.19h1.19c.03.12.1.26.1.39,0,1.71.05,3.41-.01,5.12-.1,2.67-1.91,4.04-4.48,3.45-1.42-.32-2.34-1.33-2.43-3.05-.11-1.93-.03-3.88-.03-5.92Z"/>
        <path class="cls-1" d="M95.08,37.64v1.06h-3.61v2.6h3.26v1.13h-3.24v2.94h3.58v1.13h-4.9v-8.86h4.92Z"/>
        <path class="cls-1" d="M134.83,55.96h3.28v1.14h-3.28v2.92h3.61v1.1h-4.92v-8.85h4.95c.01.34.03.65.05,1.06h-3.67v2.63Z"/>
        <path class="cls-1" d="M80.97,37.67c.97-.31,1.45,0,1.76.99.66,2.14,1.47,4.23,2.22,6.33.02.05.06.1.17.27.39-1.07.75-2.07,1.11-3.06.44-1.21.93-2.4,1.29-3.62.27-.91.75-1.2,1.71-.89-.3.8-.59,1.61-.89,2.41-.76,1.98-1.54,3.95-2.26,5.94-.19.53-.53.56-.97.54-.43-.02-.85.1-1.08-.51-.98-2.69-2.01-5.37-3.01-8.05-.04-.11-.04-.23-.05-.34Z"/>
        <path class="cls-1" d="M103.79,45.26c.64.09,1.29.25,1.93.26.73,0,1.36-.3,1.55-1.1.18-.76-.22-1.26-.85-1.61-.55-.3-1.12-.56-1.67-.87-.92-.52-1.37-1.31-1.25-2.38.12-1.02.79-1.77,1.91-1.99.6-.12,1.25-.12,1.86-.05,1.11.14,1.1.18.77,1.28-.61-.07-1.23-.18-1.84-.18-.6,0-1.25.22-1.24.89,0,.44.35.98.7,1.29.43.38,1.05.56,1.56.86,1.2.7,1.66,1.63,1.45,2.91-.18,1.1-.96,1.83-2.31,2.03-.58.09-1.19.07-1.77-.02-1.07-.16-1.09-.24-.8-1.33Z"/>
        <path class="cls-1" d="M84.88,53.64c-1.78-.67-3.37-.61-4.58.97-.87,1.14-.86,2.95-.06,4.15.91,1.37,2.26,1.71,4.59,1.15.35,1.11.24,1.28-.88,1.4-2.92.32-4.96-.92-5.54-3.36-.88-3.71,2.28-6.74,5.95-5.7q.71.2.52,1.4Z"/>
        <path class="cls-1" d="M148.67,53.64c-1.78-.68-3.37-.6-4.57.97-.86,1.12-.83,2.97-.04,4.15.91,1.36,2.28,1.7,4.59,1.13.35,1.16.27,1.29-.89,1.41-3.87.41-6.37-2.21-5.55-5.77.68-2.94,3.65-3.94,6.13-3.24.54.15.53.19.34,1.34Z"/>
        <path class="cls-1" d="M162.4,61.15h-1.3c0-.97.05-1.92-.02-2.86-.04-.51-.19-1.06-.46-1.48-.94-1.49-1.94-2.93-2.97-4.46.84-.22,1.46-.24,1.94.59.63,1.08,1.37,2.09,2.16,3.28.71-1.1,1.43-2.07,2.01-3.12.46-.83,1.05-1.05,2.04-.75-.57.86-1.05,1.74-1.68,2.5-1.36,1.64-2.07,3.44-1.73,5.59.03.2,0,.41,0,.72Z"/>
        <path class="cls-1" d="M116.3,61.11v-8.83c.39-.02.76-.03,1.26-.06v7.8h3.68c.03.39.05.7.07,1.09h-5.01Z"/>
        <path class="cls-1" d="M86.14,52.28h1.21v8.85h-1.21v-8.85Z"/>
        <path class="cls-1" d="M80.04,46.54h-1.15v-8.88h1.15v8.88Z"/>
        <path class="cls-1" d="M111.15,46.52h-1.17v-8.86h1.17v8.86Z"/>
        <path class="cls-1" d="M6.65,16.83c-.1.27-.17.56-.32.81C-.8,29.19-.08,45.4,8.36,55.98c.07.09.13.2.19.3-.26-.23-.57-.41-.77-.68-3.78-5.04-5.82-10.73-6.38-16.98-.63-7.1.67-13.81,4.14-20.07.33-.6.74-1.15,1.11-1.72Z"/>
        <path class="cls-1" d="M13.01,60.76c.21.08.46.12.64.25,9.28,6.54,20.83,4.9,28.6-3.58.28-.31.58-.6.87-.9-.1.21-.15.45-.3.61-4.79,5.32-10.62,8.4-17.93,8.09-4.42-.19-8.4-1.7-11.88-4.47Z"/>
        <path class="cls-1" d="M47.23,50.19c.1-.31.18-.62.3-.92,4.2-10.31,3.87-20.43-1.27-30.35-.13-.26-.19-.55-.29-.82,1.56,2.33,2.56,4.92,3.3,7.6,2.21,8.03,1.74,15.91-1.51,23.6-.13.32-.35.6-.53.89Z"/>
        <path class="cls-1" d="M37.47,9.03c-.27-.1-.56-.16-.81-.3-7.77-4.49-16.62-3.92-23.76,1.55-.28.21-.59.37-.89.56.06-.1.09-.22.18-.29,7.39-6.07,17.11-6.78,25.09-1.7.07.05.12.13.18.19Z"/>
        <path class="cls-1" d="M12.05,10.81c-.43.44-.88.86-1.28,1.32-1.27,1.45-2.52,2.91-3.77,4.37.06-.19.08-.42.2-.56,1.48-1.66,2.97-3.3,4.47-4.95.09-.1.25-.12.38-.18Z"/>
        <path class="cls-1" d="M44.37,55.12c.15-.31.28-.64.46-.94.8-1.35,1.62-2.69,2.44-4.04-.96,1.66-1.93,3.32-2.89,4.97Z"/>
        <path class="cls-1" d="M42.86,13.7c-.91-.84-1.81-1.69-2.72-2.53.91.84,1.81,1.69,2.72,2.53Z"/>
        <path class="cls-1" d="M41.67,51.35c.09-.24.14-.5.26-.73,5.83-10.81,5.65-21.45-.92-31.9-.11-.17-.17-.37-.25-.55.47.64,1.03,1.23,1.41,1.92,5.57,10.17,5.58,20.36.02,30.55-.14.26-.35.48-.53.71Z"/>
        <path class="cls-1" d="M11.5,17.54c-.11.23-.18.49-.33.7-4.02,5.62-5.64,11.92-5.32,18.78.22,4.68,1.5,9.06,3.76,13.15-.19-.2-.45-.37-.57-.61-5.15-10.66-4.79-21.02,1.66-31.06.22-.35.52-.64.79-.96Z"/>
        <path class="cls-1" d="M11.21,52.85c.28.24.59.46.83.73,2.83,3.32,6.25,5.74,10.59,6.62,5.26,1.07,9.93-.34,14.1-3.6.32-.25.67-.47,1-.71-.16.2-.3.43-.49.59-6.49,5.56-15.35,5.78-22.04.44-1.48-1.18-2.67-2.71-3.99-4.08Z"/>
        <path class="cls-1" d="M36.84,14.07c-.18-.09-.38-.16-.54-.27-6.49-4.67-13.34-4.83-20.09-.48-.07.05-.16.08-.24.13.11-.16.18-.37.33-.47,6.41-4.34,14.23-3.99,20.35.81.08.07.12.19.18.29Z"/>
        <path class="cls-1" d="M6.72,46.91c.8.75-.11,1.17-.63,1.77.73.17,1.8-.35,1.78.95-.83,0-1.59.21-2.14,1.08-.18-.4-.33-.74-.45-1.01.5-.13.97-.25,1.43-.37-.02-.07-.03-.14-.05-.2-.47.04-.95.08-1.47.13-.26-.49-.52-.99-.7-1.32.77-.35,1.46-.67,2.24-1.03Z"/>
        <path class="cls-1" d="M5.62,24.28h1.05c-.11.33-.24.7-.3.88-.78-.28-1.49-.53-2.33-.83.07-.2.21-.64.38-1.06.35-.88.54-.89,1.3-.29.22.17.57.17.9.25-.03-.21-.05-.34-.07-.53.15.07.31.09.34.16.07.2.16.45.1.63-.04.12-.32.19-.51.23-.3.06-.62.08-.92.12l.06.44Z"/>
        <path class="cls-1" d="M29.23,63.83c-.24-.85-.45-1.58-.67-2.37.2-.06.62-.21,1.06-.31.88-.21,1.02-.04,1.02.89,0,.27.33.55.51.82.11-.02.23-.04.34-.06-.16.2-.28.51-.48.58-.14.05-.4-.22-.58-.37-.22-.18-.41-.39-.61-.59-.1.09-.19.17-.29.26.18.28.36.56.57.9-.31.09-.67.19-.86.25Z"/>
        <path class="cls-1" d="M38.21,56.91c.2-.16.46-.35.6-.46.45.69.87,1.34,1.35,2.08-.85.58-1.47-.35-2.43-.29.46.45.82.81,1.22,1.21-.15.12-.42.34-.56.45-.49-.66-.96-1.29-1.49-2,.58-.97,1.42.02,2.5.11-.5-.46-.82-.75-1.21-1.1Z"/>
        <path class="cls-1" d="M2.33,36.57c-.4-1.12.78-1.21,1.24-1.94-.4.07-.8.14-1.24.22v-.74c.63.04,1.22.06,1.81.12.2.02.4.16.59.24-.12.19-.19.43-.36.55-.38.28-.8.51-1.16.97.48-.05.97-.09,1.49-.15v.73h-2.38Z"/>
        <path class="cls-1" d="M20.59,9.88c-.21.06-.54.15-.65.18-.23-.82-.43-1.56-.65-2.34q.39-.19,2.27.92c-.31-.59-.52-.97-.74-1.4.23-.07.55-.16.76-.22.14.67.27,1.27.38,1.88.03.18-.01.38-.02.57-.21-.04-.48-.02-.63-.14-.42-.32-.79-.71-1.36-.95.2.46.4.92.65,1.5Z"/>
        <path class="cls-1" d="M35.7,9.01c1.08.25.45,1.33.72,2.38.27-.61.45-1,.66-1.48.19.12.47.3.76.48-.14-.11-.28-.21-.42-.32-.15.38-.27.78-.46,1.14-.19.36-.44.69-.72,1.1-.91-.62-.15-1.56-.66-2.35-.24.54-.43.98-.66,1.51-.16-.1-.44-.28-.62-.39.45-.67.88-1.31,1.39-2.08Z"/>
        <path class="cls-1" d="M8.63,55.1c-.19-.25-.39-.51-.48-.63.65-.49,1.26-.94,1.99-1.48.98.55-.01,1.4.06,2.29.28-.31.57-.62.91-1.01.14.18.37.47.49.63-.7.44-1.35.84-2.09,1.3-.62-.82.37-1.47.27-2.47-.58.36-1.02.64-1.46.91.1.15.2.3.3.45Z"/>
        <path class="cls-1" d="M44.87,53.07c-.77-.41-1.43-.76-2.21-1.18.08-1.11,1.33-.55,2.29-.98-.62-.18-1.02-.31-1.49-.45.12-.23.28-.53.37-.7.57.36,1.09.67,1.58,1.02.17.12.27.33.4.5-.2.1-.38.27-.59.29-.47.06-.94.05-1.41.07-.02.08-.04.17-.06.25.44.17.89.34,1.43.55-.07.14-.23.46-.3.6Z"/>
        <path class="cls-1" d="M10.53,57.32c.61-.62,1.14-1.15,1.71-1.73.38.48,1.42.83,1.19,1.91-.08.4-.59.91-.99,1-1.04.24-1.4-.78-1.92-1.18ZM11.18,57.51c.6.77,1.09.67,1.57.12.49-.56.31-.99-.22-1.3-.47.41-.89.77-1.35,1.17Z"/>
        <path class="cls-1" d="M37.04,59.7c.17.25.34.51.56.84-.7.43-1.35.82-1.88,1.14-.41-.72-.78-1.39-1.22-2.16.42-.26,1.06-.66,1.77-1.1.19.29.34.53.46.72-.5.04-.99.07-1.67.12.27.41.38.59.58.89.11-.34.18-.55.3-.9.25.41.44.72.7,1.15-.34-.07-.55-.11-.75-.15-.04.08-.09.17-.13.25.22.13.58.42.63.37.23-.21.38-.51.53-.79.04-.08,0-.21-.02-.32.05-.02.09-.04.14-.06Z"/>
        <path class="cls-1" d="M8.02,53.12c-.07.04-.3.2-.65.43-.4-.72-.77-1.38-1.07-1.93.74-.39,1.42-.75,2.2-1.16.24.43.61,1.09,1.02,1.82-.28.17-.52.31-.67.4-.08-.47-.14-.91-.25-1.33,0-.03-.41.04-.64.26.2.09.4.18.71.32-.37.22-.69.4-1.13.66.07-.35.12-.56.16-.76-.06-.04-.11-.09-.17-.13-.17.17-.35.34-.52.52.33.29.66.58,1.02.9Z"/>
        <path class="cls-1" d="M6.09,26.04c-.24.87-.43,1.58-.56,2.08-.82-.23-1.57-.43-2.39-.66.13-.49.32-1.2.54-2.03.32.08.6.14.83.2-.37.4-.68.75-1.1,1.2.41.14.6.21.89.31-.06-.31-.1-.54-.16-.84.38.1.71.19,1.15.32-.29.2-.47.32-.64.44,0,.06.02.12.03.18h.74c-.03-.43-.07-.85-.11-1.35.1.02.39.08.77.16Z"/>
        <path class="cls-1" d="M46.35,24.78c-.17.08-.42.19-.79.36-.32-.75-.61-1.45-.82-1.96.78-.34,1.47-.65,2.26-.99.2.47.5,1.16.84,1.93-.28.15-.53.27-.71.36-.04-.5-.08-.96-.12-1.42-.21.02-.41.04-.88.08.41.27.59.39.86.58-.39.17-.71.31-1.18.52.13-.36.2-.55.33-.92-.38.13-.61.21-1.11.39.53.43.89.72,1.31,1.07Z"/>
        <path class="cls-1" d="M45.46,19.05c.23.59,1.1,1.25.55,2.17-.21.36-1.02.77-1.21.65-.67-.44-1.19-1.11-1.7-1.63.89-.45,1.58-.79,2.36-1.18ZM43.88,20.56c.27.85.75.98,1.4.6.61-.37.69-.82.13-1.41-.5.27-.98.53-1.53.82Z"/>
        <path class="cls-1" d="M13.77,13.63c-.53-.68-.99-1.28-1.51-1.95.51-.3.99-1.2,1.96-.96.39.1.87.64.95,1.04.22,1.15-.97,1.33-1.4,1.87ZM12.97,11.58c.38.49.72.94,1.07,1.39.75-.37.85-.85.37-1.45-.45-.57-.92-.58-1.45.06Z"/>
        <path class="cls-1" d="M9.86,18.03c-.7-.51-1.32-.96-1.98-1.44.46-.44.64-1.56,1.78-1.44.39.04.92.43,1.07.79.41,1-.53,1.53-.87,2.09ZM10.17,17.5c.06-.58.25-1.01.1-1.23-.19-.31-.62-.56-.98-.63-.22-.04-.52.31-.87.55.61.45,1.05.79,1.75,1.31Z"/>
        <path class="cls-1" d="M34.35,60.99c.04.48.08.85.12,1.27-.63.25-1.23,1.05-2.01.38-.35-.3-.61-.93-.58-1.39.07-1.03,1.03-.95,1.82-1.15.08.25.16.51.27.85-.2-.04-.3-.04-.36-.08-.4-.3-.94-.51-1.07.08-.1.43.28.98.51,1.45.02.05.45-.1.69-.16-.09-.27-.18-.55-.3-.9.22-.08.57-.22.9-.34Z"/>
        <path class="cls-1" d="M49.47,33.51c.02.15.05.43.09.72-.52-.03-1-.09-1.47-.06-.73.05-1.16-.23-1.19-.98-.03-.72.37-.99,1.06-1.01.44-.01.88-.15,1.42-.25.01.23.03.58.04.83-.62,0-1.19-.03-1.74.02-.15.02-.37.33-.36.49.02.17.28.46.42.45.55-.02,1.1-.13,1.72-.21Z"/>
        <path class="cls-1" d="M15.97,59.17c0,.71-.61,1.32-1.3,1.32-.75,0-1.39-.62-1.39-1.34,0-.74.56-1.31,1.29-1.31.76,0,1.41.61,1.4,1.33ZM14.31,60.22c.13,0,.25.02.38.03.25-.42.6-.82.71-1.28.05-.18-.42-.49-.65-.74-.32.38-.73.72-.92,1.15-.08.17.31.56.48.84Z"/>
        <path class="cls-1" d="M47.23,48.01c-.1.27-.22.59-.34.9-.25-.1-.47-.19-.69-.27-.07.22-.13.44-.2.66.2.04.39.08.7.14-.12.29-.24.59-.35.86-.56-.51-1.08-.96-1.57-1.45-.14-.14-.19-.38-.28-.58.2-.08.4-.23.61-.24.67-.03,1.35-.01,2.13-.01Z"/>
        <path class="cls-1" d="M27.91,64.07h-.97v-.69c-.23.01-.45.02-.68.03.01.22.03.44.04.7h-.84c.26-.7.5-1.38.77-2.05.07-.16.26-.37.4-.37.14,0,.35.2.42.35.29.64.55,1.29.86,2.03Z"/>
        <path class="cls-1" d="M37.58,13.38c-.24-.22-.46-.41-.68-.61.65-.33,1.25-.66,1.87-.95.19-.09.43-.08.65-.12.02.24.1.51.04.73-.18.64-.42,1.27-.66,1.99-.25-.21-.53-.45-.83-.69.22-.17.4-.3.57-.43-.19-.17-.38-.33-.58-.5-.11.17-.22.34-.38.6Z"/>
        <path class="cls-1" d="M25.39,9.08c-.29.03-.64.07-1,.11.03-.26.06-.48.09-.69-.27-.02-.54-.03-.95-.06.16.34.24.53.35.76h-.91c.22-.69.42-1.39.66-2.06.06-.17.24-.39.38-.4.14-.01.35.18.43.34.32.62.61,1.27.95,2Z"/>
        <path class="cls-1" d="M32.72,7.77c.76-.02,1.41.57,1.43,1.3.01.74-.55,1.35-1.25,1.37-.75.02-1.42-.59-1.44-1.31-.02-.72.56-1.34,1.27-1.36ZM33.91,9.06c-.42-.43-.62-.84-.89-.88-.74-.11-.96.53-.99,1.08-.02.26.38.55.59.82.37-.3.75-.59,1.29-1.02Z"/>
        <path class="cls-1" d="M12.06,15.32c-.25.25-.47.48-.69.71-.31-.69-.59-1.29-.84-1.9-.09-.22-.09-.48-.12-.73.27.01.56-.03.81.05.61.2,1.2.45,1.87.71-.2.21-.44.48-.67.73-.22-.18-.39-.34-.57-.49-.14.18-.28.36-.43.54.17.1.34.2.64.37Z"/>
        <path class="cls-1" d="M19.22,62.18c.06.46.09.64.13.91-.38-.15-.68-.27-.93-.37.51-.56.99-1.11,1.5-1.62.12-.13.38-.26.51-.21.13.05.24.32.25.49.03.7.01,1.41.01,2.2-.23-.08-.56-.2-.92-.33.15-.22.26-.39.37-.55-.23-.13-.47-.27-.91-.52Z"/>
        <path class="cls-1" d="M2.36,38.55c-.01-.19-.03-.51-.05-.69.49,0,.94.04,1.37,0,.72-.09,1.18.11,1.25.89.06.72-.28,1.03-.99,1.08-.45.03-.88.19-1.42.31-.03-.25-.07-.61-.1-.9.61,0,1.16.03,1.71-.02.15-.02.41-.37.38-.46-.08-.2-.33-.46-.51-.46-.53.02-1.05.16-1.64.26Z"/>
        <path class="cls-1" d="M49.45,39.53c.01.81-.54,1.38-1.32,1.37-.75-.01-1.26-.54-1.28-1.32-.01-.8.55-1.39,1.32-1.37.74.01,1.27.56,1.28,1.33ZM48.11,40.67c.48-.51.76-.81,1.04-1.11-.31-.24-.58-.61-.93-.7-.47-.12-1.05.06-1.01.66.02.33.47.63.9,1.15Z"/>
        <path class="cls-1" d="M6.22,19.62c.21.1.41.2.72.36-.49.3-1.29.32-1.01,1.09.12.12.25.24.37.35.14-.29.21-.68.43-.83.32-.22.84-.45,1.12-.33.55.24.39.79.14,1.23-.16.28-.37.52-.58.81-.22-.11-.46-.22-.86-.42.68-.22,1.39-.3,1.18-1.37-.34.31-.54.57-.81.7-.35.17-.76.23-1.14.33-.02-.43-.09-.86-.03-1.28.03-.23.29-.42.47-.66Z"/>
        <path class="cls-1" d="M15.57,61.32c.87-.43,1.54-.77,2.22-1.11,0-.08-.02-.17-.03-.25-.38.02-.76.04-1.2.06.07-.15.18-.42.34-.78.63.33,1.19.62,1.96,1.02-.87.44-1.56.78-2.25,1.13l.06.3c.41-.05.83-.1,1.3-.16-.08.18-.21.47-.38.85-.65-.35-1.24-.65-2.01-1.06Z"/>
        <path class="cls-1" d="M47.09,36.95v-1.33c1.1,1.04,1.61-.24,2.42-.52v1.06c-.33.03-.61.06-.9.09,0,.1-.02.2-.03.3.29.07.59.14.95.23-.01.23-.03.54-.04.89-.83-.3-1.24-1.68-2.4-.73Z"/>
        <path class="cls-1" d="M2.9,28.52c.55.36,1.05.66,1.52,1.01.26.19.46.47.68.71-.28.13-.54.29-.83.38-.56.16-1.14.27-1.78.42.06-.35.12-.71.15-.94h1.53c.02-.08.04-.15.07-.23-.43-.18-.86-.35-1.46-.59.01-.07.07-.4.13-.75Z"/>
        <path class="cls-1" d="M40.61,55.34c.54.41,1.08.81,1.66,1.25-.16.17-.43.46-.58.63-.5-.54-.97-1.05-1.43-1.55-.08.05-.16.09-.23.14.05.27.09.53.17.99-.33-.28-.55-.47-.84-.72.53-.57,1.01-1.09,1.56-1.68.25.22.48.42.85.75-.47-.04-.75-.06-1.03-.08-.05.09-.09.19-.14.28Z"/>
        <path class="cls-1" d="M47.57,31.09c-.61.08-.93-.36-1.02-1.01-.09-.65.45-1.21,1.19-1.3.93-.11,1.23.28,1.5,1.94-.27.06-.55.11-.98.2.33-.55,1.01-1.1.21-1.44-.37-.16-.98.25-1.48.4.18.38.36.76.57,1.21Z"/>
        <path class="cls-1" d="M28.41,6.93c-.03.27-.05.52-.09.88-.45-.36-.75-1.24-1.32-.57-.26.31-.07,1.01-.08,1.54.4-.06.8-.11,1.3-.19-.14.16-.34.57-.55.58-.43.02-1.13-.06-1.25-.32-.22-.47-.3-1.19-.08-1.63.46-.91,1.3-.49,2.08-.3Z"/>
        <path class="cls-1" d="M41.26,13.32c.32.38.57.67.73.86-.6.4-1.15.78-1.71,1.15l-.03.34c.41.14.83.27,1.3.43-.15.14-.38.35-.66.6-.51-.59-.97-1.13-1.45-1.69.88-.28,1.57-.65,1.82-1.69Z"/>
        <path class="cls-1" d="M7.05,17.85c.74.44,1.4.84,2.13,1.27-.1.16-.29.47-.39.62-.7-.46-1.35-.87-2.08-1.34.07-.12.26-.43.34-.55Z"/>
        <path class="cls-1" d="M2.32,32.86c0-.17.02-.52.03-.73.81.08,1.58.16,2.35.24.04-.09.08-.17.13-.26-.02.36-.04.72-.05.91-.85-.06-1.63-.11-2.46-.17Z"/>
        <path class="cls-1" d="M43.53,55.07c-.73-.51-1.34-.95-2.02-1.42.09-.14.31-.44.39-.56.69.49,1.32.93,2.02,1.43-.07.11-.28.41-.39.56Z"/>
        <path class="cls-1" d="M30.07,7.04c.16.04.5.11.7.16-.19.79-.38,1.55-.58,2.38-.13-.03-.49-.1-.64-.13.17-.81.33-1.54.52-2.4Z"/>
        <path class="cls-1" d="M40.79,18.2c-1.33-1.39-2.66-2.78-3.98-4.16,1.65,1.08,2.96,2.48,3.98,4.16Z"/>
        <path class="cls-1" d="M37.71,55.93l3.62-4.25c-.2.38-.33.83-.62,1.14-.97,1.06-2,2.08-3,3.12Z"/>
        <path class="cls-1" d="M13.42,28.08c.6-.21.96-.33,1.31-.45-.82.08-1.67.36-2.42-.57.6-.04,1.09-.07,1.57-.09,0-.05,0-.1,0-.14-.26,0-.51.02-.77,0-.3-.02-.6-.03-.88-.12-.26-.09-.49-.28-.68-.57h1.2c-.76-.23-1.67-.05-2.17-.95,2.78-.08,5.5-.16,7.75,1.98.05-.46.07-.69.09-.94-.68-.27-1.39-.56-2.08-.84,1.25-.54,3.42-.2,4.38.7.53.49,1.02,1.01,1.58,1.46,1.16.92,1.96,2.01,2.25,3.53.24,1.27.74,1.34,1.66.42.04-.04.09-.08.12-.13,2.03-2.61,1.36-1.69,4.7-2.21,1.78-.28,3.36,0,5.03.61,1.49.55,2.72,1.63,4.31,1.94.9.18,1.8.39,2.7.58.22.05.43.08.84.16-1.24,1.14-2.37.36-3.51.36.83.21,1.65.42,2.47.62q-.34.7-3.22-.09c.32.32.9.88,1.47,1.45-.09.11-.18.23-.27.34-1.19.35-1.57-1.29-2.72-1.26.58.5,1.11.95,1.64,1.41-.04.07-.07.14-.11.21-.56-.12-1.12-.23-1.79-.38.27.29.46.5.78.86-2.07-.18-3.07-2.08-4.89-2.4v.71c-.52-.27-.93-.47-1.39-.71.03.19.05.37.1.77-.58-.24-1.05-.39-1.48-.61-.45-.23-.85-.72-1.29-.73-.33-.01-.68.54-1.06.87.44.69.89,1.36,1.28,2.05.12.2.08.5.12.75-.22,0-.48-.09-.65,0-.57.29-.94.08-1.24-.42-.28,0-.49,1.05-.7.34-.56-.08-.97-.15-1.44-.22.16-.36.28-.62.39-.87-.86.1-1.67.2-2.29.28v-2.22c-.08-.04-.16-.08-.25-.12.21-.11.42-.22.63-.33-.04-.05-.08-.1-.11-.15-.6.35-1.19.69-1.79,1.04-.04-.07-.09-.13-.13-.2.38-.24.76-.49,1.2-.76-.34-.28-.45-.78-1.1-.66-.19.03-.47-.48-.73-.76-.03.06-.13.25-.28.54-.41-.62-.66-1.32-1.15-1.69-.49-.37-1.22-.5-1.87-.59-.82-.12-1.67-.1-2.5-.13l-.03-.31c.37-.17.74-.34,1.24-.57-.8,0-1.45.08-2.07-.03-.54-.1-1.04-.41-1.78-.72ZM27.29,31.11c.68-.3,1.34-.69,2.05-.88,1-.27,2.04-.4,3.06-.59-1.18.03-2.36.14-3.53.2-.86.05-1.4.42-1.55,1.29-.81.71-1.63,1.42-2.47,2.16.16.09.38.21.54.31.34-.39.65-.7.92-1.06.35-.46.66-.95.99-1.42ZM34.7,31.25c.02-.07.05-.13.07-.2-.26-.13-.5-.31-.78-.37-.23-.05-.5.13-.74.09-.29-.05-.55-.23-.97-.42.25.33.39.51.46.6h-2.7c0,.1,0,.19,0,.29h4.66ZM21.77,28.06c.74,1.21,1.48,2.44,2.23,3.67.1-.07.2-.13.3-.2-.88-1.15-.83-2.9-2.52-3.47ZM18.6,27.27c.49.52.91.84,1.14,1.26.35.61.84.65,1.26.62-.52-.63-1.09-1.31-1.75-2.11-.06.02-.3.11-.66.24Z"/>
        <path class="cls-1" d="M35.07,56.08c-2.7.29-5.4.67-8.11.84-1.42.09-2.85-.16-4.28-.29-1.64-.15-3.27-.36-4.91-.5-.66-.06-.93-.27-.93-.98,0-3.11-.07-6.22-.12-9.33,0-.57.07-.83.79-1.07,2.63-.89,5.05-.14,7.51.61.47.14,1.03.1,1.53.02,1.91-.31,3.8-.74,5.71-.96.79-.09,1.64.21,2.45.4.15.03.33.35.33.53.02,3.59,0,7.18,0,10.76l.03-.03ZM17.95,55.19c.21.14.42.36.65.39,2.04.25,4.09.48,6.14.7.27.03.54,0,.81,0,.02-.1.04-.2.06-.3-.94-.3-1.86-.69-2.82-.88-1.62-.32-3.27-.75-4.87.12.17-.36.49-.71.49-1.07,0-2.48-.05-4.97-.1-7.45-.01-.55-.09-1.09-.14-1.64-.09-.02-.17-.05-.26-.07-.17.31-.48.61-.48.92,0,2.93.05,5.87.11,8.8,0,.16.27.32.41.48ZM18.44,54.13c2.69.53,5.03.98,7.23,1.41,0-2.98.01-6.06-.02-9.14,0-.2-.3-.53-.51-.59-1.61-.43-3.22-.94-4.86-1.17-1.85-.25-1.9-.09-1.84,1.72,0,.12,0,.24,0,.36,0,2.54,0,5.08,0,7.4ZM33.4,54.82v-10.02c-2.38-.18-4.58.12-6.72.9-.5.18-.68.45-.67.99.06,2.39.07,4.79.1,7.18.01.64.06,1.27.09,1.99,2.4-.86,4.71-1.38,7.19-1.04ZM34.26,55.22c.09-.05.18-.11.28-.16,0-3.05.02-6.09-.02-9.14,0-.31-.33-.61-.51-.91-.08.04-.16.08-.23.12,0,3.11-.01,6.21.02,9.32,0,.26.31.52.47.78ZM34.29,55.58c-1.42-1.06-6.65-.54-7.78.8,2.64-.27,5.12-.52,7.78-.8Z"/>
        <path class="cls-1" d="M35.04,56.11c2.96-1.93,5.08-4.61,6.7-7.7,3.5-6.67,4.08-13.65,2.17-20.89-.07-.26-.14-.52-.21-.78,0-.02.02-.05.1-.29.2.63.36,1.1.49,1.58.13.49.25.99.34,1.49,1.43,7.81.29,15.14-4.26,21.76-2.77,4.03-6.48,6.89-11.38,7.86-5.74,1.13-10.64-.71-14.78-4.67-4.11-3.94-6.3-8.88-7.19-14.43-.77-4.78-.37-9.48,1.18-14.07.08-.22.17-.44.41-.61-.07.24-.13.49-.21.73-1.84,5.57-2.12,11.23-.49,16.87,1.63,5.63,4.48,10.54,9.64,13.69,5.56,3.4,11.21,3.33,16.8,0,.25-.15.48-.36.71-.53,0,0-.03.03-.03.03Z"/>
        <path class="cls-1" d="M20.85,36.64c-.62-.99-.52-1.36.67-2.48.61.03,1.07.03,1.52.1.22.03.43.19.64.29-.13.21-.21.5-.4.62-.79.52-1.62.98-2.44,1.47Z"/>
        <path class="cls-1" d="M20.54,50.32v-2.15c.45.28.77.48,1.1.68-.19.27-.39.54-.59.81-.12.17-.26.33-.51.65Z"/>
        <path class="cls-1" d="M19.62,50.93c.07,0,.35-.02.54-.03-.06.63-.12,1.21-.18,1.8-.05,0-.1,0-.15,0-.07-.59-.14-1.17-.22-1.77Z"/>
        <path class="cls-1" d="M21.93,46.99c.03-.47.04-.7.05-.94,0,0,.02,0,.03,0v1.49c-.58-.67-1.04-1.2-1.5-1.72.07-.06.13-.13.2-.19.35.39.7.79,1.22,1.36Z"/>
        <path class="cls-1" d="M26.84,48.3v-1.76s.1-.02.15-.03c.06.25.11.49.17.74.06.02.12.05.18.07.12-.28.24-.57.4-.97.06.19.16.36.14.51-.02.19-.22.38-.19.55.04.2.23.37.26.65-.24-.17-.47-.35-.79-.58-.05.31-.1.58-.14.84h-.18Z"/>
        <path class="cls-1" d="M31.73,50.87c.29.77.52,1.38.77,2.06-.46-.23-.84-.42-1.27-.64.11-.32.28-.78.5-1.42Z"/>
        <path class="cls-1" d="M30.16,45.59c.18.12.35.25.55.39.14-.15.27-.29.5-.53.16.71.29,1.32.43,1.93-.08.02-.16.04-.24.06l-.36-1.09c-.05.06-.11.12-.16.19-.3-.23-.6-.47-.9-.7.06-.08.13-.17.19-.25Z"/>
        <path class="cls-1" d="M30.1,53.21v-2.06c.18-.01.43-.03.7-.04-.89.45-.19,1.34-.7,2.11Z"/>
        <path class="cls-1" d="M27.55,53.7c-.3-.74-.52-1.29-.73-1.83.1-.04.2-.07.3-.11.11.61.98.94.43,1.94Z"/>
      </g>
    </g>
  </g>
</svg>