<?xml version="1.0" encoding="UTF-8"?>
<svg id="Capa_2" data-name="Capa 2" xmlns="http://www.w3.org/2000/svg" viewBox="0 0 263.56 69.5">
  <defs>
    <style>
      .cls-1 {
        fill: #333;
        stroke-width: 0px;
      }
    </style>
  </defs>
  <g id="Capa_1-2" data-name="Capa 1">
    <g>
      <path class="cls-1" d="M53.43,68.92h-10.67c-.66-7.07-3.53-12.77-10.71-16.03v15.98h-10.7v-15.93c-7.12,3.3-9.98,8.9-10.65,16.01H.58c-2.45-9.98,6.67-22.55,20.29-28.4H.34v-11.46h20.42C7.51,24.18,1.03,14.57,0,.58h10.69c.54,7.05,3.55,12.62,10.61,15.92V.59h10.6v15.53c5.65-1.14,9.63-6.96,10.78-15.56,3.37,0,6.77,0,10.17,0,2.26,9.95-6.49,22.05-20.27,28.42,3.37,0,6.75,0,10.12,0s6.72,0,10.29,0v11.33h-20.44c13.3,4.88,19.84,14.46,20.87,28.61Z"/>
      <path class="cls-1" d="M160.09,69.03h-4.96v-18.27c3.77-1.09,4.58-.79,6.64,2.48,1.38,2.19,2.76,4.38,4.54,7.21v-9.89h5.11v18.22c-4.4.91-4.7.79-6.98-2.78-1.22-1.91-2.43-3.82-3.66-5.72-.08-.12-.25-.19-.7-.51v9.27Z"/>
      <path class="cls-1" d="M121.48,25.65c3.15-.82,5.43-.31,6.88,2.87,1.02,2.24,2.6,4.22,4.33,6.96v-9.88h5.02v18.16c-3.79,1.08-4.68.78-6.63-2.28-1.4-2.19-2.77-4.39-4.16-6.59-.04-.06-.14-.07-.52-.26v9.37h-4.92v-18.35Z"/>
      <path class="cls-1" d="M104.02,18.92c-3.24.79-5.61.29-7.04-3.03-.94-2.18-2.5-4.09-4.25-5.98v9.07h-5.02V.68c4.49-.82,4.66-.75,6.87,2.7,1.31,2.05,2.6,4.11,3.91,6.17.03.05.14.07.47.22V.59h5.07v18.32Z"/>
      <path class="cls-1" d="M78.89,59.59v-9.05h4.92v18.19c-3.84,1.06-4.63.76-6.66-2.47-1.3-2.06-2.61-4.11-3.94-6.15-.07-.11-.27-.14-.67-.33v9.17h-5.01v-18.12c3.94-1.13,4.63-.89,6.64,2.25,1.42,2.22,2.84,4.44,4.25,6.66.16-.04.31-.09.47-.13Z"/>
      <path class="cls-1" d="M153.59.39c3.48,0,6.59-.04,9.69.01,3.39.05,5.11,1.11,5.79,3.42.85,2.89-.12,5.04-2.91,6.79,1.48,2.66,2.96,5.31,4.48,8.02-4.77,1.39-5.93.9-7.88-3.11q-1.62-3.33-3.65-3.89v7.37h-5.53c0-3.1,0-6.18,0-9.26s0-6.02,0-9.35ZM159.22,8.56c1.8-.73,3.13-1.18,4.33-1.85.21-.12.04-1.64-.21-1.72-1.3-.42-2.69-.58-4.12-.84v4.42Z"/>
      <path class="cls-1" d="M237.19,18.99V.48c3.33,0,6.5,0,9.66,0,.24,0,.49.11.73.17,3.88,1.06,5.65,4.38,5.42,10.17-.18,4.59-2.24,7.66-6.04,8.09-3.21.37-6.49.08-9.78.08ZM242.66,4.93c-.11.33-.2.48-.2.64-.01,2.25-.12,4.51.04,6.75.06.87.56,2.26,1.13,2.42,1.54.43,3.1-.13,3.56-1.88.33-1.26.35-2.64.31-3.96-.13-3.44-1.22-4.32-4.84-3.96Z"/>
      <path class="cls-1" d="M199.54.41c3.2,0,6.12,0,9.05,0,.33,0,.67.06,1,.13,3.92.87,6,4.45,5.78,9.93-.2,5.03-2.42,8.18-6.45,8.54-3.06.27-6.16.05-9.38.05V.41ZM204.99,4.21v11.25c1.72-.77,3.55-1,4.12-1.98,1.36-2.31,1.35-5.1-.09-7.37-.61-.97-2.42-1.19-4.03-1.9Z"/>
      <path class="cls-1" d="M152.05,59.82c-.02,6.11-3.24,9.65-8.81,9.67-5.88.03-9.31-3.6-9.27-9.79.04-6.15,3.4-9.71,9.12-9.68,5.72.03,8.97,3.59,8.95,9.79ZM146.64,60.09c-.09-1.07-.06-1.84-.22-2.57-.39-1.83-1.49-3.06-3.43-3.04-1.81.02-3.09,1.13-3.23,2.9-.15,1.87-.18,3.88.39,5.62.3.9,1.99,1.83,3.07,1.85.95.02,2.17-1.03,2.81-1.93.56-.81.47-2.06.62-2.83Z"/>
      <path class="cls-1" d="M214.59,30.42c-2.36.2-4.4,1.7-6.58-.68-1.41-1.54-4.38-.23-4.87,2.11-.4,1.9-.4,4.04.02,5.93.58,2.55,4.06,3.41,6.2,1.74.39-.31.76-.98.7-1.42-.04-.31-.8-.63-1.29-.75-.62-.16-1.29-.13-2.04-.18v-3.67h8.27c0,2.44.07,4.84-.05,7.23-.03.52-.64,1.15-1.14,1.5-3.22,2.28-6.81,2.66-10.58,1.87-.64-.14-1.28-.42-1.86-.74-3.35-1.88-4.96-6.86-3.82-11.67.97-4.06,3.87-6.42,8.12-6.6,5.47-.23,7.66,1.02,8.91,5.34Z"/>
      <path class="cls-1" d="M158.75,34.84c-.06,6.32-3.19,9.64-9.05,9.59-4.18-.03-6.92-1.72-8.2-5.04-1.67-4.34-.66-9.88,2.26-12.41,2.48-2.15,7.3-2.65,10.46-1,3.58,1.87,4.59,5.1,4.53,8.86ZM146,34.71c.22,1.07.14,2.44.77,3.29.71.95,2.03,1.91,3.13,1.95.94.04,2.61-1.06,2.78-1.9.43-2.06.48-4.32.06-6.37-.19-.89-1.93-2.01-2.97-2.01-1.05,0-2.3,1.09-3.06,2.03-.56.69-.48,1.9-.7,3Z"/>
      <path class="cls-1" d="M195.05,34.97c0,3.88-1.16,7.15-4.97,8.82-3.33,1.46-8.17.63-10.38-1.61-2.78-2.82-3.52-8.55-1.61-12.49,1.68-3.49,4.84-5.02,9.47-4.58,4.79.45,7.55,4.09,7.49,9.86ZM189.81,34.9c-.18-1.09-.06-2.29-.59-3.01-.71-.97-1.9-2.13-2.94-2.19-1.04-.06-2.93,1-3.08,1.81-.4,2.2-.33,4.59.1,6.8.15.76,1.96,1.68,2.97,1.63,1-.05,2.18-1.06,2.82-1.98.57-.81.51-2.07.71-3.07Z"/>
      <path class="cls-1" d="M99.13,25.61v3.86c-2.31,0-4.48.09-6.63-.03-2.04-.11-2.55.72-1.86,2.8h7.79v3.91h-7.9v3.64h8.86v4.15h-14.31v-18.34h14.05Z"/>
      <path class="cls-1" d="M67.38.5h5.46c0,3.36,0,6.61,0,9.85,0,3.33.8,4.62,2.86,4.67,2.15.05,3-1.3,3-4.79,0-3.17,0-6.34,0-9.68h5.22c0,4.43.26,8.79-.09,13.09-.24,2.96-2.19,5.1-5.3,5.61-7.32,1.2-11.26-1.45-11.16-8.81.04-3.25,0-6.5,0-9.94Z"/>
      <path class="cls-1" d="M149.68,7.31v3.83h-8.03v3.66h8.86v4.16h-14.59c0-3.04,0-6.11,0-9.19s0-6.02,0-9.21h14.36v3.87h-8.67v2.88h8.06Z"/>
      <path class="cls-1" d="M244.6,44.25c2.17-6.27,4.07-12.05,6.25-17.73.26-.68,2-.89,3.1-1.12,2.36-.49,3.48.51,4.19,2.9,1.54,5.19,3.48,10.27,5.42,15.86-1.78,0-3.24.05-4.69-.03-.41-.03-1.09-.41-1.15-.73-.75-3.92-3.84-1.77-5.88-2.28-.25-.06-.87.35-.93.63-.84,4.01-3.75,1.94-6.31,2.51ZM255.79,36.78c-.56-2.01-1.03-3.72-1.5-5.43-.17-.01-.35-.02-.52-.03-.48,1.75-.96,3.5-1.49,5.46h3.52Z"/>
      <path class="cls-1" d="M171.6,13.06c1.15-.14,2.16-.47,3.11-.33.78.11,1.48.77,2.22,1.19,1.02.58,1.98,1.38,3.07,1.64.47.11,1.58-.79,1.71-1.38.13-.57-.48-1.63-1.05-1.94-1.08-.59-2.36-.8-3.56-1.18-3.78-1.2-5.31-3.13-4.94-6.24.33-2.76,2.47-4.41,6.21-4.75,4.59-.43,7.44,1.27,8.12,4.84.03.15-.06.32-.13.68-2.02.04-4.24,1.51-5.8-1.35-.25-.46-1.65-.39-2.5-.35-.3.02-.85.99-.79,1.05.54.56,1.11,1.18,1.81,1.45,1.47.59,3.08.85,4.53,1.47,3.4,1.45,4.57,4.87,2.89,8.12-1.49,2.89-5.12,4.15-9.53,3.31-3.44-.65-4.91-2.29-5.36-6.25Z"/>
      <path class="cls-1" d="M216.36,19.16c2.16-6.18,4.08-11.97,6.28-17.65.26-.67,1.99-.87,3.08-1.11,2.38-.52,3.48.56,4.18,2.91,1.57,5.2,3.5,10.28,5.43,15.85-1.72,0-3.19.12-4.62-.06-.53-.07-1.32-.78-1.4-1.3-.3-1.76-1.45-1.9-2.77-1.69-1.52.25-3.61-1.06-4.32,1.66-.16.61-1.33,1.16-2.12,1.34-1.03.23-2.15.06-3.73.06ZM226.04,6.26c-.18.02-.36.03-.53.05-.48,1.79-.95,3.58-1.48,5.55h3.49c-.52-1.96-.99-3.78-1.47-5.6Z"/>
      <path class="cls-1" d="M104.41,69h-5.16q-1.42-3.34-6.77-2.83c-1.53,3.36-1.96,3.54-6.55,2.59,2.03-5.79,4.04-11.56,6.08-17.32.13-.36.37-.79.69-.95,2.27-1.17,5.68.26,6.53,2.69,1.77,5.07,3.53,10.14,5.29,15.22.05.14-.05.32-.1.6ZM95.23,55.42c-.69,2.52-1.21,4.39-1.75,6.35h3.52c-.57-2.03-1.08-3.86-1.77-6.35Z"/>
      <path class="cls-1" d="M173.29,69.1c1.56-4.48,3-8.64,4.45-12.8.28-.79.56-1.58.84-2.37,1.28-3.63,2.46-4.32,6.22-3.53.47.1,1.07.55,1.23.98,2.06,5.73,4.05,11.49,6.21,17.71-1.83,0-3.3.1-4.75-.06-.47-.05-1.17-.72-1.24-1.19-.32-2.03-1.72-1.97-3.17-1.83-1.49.15-3.49-.84-3.94,1.82-.09.5-1.1,1.09-1.76,1.2-1.21.19-2.47.06-4.09.06ZM182.86,56.1c-.14.02-.28.04-.42.06-.48,1.86-.97,3.72-1.48,5.67h3.5c-.57-2.03-1.08-3.88-1.6-5.73Z"/>
      <path class="cls-1" d="M118.14,61.49c1.22.38,2.33.72,3.43,1.08.31.1.59.29.86.42-.49,4.01-2.96,6.26-7.01,6.48-4.9.26-8.41-1.99-9.2-6.36-.41-2.26-.38-4.71,0-6.98.64-3.73,3.73-5.92,7.89-6.11,4.32-.2,6.88,1.5,8.29,5.73-1.98.42-3.73,2.36-5.76-.42-1.36-1.85-4.3-1.02-4.92,1.36-.45,1.73-.56,3.71-.17,5.43.25,1.1,1.61,2.56,2.63,2.69,1.01.12,2.24-1.16,3.29-1.94.34-.25.42-.85.65-1.38Z"/>
      <path class="cls-1" d="M118.28,30.87c-2.24.73-4.14,1.74-6.04-.79-1.14-1.53-4.01-.49-4.54,1.65-.45,1.81-.52,3.85-.15,5.67.21,1.02,1.64,2.46,2.57,2.5,1.08.05,2.26-1.18,3.32-1.96.34-.25.44-.84.72-1.44,1.5.52,2.89,1,4.25,1.47-.54,3.75-2.6,5.93-5.88,6.38-4.85.66-8.34-.87-9.85-4.64-1.4-3.49-1.4-7.08.3-10.5,1.59-3.21,4.82-4.57,9.24-4.06,3.14.36,5.04,2.11,6.04,5.74Z"/>
      <path class="cls-1" d="M243.34,30.91c-2.05.54-3.92,1.83-5.86-.75-1.24-1.65-4.11-.6-4.69,1.69-.42,1.66-.55,3.56-.15,5.19.27,1.14,1.48,2.47,2.58,2.89,1.59.61,2.83-.53,3.46-2.13.15-.38.33-.74.6-1.32,1.49.49,2.89.95,4.27,1.4-.57,5.65-6.61,8.45-12.15,5.78-3.1-1.5-4.84-5.54-4.39-10.25.42-4.48,2.38-7.11,5.99-8.07,5.19-1.38,9.37.83,10.36,5.57Z"/>
      <path class="cls-1" d="M125.24,12.85c1.19-4.1,2.38-8.19,3.59-12.36h5.4c-.64,1.94-1.21,3.74-1.82,5.53-1.27,3.73-2.68,7.42-3.79,11.2-.53,1.83-1.58,2.11-3.14,1.95-1.61-.17-3.42.67-4.21-1.92-1.48-4.89-3.34-9.67-5.02-14.51-.24-.69-.4-1.41-.64-2.26h5.52c1.2,4.07,2.41,8.21,3.63,12.35.15,0,.31,0,.46.01Z"/>
      <path class="cls-1" d="M71.75,43.86v-13.61c-1.9-.08-3.54-.15-5.35-.23v-4.44h15.91v4.41h-5.24c0,3.52,0,6.75,0,9.99q0,4.76-5.32,3.89Z"/>
      <path class="cls-1" d="M166.95,39.54h8.18v4.44h-13.36v-18.43h5.18v13.98Z"/>
      <path class="cls-1" d="M193.99,68.97v-18.45h5.25v13.88h8.26v4.56h-13.51Z"/>
      <path class="cls-1" d="M223.59,43.93q-5.33.68-5.33-4.22c0-4.61,0-9.21,0-14.07h5.33v18.3Z"/>
      <path class="cls-1" d="M125.6,50.48h5.12v18.46h-5.12v-18.46Z"/>
      <path class="cls-1" d="M195.28,19.07h-5.06V.57h5.06v18.49Z"/>
      <path class="cls-1" d="M108.16.49h5.07v18.5h-5.07V.49Z"/>
    </g>
  </g>
</svg>