<?xml version="1.0" encoding="UTF-8"?>
<svg id="Capa_2" data-name="Capa 2" xmlns="http://www.w3.org/2000/svg" viewBox="0 0 280.17 96.6">
  <defs>
    <style>
      .cls-1 {
        fill: #333;
      }

      .cls-1, .cls-2 {
        stroke-width: 0px;
      }

      .cls-2 {
        fill: #cdcccc;
      }
    </style>
  </defs>
  <g id="Capa_1-2" data-name="Capa 1">
    <g>
      <path class="cls-1" d="M222.93,15.04c2.21,0,3.94.07,5.66-.03,1.06-.06,1.55.34,2.01,1.26,4.9,9.85,9.84,19.67,14.76,29.51.67,1.35,1.39,2.65,2.86,3.72h-8.58c.7-.76.39-1.46.04-2.15-4.48-8.94-8.97-17.88-13.46-26.82-.05-.09-.16-.15-.37-.33-2.33,4.71-4.64,9.37-7.03,14.21h11.56c-.81,1.64-1.92,2.57-3.76,2.52-2.56-.06-5.12-.04-7.68-.12-.89-.03-1.4.2-1.79,1.06-1.42,3.14-2.93,6.23-4.42,9.34-.36.76-.68,1.51.14,2.36h-5.51c5.55-10.62,10.54-21.53,15.88-32.28.35-.7.81-1.4-.32-2.25Z"/>
      <path class="cls-1" d="M272.99,31.49c-1.25,1.78-2.39,3.12-4.61,3.02-2.39-.11-4.79-.02-7.18-.09-.89-.03-1.13.25-1.12,1.13.05,3.34.05,6.68,0,10.02-.02.96.31,1.2,1.23,1.24,6.27.26,12.54.5,18.78-1.1.14,1.12-.29,2.12-.41,3.15-.11,1.01-.95.75-1.57.75-6.84.01-13.69,0-20.53,0-1.7,0-3.4,0-5.63,0,1.89-1.42,1.75-3.04,1.74-4.65-.01-8.57-.02-17.14,0-25.72,0-1.53-.02-3-1.94-4.19,2.14,0,3.73,0,5.32,0,6.34,0,12.69,0,19.03,0,1.38,0,2.37,1.34,2.05,2.7-.16.68-.58.33-.89.27-5.41-1.01-10.88-.25-16.31-.49-.67-.03-.86.27-.85.89.02,4.12.03,8.24,0,12.36,0,.94.5.94,1.16.92,3.39-.1,6.79.19,10.17-.2.42-.05.85,0,1.57,0Z"/>
      <path class="cls-1" d="M202.49,49.51h-9.51c1.96-1.47,1.64-3.35,1.64-5.15,0-8.45,0-16.9.01-25.35,0-1.45-.23-2.76-1.72-3.85h9.71c-1.53,1.11-1.6,2.55-1.6,4.08.03,8.51.03,17.01,0,25.52,0,1.67-.07,3.32,1.46,4.76Z"/>
      <path class="cls-1" d="M193.29,62.95c0-1.16.07-2.33-.02-3.49-.09-1.07.34-1.36,1.33-1.27,1.21.11,2.44-.13,3.64.16,1.98.48,2.69,2.06,1.57,3.75-.39.59-.39.76.14,1.25,1.49,1.36,1.06,3.46-.82,4.11-1.72.59-3.52.26-5.28.29-.68.01-.56-.56-.56-.98-.01-1.27,0-2.55,0-3.83ZM196.4,63.49c-.48.32-1.43-.51-1.92.4-.76,1.41.14,2.83,1.71,2.84.39,0,.78.01,1.16,0,1.1-.05,2.27-.21,2.29-1.6.02-1.54-1.22-1.61-2.38-1.63-.22,0-.44,0-.87,0ZM196.27,62.43c.44,0,.89.06,1.32-.01.89-.15,1.59-.61,1.59-1.6,0-1.02-.72-1.44-1.63-1.52-.77-.07-1.54-.03-2.32-.02-.34,0-.61.08-.78.46-.65,1.55.12,2.72,1.81,2.7Z"/>
      <path class="cls-1" d="M244.01,65.59c0-2.37-.02-4.29.01-6.2,0-.43-.26-1.15.54-1.14.8.01.5.73.51,1.16.03,2.39.03,4.78,0,7.16,0,.39.26.96-.32,1.15-.6.19-.87-.33-1.18-.72-1.52-1.98-3.05-3.96-4.57-5.94-.12-.15-.26-.29-.67-.72,0,2.35.01,4.32,0,6.29,0,.44.22,1.13-.59,1.1-.67-.03-.49-.63-.49-1.04-.02-2.44-.02-4.89,0-7.33,0-.4-.2-.95.4-1.12.52-.15.8.26,1.07.62,1.35,1.76,2.7,3.52,4.06,5.28.29.37.61.72,1.23,1.45Z"/>
      <path class="cls-1" d="M250.55,62.98c.16-1.6-.6-3.52.32-4.46.91-.94,2.84-.29,4.32-.27.71.01,2.06-.57,2.05.53,0,1.04-1.35.37-2.08.52-.54.1-1.12.1-1.66,0-1.58-.29-1.83.49-1.77,1.85.04,1.01.27,1.4,1.32,1.3.99-.09,2-.02,3-.01.33,0,.68-.01.72.46.05.58-.33.6-.74.6-.83,0-1.68.07-2.5-.02-1.28-.14-1.81.12-1.82,1.63-.01,1.63.76,1.64,1.91,1.57,1-.06,2-.02,3,0,.38,0,.82-.06.82.54,0,.58-.43.54-.82.55-.39,0-.78.01-1.17,0-1.55-.04-3.61.51-4.51-.27-1.05-.92-.16-3.04-.38-4.52Z"/>
      <path class="cls-1" d="M241.45,76.58c.03,2.86-1.96,4.98-4.67,5.01-2.75.03-4.8-2.06-4.79-4.88,0-2.85,2.01-4.92,4.77-4.92,2.67,0,4.67,2.05,4.7,4.8ZM236.7,72.86c-2,0-3.61,1.72-3.59,3.84.02,2.09,1.67,3.83,3.64,3.82,1.98,0,3.6-1.75,3.58-3.85-.02-2.13-1.63-3.81-3.63-3.81Z"/>
      <path class="cls-1" d="M251.6,71.78c2.77.02,4.69,2.08,4.65,4.98-.05,2.82-1.96,4.81-4.65,4.83-2.73.02-4.81-2.11-4.79-4.9.02-2.8,2.1-4.92,4.8-4.91ZM255.08,76.79c.04-2.19-1.44-3.88-3.43-3.94-2.04-.05-3.61,1.55-3.64,3.72-.03,2.18,1.44,3.88,3.44,3.94,2.03.06,3.59-1.54,3.63-3.72Z"/>
      <path class="cls-1" d="M226.19,76.8c0,1.22.01,2.45,0,3.67,0,.41.13,1-.57.96-.68-.03-.48-.62-.52-1.02-.12-1.03.49-2.47-.28-2.99-.77-.52-2.14-.11-3.23-.24-1.35-.16-1.97.24-1.75,1.69.1.65.01,1.33,0,2,0,.3-.12.54-.46.57-.42.03-.61-.21-.61-.6,0-2.78,0-5.57,0-8.35,0-.31.13-.54.47-.57.43-.03.59.22.6.61,0,.28-.03.56.02.83.16.89-.51,2.32.4,2.59,1.38.4,2.97.17,4.46.1.49-.02.36-.61.37-.98.02-.78,0-1.56,0-2.34,0-.4,0-.83.57-.81.58.02.52.48.52.86,0,1.34,0,2.67,0,4.01Z"/>
      <path class="cls-1" d="M222.1,58.11c.59,0,1.34.17,2.02.58.35.21.9.36.58.97-.33.64-.71.26-1.08.04-.79-.47-1.65-.7-2.55-.48-.68.17-1.23.57-1.29,1.34-.06.71.39,1.16.99,1.38.88.33,1.8.55,2.69.85,1.17.4,1.89,1.25,1.8,2.49-.09,1.28-.86,2.16-2.14,2.45-1.54.35-2.97.04-4.26-.89-.3-.22-.7-.4-.33-.9.34-.47.64-.27.97-.02.88.65,1.85,1,2.95.87.85-.1,1.49-.49,1.6-1.41.1-.88-.46-1.32-1.2-1.56-.58-.19-1.18-.32-1.76-.49-1.91-.56-2.65-1.49-2.42-3.01.21-1.41,1.44-2.26,3.43-2.22Z"/>
      <path class="cls-1" d="M276.62,67.86c-.9.03-1.78-.3-2.58-.82-.36-.24-1.03-.44-.55-1.12.42-.59.74-.09,1.08.14.81.55,1.69.83,2.67.75.85-.07,1.53-.45,1.71-1.32.19-.95-.44-1.41-1.25-1.67-.79-.25-1.61-.43-2.39-.71-1.15-.42-1.87-1.21-1.79-2.51.08-1.27.85-2.05,2.02-2.37,1.34-.36,2.65-.13,3.83.65.29.19.54.38.25.79-.23.34-.45.43-.81.2-.71-.46-1.47-.77-2.35-.72-.84.06-1.56.34-1.74,1.25-.2.96.44,1.42,1.23,1.69.52.18,1.08.27,1.61.42,1.97.56,2.81,1.58,2.56,3.11-.23,1.43-1.55,2.29-3.51,2.23Z"/>
      <path class="cls-1" d="M265.38,67.86c-1.03,0-1.96-.34-2.8-.92-.36-.25-.81-.5-.38-1.04.36-.46.66-.14.97.09.84.61,1.76.92,2.81.82.86-.08,1.53-.46,1.68-1.34.16-.94-.46-1.41-1.28-1.66-.8-.24-1.61-.42-2.39-.69-1.18-.41-1.84-1.27-1.76-2.52.07-1.24.83-2.05,2.02-2.35,1.28-.32,2.54-.16,3.68.56.32.2.7.38.39.9-.3.5-.6.32-.95.1-.67-.42-1.38-.7-2.2-.64-.83.07-1.55.32-1.73,1.25-.19.98.45,1.42,1.24,1.69.52.18,1.07.28,1.6.43,1.98.57,2.8,1.58,2.53,3.11-.26,1.46-1.53,2.28-3.41,2.22Z"/>
      <path class="cls-1" d="M196.39,81.55c-.98.08-1.96-.29-2.86-.86-.35-.22-.87-.47-.51-1.03.36-.56.73-.19,1.09.08.84.61,1.78.89,2.82.77.86-.1,1.49-.54,1.62-1.41.12-.87-.49-1.31-1.22-1.55-.89-.3-1.81-.51-2.7-.82-1.08-.38-1.58-1.26-1.55-2.33.03-1.06.57-1.9,1.64-2.29,1.46-.54,2.83-.33,4.14.45.37.22.6.46.27.93-.28.39-.54.27-.83.06-.81-.56-1.71-.82-2.68-.63-.68.13-1.24.49-1.34,1.28-.11.81.35,1.27,1.02,1.52.67.25,1.39.38,2.08.59,1.79.56,2.51,1.49,2.31,2.95-.21,1.45-1.36,2.29-3.29,2.31Z"/>
      <path class="cls-1" d="M213.4,61.98c0,.67.02,1.34,0,2-.06,2.48-1.44,3.9-3.8,3.91-2.35.01-3.79-1.39-3.87-3.86-.05-1.56-.03-3.12,0-4.68,0-.44-.22-1.16.59-1.1.76.05.48.76.49,1.2.04,1.45-.04,2.9.03,4.34.1,2,1.12,3.05,2.82,3.03,1.69-.03,2.63-1.11,2.66-3.15.03-1.56,0-3.12.01-4.68,0-.4,0-.82.6-.76.46.04.46.41.47.74.01,1,0,2,0,3.01Z"/>
      <path class="cls-1" d="M209.68,81.59c-2.09,0-3.75-1.18-4.41-3.14-.72-2.12-.07-4.46,1.57-5.72,1.54-1.18,3.87-1.3,5.46-.24.39.26,1.19.46.66,1.21-.48.67-.86,0-1.24-.22-1.78-.99-3.48-.78-4.65.61-1.21,1.44-1.2,3.79.03,5.23,1.21,1.42,3.01,1.6,4.79.45.39-.25.74-.85,1.2-.17.46.68-.29.84-.62,1.1-.76.62-1.73.88-2.8.89Z"/>
      <path class="cls-1" d="M263.16,76.39c.1,1.09-.54,2.74.24,3.64.82.94,2.51.19,3.81.34.44.05,1.15-.24,1.12.57-.03.78-.73.51-1.17.52-1.33.03-2.66-.04-3.99.03-.91.05-1.12-.32-1.11-1.16.04-2.44,0-4.88.03-7.32,0-.43-.25-1.14.59-1.07.66.05.45.66.46,1.05.03,1.05,0,2.11,0,3.39Z"/>
      <path class="cls-1" d="M230.36,62.94c0-1.33,0-2.65,0-3.98,0-.4.02-.79.6-.74.43.04.55.31.55.67,0,2.71,0,5.42,0,8.13,0,.44-.13.76-.65.74-.62-.02-.5-.49-.5-.84-.02-1.33,0-2.65,0-3.98Z"/>
    </g>
    <path class="cls-1" d="M177.71,0v96.59h-.45V0h.45Z"/>
    <g>
      <path class="cls-1" d="M124.48,76.43c2.15-7.86,4.21-15.43,6.31-22.99.27-.98.62-1.93.22-2.91-1.59-3.93-3.24-7.84-4.83-11.76-.46-1.14-1.04-1.06-2.1-.66-3.02,1.13-5.81,2.96-9.22,2.94-5.77-.02-10.35-4.32-10.45-9.91-.1-5.98,4.3-10.62,10.2-10.75,1.24-.03,2.52.52,2.41-1.85-.22-4.69,2.22-8.19,6.22-9.82,4.34-1.77,8.37-.84,11.82,2.74.31.32.56.7.94,1.18,2.96-3.52,6.38-5.55,10.93-4.53,5.24,1.17,8.22,4.89,8.17,10.26-.01,1.5.04,2.16,1.95,2.07,4.62-.22,7.97,2.01,9.89,6.22,1.7,3.74.83,8.5-2.09,11.32-3.32,3.22-7.23,3.81-11.54,2.32-.08-.03-.15-.11-.23-.14-2.21-.7-4.6-2.98-6.39-2.09-1.54.77-1.74,3.97-2.86,5.9-2.87,4.94-2.97,9.8-.93,15.15,1.88,4.95,2.93,10.21,4.34,15.34.29,1.06.74,2.01-1.19,1.99-7.07-.1-14.14-.04-21.57-.04ZM156.73,38.32c4.21.06,7.46-2.5,8.14-5.89.72-3.6-1.28-7.53-4.44-8.71-3.66-1.36-7.66-.18-9.48,3.11-1.22,2.19-2,4.63-3,6.95-.29.69-.26,1.2.51,1.5,2.93,1.16,5.71,2.75,8.27,3.03ZM134.87,18.92c.08-4.22-2.58-7.43-6.37-8.18-3.47-.69-7.1,1.46-8.37,4.96-1.27,3.49.06,7.36,3.34,9.08,2.15,1.13,4.46,1.96,6.69,2.94.65.28,1.21.45,1.54-.4,1.13-2.94,2.75-5.7,3.17-8.4ZM115.57,38.21c2.72-.41,6.27-1.27,8.3-3.5,1.37-1.51-1.32-4.31-2.06-6.58-.06-.17-.12-.34-.19-.51-1.73-3.61-5.65-5.22-9.59-3.93-3.13,1.03-5.31,4.8-4.76,8.26.58,3.61,3.91,6.31,8.3,6.25ZM137.49,19.52c.31,2.33,1.34,5.86,3.59,8.03,1.23,1.19,4.28-1.45,6.57-2.2.17-.06.34-.12.51-.2,3.54-1.77,5.21-5.73,3.97-9.41-1.09-3.24-4.8-5.54-8.15-5.03-4.05.61-6.52,3.54-6.49,8.82ZM147.06,28.63c-1.92.8-3.29,1.25-4.53,1.93-2.27,1.25-3.83,1.31-4.48-1.75-.31-1.47-1.18-2.83-1.97-4.63-.97,2.29-1.9,4.14-2.53,6.08-.48,1.5-1.17,1.46-2.36.92-1.76-.81-3.57-1.49-6.02-2.5,2.31,4.51,4.29,8.37,6.33,12.35.45-4.3,1.75-5.97,4.56-5.98,2.88-.01,4.13,1.63,4.45,6.2,2.18-4.22,4.2-8.1,6.54-12.62Z"/>
      <path class="cls-1" d="M24.22,60.64c-1.62,5.08-3.06,9.45-4.39,13.85-.42,1.38-.94,2.14-2.59,1.99-2.51-.22-5.63.7-7.39-.5-1.58-1.07-1.69-4.33-2.4-6.64-2.48-8.09-4.93-16.18-7.46-24.49,3.33,0,6.41.05,9.49-.02,1.26-.03,1.64.48,1.93,1.67,1.02,4.3,2.22,8.55,3.45,13.21,1.47-3.18,2.16-6.29,3.05-9.31,1.67-5.63,1.65-5.48,7.4-5.71,2.7-.11,4.01.54,4.64,3.32.86,3.83,2.24,7.54,3.89,11.37,1.15-4.19,2.42-8.35,3.4-12.58.37-1.58.94-2.1,2.5-1.96,2.84.26,5.72-.35,8.56.33-.75,2.68-1.45,5.38-2.26,8.05-2.14,7.08-4.34,14.13-6.45,21.22-.44,1.49-1.1,2.18-2.79,2.05-2.43-.19-5.38.72-7.2-.36-1.84-1.09-1.74-4.33-2.51-6.63-.9-2.72-1.77-5.45-2.87-8.84Z"/>
      <path class="cls-1" d="M89.28,64c.55-2,.04-4.04.33-6.08,1.15-8.13,7.53-13.75,15.86-13.72,8.5.03,14.33,5.24,15.35,13.71.68,5.68.68,5.71-4.98,5.76-4.53.04-9.06,0-13.59.03-.57,0-1.35-.32-1.65.45-.25.65.23,1.18.59,1.7,2.2,3.19,7.15,3.85,10.61,1.09,1.61-1.29,2.64-1.43,3.94.11.28.34.72.54,1.07.83,3.56,2.97,3.51,3.01-.12,5.89-7.32,5.82-23.39,4.34-26.74-8.46-.11-.43.28-1.35-.72-1.38l.06.07ZM100.18,57.91c2.92,0,5.79-.09,8.66.03,1.99.08,1.82-.86,1.27-2.12-.96-2.2-2.55-3.47-5.05-3.36-2.57.12-3.99,1.66-4.87,5.45Z"/>
      <path class="cls-1" d="M89.22,63.93c-.08,1.52.02,3.07-.26,4.55-.92,4.88-4.36,7.76-10.32,8.34-5.63.55-10.96-.61-15.85-3.6-1.03-.63-1.5-1.06-.66-2.24,1.15-1.62,1.73-3.98,3.24-4.9,1.53-.94,3.21,1.26,4.97,1.8,2.01.62,4,1.15,6.1,1.12.96-.01,2.13.03,2.4-1.25.29-1.36-.87-1.68-1.78-1.98-2.06-.68-4.17-1.19-6.22-1.88-6.02-2.04-8.23-5.02-7.81-10.42.35-4.6,3.87-8.18,9.39-8.99,5.03-.74,9.91.1,14.48,2.46,1.15.59,1.73,1.1.87,2.44-1.02,1.59-1.46,3.78-2.82,4.86-1.69,1.35-3.26-1.08-5.07-1.34-1.5-.22-2.96-.81-4.5-.85-1.09-.02-2.04.36-2.21,1.54-.14,1.02.83,1.28,1.55,1.54,1.35.5,2.73.96,4.12,1.33,4.44,1.19,8.35,3.1,10.46,7.54,0,0-.06-.07-.06-.07Z"/>
      <path class="cls-1" d="M49.44,60.64c0-4.63.06-9.25-.04-13.88-.03-1.53.38-2.03,1.94-1.95,2.98.15,6.89-1.01,8.71.46,1.91,1.54.54,5.61.57,8.57.09,6.8-.04,13.6.07,20.4.03,1.82-.52,2.33-2.29,2.23-2.88-.18-6.68.97-8.42-.46-1.8-1.49-.44-5.43-.54-8.29-.09-2.36-.02-4.72-.02-7.07Z"/>
      <path class="cls-1" d="M55.12,33.96c5.82,0,5.76,0,5.8,5.93.01,1.64-.22,2.44-2.14,2.3-2.61-.19-5.25-.09-7.87-.03-1.11.03-1.76-.2-1.56-1.47.04-.27,0-.54,0-.81q-.05-5.91,5.78-5.91Z"/>
      <path class="cls-2" d="M156.73,38.32c-2.56-.28-5.34-1.87-8.27-3.03-.77-.3-.8-.82-.51-1.5,1-2.32,1.78-4.76,3-6.95,1.82-3.29,5.82-4.47,9.48-3.11,3.16,1.17,5.16,5.1,4.44,8.71-.68,3.38-3.93,5.95-8.14,5.89Z"/>
      <path class="cls-2" d="M134.87,18.92c-.42,2.69-2.04,5.46-3.17,8.4-.32.85-.89.68-1.54.4-2.23-.98-4.54-1.81-6.69-2.94-3.28-1.72-4.61-5.58-3.34-9.08,1.27-3.49,4.89-5.64,8.37-4.96,3.79.75,6.45,3.96,6.37,8.18Z"/>
      <path class="cls-2" d="M115.57,38.21c-4.39.06-7.72-2.64-8.3-6.25-.55-3.46,1.62-7.23,4.76-8.26,3.94-1.29,7.86.31,9.59,3.93.08.16.14.33.19.51.73,2.27,3.43,5.08,2.06,6.58-2.04,2.23-5.58,3.09-8.3,3.5Z"/>
      <path class="cls-2" d="M137.49,19.52c-.02-5.28,2.44-8.21,6.49-8.82,3.35-.5,7.06,1.79,8.15,5.03,1.24,3.69-.43,7.64-3.97,9.41-.16.08-.33.14-.51.2-2.29.75-5.34,3.39-6.57,2.2-2.25-2.17-3.28-5.7-3.59-8.03Z"/>
      <g>
        <path class="cls-1" d="M4.51,83.11l.6,2.55c.02.08.04.19.07.33.03.15.06.3.09.47s.06.33.09.5c.03.16.05.3.07.4h.02c.02-.11.04-.25.07-.41s.06-.32.09-.49c.03-.17.06-.32.1-.46.03-.14.06-.26.07-.34l.64-2.55h1.25l.64,2.54c.02.08.04.19.07.33.03.15.06.3.1.47.04.17.07.34.1.5.03.16.05.3.07.4h.02c.02-.11.04-.25.07-.41s.06-.32.09-.49c.03-.16.06-.32.09-.47s.05-.26.07-.35l.58-2.54h1.21l-1.41,5.52h-1.32l-.71-2.85c-.06-.23-.11-.46-.16-.69-.05-.23-.1-.46-.14-.71h-.02c-.05.25-.09.48-.14.7-.05.22-.1.45-.16.69l-.68,2.86h-1.29l-1.44-5.52h1.22Z"/>
        <path class="cls-1" d="M13.85,83.02c.39,0,.75.06,1.09.19.33.13.62.31.86.56.24.24.43.54.57.9.14.36.21.76.21,1.22s-.07.84-.21,1.19-.33.65-.58.89-.54.43-.87.57c-.34.13-.7.2-1.09.2s-.75-.06-1.09-.19c-.33-.13-.62-.31-.86-.55-.24-.24-.43-.54-.57-.89-.14-.35-.21-.76-.21-1.21s.07-.84.21-1.2c.14-.35.33-.65.58-.9.25-.25.54-.44.87-.57s.7-.2,1.09-.2ZM12.37,85.89c0,.33.04.61.12.85.08.24.19.44.32.61.13.16.29.28.47.36s.37.12.57.12.39-.04.57-.12.33-.2.46-.36c.13-.16.23-.36.31-.61.08-.24.11-.53.11-.85s-.04-.63-.12-.88c-.08-.25-.19-.45-.32-.61-.13-.16-.29-.28-.47-.35-.18-.08-.37-.11-.57-.11s-.39.04-.57.12c-.18.08-.33.2-.46.36-.13.16-.23.36-.31.61-.08.25-.11.53-.11.86Z"/>
        <path class="cls-1" d="M17.88,83.11h1.52l.79,2.52c.04.11.07.23.11.36.04.13.07.26.11.39s.07.25.1.38c.03.12.05.24.07.34h.04c.02-.09.04-.2.07-.33.03-.13.06-.26.1-.39s.07-.27.11-.39.07-.25.1-.35l.76-2.52h1.52l.41,5.52h-1.13c-.04-.61-.07-1.22-.11-1.82-.04-.61-.06-1.22-.07-1.84v-.72h-.04c-.08.32-.16.66-.25,1.01-.09.35-.18.66-.26.92l-.78,2.46h-.93l-.8-2.46c-.1-.32-.19-.65-.28-1s-.16-.66-.21-.92h-.03c0,.21,0,.43,0,.66,0,.23-.01.46-.02.69,0,.23-.02.45-.03.67,0,.22-.02.42-.03.6l-.11,1.76h-1.11l.39-5.52Z"/>
        <path class="cls-1" d="M24.83,83.11h3.59v.93h-2.39v1.26h2.17v.92h-2.17v1.48h2.42v.93h-3.62v-5.52Z"/>
        <path class="cls-1" d="M29.36,83.11h1.1l1.9,2.91c.13.2.25.39.36.58.11.19.19.34.23.44h.02c-.03-.38-.05-.76-.05-1.14v-2.8h1.11v5.52h-1.1l-1.77-2.68c-.08-.12-.15-.24-.22-.36-.07-.13-.14-.25-.21-.36s-.12-.22-.17-.32-.09-.18-.11-.24h-.02c.03.4.05.79.05,1.16s0,.75,0,1.14v1.67h-1.12v-5.52Z"/>
        <path class="cls-1" d="M38.45,83.11v5.52h-1.2v-5.52h1.2Z"/>
        <path class="cls-1" d="M39.67,83.11h1.1l1.9,2.91c.13.2.25.39.36.58.11.19.19.34.23.44h.02c-.03-.38-.05-.76-.05-1.14v-2.8h1.11v5.52h-1.1l-1.77-2.68c-.08-.12-.15-.24-.22-.36-.07-.13-.14-.25-.21-.36s-.12-.22-.17-.32-.09-.18-.11-.24h-.02c.03.4.05.79.05,1.16s0,.75,0,1.14v1.67h-1.12v-5.52Z"/>
        <path class="cls-1" d="M49.35,83.02c.36,0,.67.04.95.11.27.07.52.16.74.27l-.27.89c-.24-.12-.47-.21-.69-.27-.22-.06-.44-.09-.65-.09-.28,0-.5.06-.65.17-.16.11-.23.26-.23.45s.07.34.2.44c.13.1.35.2.65.29l.53.17c.44.15.78.35,1.03.62.25.27.37.6.37.99,0,.23-.04.45-.13.66-.09.2-.22.38-.39.53-.18.15-.39.27-.66.36s-.57.13-.92.13c-.66,0-1.27-.13-1.81-.4l.27-.89c.25.12.5.22.74.29.24.07.49.1.75.1.31,0,.54-.06.7-.17.16-.11.24-.27.24-.48,0-.07-.01-.14-.04-.21s-.07-.13-.14-.19c-.07-.06-.17-.12-.29-.18-.12-.06-.28-.12-.47-.18l-.46-.16c-.2-.07-.39-.15-.56-.25-.17-.09-.31-.2-.43-.32-.12-.12-.21-.27-.28-.43s-.1-.36-.1-.58c0-.24.04-.46.13-.66.09-.2.22-.38.39-.52.17-.15.39-.26.64-.34.25-.08.54-.12.87-.12Z"/>
        <path class="cls-1" d="M56.03,83.11v.95h-1.56v4.58h-1.2v-4.58h-1.53v-.95h4.29Z"/>
        <path class="cls-1" d="M56.72,83.11h3.59v.93h-2.39v1.26h2.17v.92h-2.17v1.48h2.42v.93h-3.62v-5.52Z"/>
        <path class="cls-1" d="M61.6,83.11h1.52l.79,2.52c.04.11.07.23.11.36.04.13.07.26.11.39s.07.25.1.38c.03.12.05.24.07.34h.04c.02-.09.04-.2.07-.33.03-.13.06-.26.1-.39s.07-.27.11-.39.07-.25.1-.35l.76-2.52h1.52l.41,5.52h-1.13c-.04-.61-.07-1.22-.11-1.82-.04-.61-.06-1.22-.07-1.84v-.72h-.04c-.08.32-.16.66-.25,1.01-.09.35-.18.66-.26.92l-.78,2.46h-.93l-.8-2.46c-.1-.32-.19-.65-.28-1s-.16-.66-.21-.92h-.03c0,.21,0,.43,0,.66,0,.23-.01.46-.02.69,0,.23-.02.45-.03.67,0,.22-.02.42-.03.6l-.11,1.76h-1.11l.39-5.52Z"/>
        <path class="cls-1" d="M70.57,83.11h3.59v.93h-2.39v1.26h2.17v.92h-2.17v1.48h2.42v.93h-3.62v-5.52Z"/>
        <path class="cls-1" d="M75.1,83.11h1.1l1.9,2.91c.13.2.25.39.36.58.11.19.19.34.23.44h.02c-.03-.38-.05-.76-.05-1.14v-2.8h1.11v5.52h-1.1l-1.77-2.68c-.08-.12-.15-.24-.22-.36-.07-.13-.14-.25-.21-.36s-.12-.22-.17-.32-.09-.18-.11-.24h-.02c.03.4.05.79.05,1.16s0,.75,0,1.14v1.67h-1.12v-5.52Z"/>
        <path class="cls-1" d="M84.75,83.11v.95h-1.56v4.58h-1.2v-4.58h-1.53v-.95h4.29Z"/>
        <path class="cls-1" d="M85.43,83.11h2.1c.31,0,.58.05.82.14.24.09.43.21.59.37.16.16.28.34.35.54.08.21.12.43.12.67,0,.22-.03.42-.1.59-.07.17-.15.32-.25.45-.1.13-.22.23-.34.32-.13.08-.25.15-.36.21l1.35,2.24h-1.38l-1.06-2.03h-.64v2.03h-1.19v-5.52ZM86.62,85.68h.47c.32,0,.57-.06.78-.19.2-.13.3-.34.3-.64,0-.26-.08-.47-.24-.61-.16-.14-.4-.21-.71-.21h-.6v1.66Z"/>
        <path class="cls-1" d="M90.44,83.11h3.59v.93h-2.39v1.26h2.17v.92h-2.17v1.48h2.42v.93h-3.62v-5.52Z"/>
        <path class="cls-1" d="M94.97,83.11h1.94c.32,0,.61.04.87.11.26.08.48.19.67.33.18.15.33.32.43.53.1.21.15.45.15.71,0,.32-.06.59-.18.82-.12.23-.28.42-.48.57-.2.15-.44.26-.71.33-.27.07-.56.11-.86.11h-.63v2.01h-1.2v-5.52ZM96.17,85.71h.49c.15,0,.3-.01.43-.04.14-.03.26-.07.36-.14.1-.07.18-.15.24-.26.06-.11.09-.24.09-.41,0-.29-.1-.5-.29-.63-.19-.13-.44-.2-.74-.2h-.59v1.68Z"/>
        <path class="cls-1" d="M99.88,83.11h2.1c.31,0,.58.05.82.14.24.09.43.21.59.37.16.16.28.34.35.54.08.21.12.43.12.67,0,.22-.03.42-.1.59-.07.17-.15.32-.25.45-.1.13-.22.23-.34.32-.13.08-.25.15-.36.21l1.35,2.24h-1.38l-1.06-2.03h-.64v2.03h-1.19v-5.52ZM101.07,85.68h.47c.32,0,.57-.06.78-.19.2-.13.3-.34.3-.64,0-.26-.08-.47-.24-.61-.16-.14-.4-.21-.71-.21h-.6v1.66Z"/>
        <path class="cls-1" d="M104.89,83.11h3.59v.93h-2.39v1.26h2.17v.92h-2.17v1.48h2.42v.93h-3.62v-5.52Z"/>
        <path class="cls-1" d="M109.42,83.11h1.1l1.9,2.91c.13.2.25.39.36.58.11.19.19.34.23.44h.02c-.03-.38-.05-.76-.05-1.14v-2.8h1.11v5.52h-1.1l-1.77-2.68c-.08-.12-.15-.24-.22-.36-.07-.13-.14-.25-.21-.36s-.12-.22-.17-.32-.09-.18-.11-.24h-.02c.03.4.05.79.05,1.16s0,.75,0,1.14v1.67h-1.12v-5.52Z"/>
        <path class="cls-1" d="M115.3,83.11h3.59v.93h-2.39v1.26h2.17v.92h-2.17v1.48h2.42v.93h-3.62v-5.52Z"/>
        <path class="cls-1" d="M119.81,83.11h1.2v3.31c0,.46.09.8.28,1.04.18.24.47.36.86.36s.65-.12.82-.36c.17-.24.25-.55.25-.93v-3.41h1.2v3.32c0,.77-.19,1.35-.57,1.73-.38.38-.95.57-1.71.57s-1.29-.19-1.71-.57c-.42-.38-.62-.97-.62-1.77v-3.28Z"/>
        <path class="cls-1" d="M125.62,83.11h2.1c.31,0,.58.05.82.14.24.09.43.21.59.37.16.16.28.34.35.54.08.21.12.43.12.67,0,.22-.03.42-.1.59-.07.17-.15.32-.25.45-.1.13-.22.23-.34.32-.13.08-.25.15-.36.21l1.35,2.24h-1.38l-1.06-2.03h-.64v2.03h-1.19v-5.52ZM126.82,85.68h.47c.32,0,.57-.06.78-.19.2-.13.3-.34.3-.64,0-.26-.08-.47-.24-.61-.16-.14-.4-.21-.71-.21h-.6v1.66Z"/>
        <path class="cls-1" d="M132.42,83.02c.36,0,.67.04.95.11.27.07.52.16.74.27l-.27.89c-.24-.12-.47-.21-.69-.27-.22-.06-.44-.09-.65-.09-.28,0-.5.06-.65.17-.16.11-.23.26-.23.45s.07.34.2.44c.13.1.35.2.65.29l.53.17c.44.15.78.35,1.03.62.25.27.37.6.37.99,0,.23-.04.45-.13.66-.09.2-.22.38-.39.53-.18.15-.39.27-.66.36s-.57.13-.92.13c-.66,0-1.27-.13-1.81-.4l.27-.89c.25.12.5.22.74.29.24.07.49.1.75.1.31,0,.54-.06.7-.17.16-.11.24-.27.24-.48,0-.07-.01-.14-.04-.21s-.07-.13-.14-.19c-.07-.06-.17-.12-.29-.18-.12-.06-.28-.12-.47-.18l-.46-.16c-.2-.07-.39-.15-.56-.25-.17-.09-.31-.2-.43-.32-.12-.12-.21-.27-.28-.43s-.1-.36-.1-.58c0-.24.04-.46.13-.66.09-.2.22-.38.39-.52.17-.15.39-.26.64-.34.25-.08.54-.12.87-.12Z"/>
        <path class="cls-1" d="M135.33,88.64v-5.52h1.2v2.19h2.1v-2.19h1.2v5.52h-1.2v-2.38h-2.1v2.38h-1.2Z"/>
        <path class="cls-1" d="M142.25,83.11v5.52h-1.2v-5.52h1.2Z"/>
        <path class="cls-1" d="M143.47,83.11h1.94c.32,0,.61.04.87.11.26.08.48.19.67.33.18.15.33.32.43.53.1.21.15.45.15.71,0,.32-.06.59-.18.82-.12.23-.28.42-.48.57-.2.15-.44.26-.71.33-.27.07-.56.11-.86.11h-.63v2.01h-1.2v-5.52ZM144.67,85.71h.49c.15,0,.3-.01.43-.04.14-.03.26-.07.36-.14.1-.07.18-.15.24-.26.06-.11.09-.24.09-.41,0-.29-.1-.5-.29-.63-.19-.13-.44-.2-.74-.2h-.59v1.68Z"/>
      </g>
    </g>
  </g>
</svg>