<?xml version="1.0" encoding="UTF-8"?>
<svg id="Capa_2" data-name="Capa 2" xmlns="http://www.w3.org/2000/svg" viewBox="0 0 113.39 39.02">
  <defs>
    <style>
      .cls-1 {
        fill: #fec815;
        stroke-width: 0px;
      }
    </style>
  </defs>
  <g id="Capa_1-2" data-name="Capa 1">
    <path class="cls-1" d="M15.8,5.31c12.96-2.44,74.09-12.81,91.77,4.5.2.19.31.53.31.89v12.3c0,.58-.3,1.05-.68,1.05h-11.28l16.9,4.55c.33.09.56.52.56,1.04v6.97c0,.61-.34,1.1-.73,1.05l-38.09-4.61-18.66-1.02s-.04,0-.06,0c-1.25.12-40.51,3.89-42.46,5.73-2.45,2.31-7.47.9-9.33.26-.39-.13-.62-.74-.5-1.33l2.16-11.06c.07-.38.28-.66.53-.73h0c.69-.2.76-1.69.09-2.03L.47,19.89c-.28-.14-.47-.54-.47-1v-8.01c0-.5.23-.93.54-1.03l10.69-3.4c1.51-.48,3.03-.86,4.56-1.15Z"/>
  </g>
</svg>