<?xml version="1.0" encoding="UTF-8"?>
<svg id="Capa_2" data-name="Capa 2" xmlns="http://www.w3.org/2000/svg" viewBox="0 0 264.54 62.71">
  <defs>
    <style>
      .cls-1 {
        fill: #fec815;
        stroke-width: 0px;
      }

      .cls-2 {
        opacity: .67;
      }

      .cls-3 {
        opacity: .87;
      }
    </style>
  </defs>
  <g id="Capa_1-2" data-name="Capa 1">
    <g class="cls-2">
      <path class="cls-1" d="M227.85,11.98c-21.63-.42-43.26-.54-64.9-.22-17.93.26-35.85.82-53.75,1.81-14.57.81-29.13,1.9-43.64,3.44-11.42,1.21-22.82,2.7-34.14,4.64-8.63,1.48-17.23,3.21-25.7,5.42-.88.23-1.75.46-2.63.7-1.54.2-2.41.98-2.59,2.34-.71,1.4-.66,2.86.15,4.38.78,2.2,1.88,4.21,3.3,6.04,1.55,2.44,3.36,4.68,5.44,6.71,4.49,4.53,9.52,8.9,15.2,11.87,1.58.75,3.15,1.51,4.73,2.26,2.36,1.08,4.82,1.51,7.38,1.27,8.15-2.23,16.42-3.99,24.72-5.49,10.95-1.98,21.99-3.5,33.05-4.76,14.11-1.6,28.27-2.75,42.44-3.62,17.46-1.07,34.95-1.7,52.44-2.03,21.15-.41,42.32-.38,63.47-.05,2.88.04,5.75.1,8.63.15,1.54-.2,2.41-.98,2.59-2.34.71-1.4.66-2.86-.15-4.38-.78-2.2-1.88-4.21-3.3-6.04-1.55-2.44-3.36-4.68-5.44-6.71-4.49-4.53-9.52-8.9-15.2-11.87l-4.73-2.26c-2.36-1.08-4.82-1.51-7.38-1.27h0Z"/>
    </g>
    <g class="cls-3">
      <path class="cls-1" d="M225.92.06c-27.81-.4-55.5,2.13-83.06,5.64-26.48,3.38-52.88,7.47-79.5,9.68-15.6,1.29-31.25,1.93-46.9,1.64l3.26.06c-3.82-.07-7.63-.2-11.44-.38-1.63-.57-3.08-.39-4.35.52-1.32.39-1.95,1.37-1.92,2.92.04,1.86.53,3.58,1.48,5.16.95,2.28,2.24,4.37,3.87,6.26,4,5,8.75,9.61,14.06,13.2l5.11,3.22c2.76,1.63,5.71,2.79,8.84,3.47,30.25,1.44,60.36-.54,90.38-4.2,27.86-3.39,55.59-7.83,83.55-10.3,16.7-1.48,33.47-2.25,50.24-2.01,1.54-.2,2.41-.98,2.59-2.34.71-1.4.66-2.86-.15-4.38-.78-2.2-1.88-4.21-3.3-6.04-1.55-2.44-3.36-4.68-5.44-6.71-4.49-4.53-9.52-8.9-15.2-11.87-1.58-.75-3.15-1.51-4.73-2.26-2.36-1.08-4.82-1.51-7.38-1.27h0Z"/>
    </g>
  </g>
</svg>